<svg xmlns="http://www.w3.org/2000/svg" xmlns:xlink="http://www.w3.org/1999/xlink" width="500" zoomAndPan="magnify" viewBox="0 0 375 374.999991" height="500" preserveAspectRatio="xMidYMid meet" version="1.0"><defs><clipPath id="2430e91b03"><path d="M 215 57.75 L 235 57.75 L 235 79 L 215 79 Z M 215 57.75 " clip-rule="nonzero"/></clipPath><clipPath id="018466e451"><path d="M 265 154 L 337.5 154 L 337.5 227 L 265 227 Z M 265 154 " clip-rule="nonzero"/></clipPath><clipPath id="ec03692051"><path d="M 38 119 L 217 119 L 217 317.25 L 38 317.25 Z M 38 119 " clip-rule="nonzero"/></clipPath></defs><path fill="#e7e8ff" d="M 170.875 316.164062 L 275.558594 316.164062 C 280.464844 316.164062 285.304688 315.054688 289.71875 312.917969 C 309.707031 303.25 314.339844 276.835938 298.832031 260.949219 L 294.183594 256.1875 C 281.023438 242.707031 284.863281 220.308594 301.761719 211.972656 C 310.894531 207.46875 316.824219 198.316406 317.199219 188.140625 L 318.382812 156.015625 C 319.882812 115.421875 276.851562 88.449219 240.960938 107.480469 C 224.816406 116.039062 205.394531 115.636719 189.621094 106.414062 L 166.886719 93.125 C 151.589844 84.179688 132.496094 84.914062 117.929688 94.996094 C 102.265625 105.84375 95 125.285156 99.714844 143.742188 L 99.875 144.359375 C 103.011719 156.652344 101 169.691406 94.261719 180.441406 C 92.574219 183.128906 90.839844 185.894531 89.101562 188.667969 C 75.355469 210.542969 73.878906 238.542969 86.816406 260.90625 C 89.425781 265.417969 92.144531 270.050781 94.929688 274.707031 C 110.800781 301.25 139.945312 316.164062 170.875 316.164062 Z M 170.875 316.164062 " fill-opacity="1" fill-rule="nonzero"/><path fill="#032068" d="M 159.105469 189.785156 C 159.714844 190.445312 160.757812 190.457031 161.394531 189.824219 C 202.375 149.238281 272.96875 153.613281 314.179688 191.160156 C 314.847656 191.769531 315.890625 191.707031 316.464844 191.007812 L 330.035156 174.523438 C 330.558594 173.886719 330.5 172.957031 329.894531 172.398438 C 280.699219 127.175781 196.171875 121.226562 145.121094 172.335938 C 144.535156 172.921875 144.515625 173.871094 145.078125 174.484375 Z M 290.875 225.511719 C 290.335938 226.171875 289.359375 226.269531 288.683594 225.75 C 255.882812 200.578125 215.328125 200.910156 184.40625 225.664062 C 183.710938 226.21875 182.683594 226.105469 182.148438 225.394531 L 170.519531 209.980469 C 170.015625 209.3125 170.132812 208.363281 170.78125 207.839844 C 210.527344 175.699219 262.1875 176.054688 303.339844 207.804688 C 304.03125 208.339844 304.144531 209.34375 303.589844 210.019531 Z M 205.285156 259.804688 C 205.832031 260.507812 206.855469 260.605469 207.554688 260.054688 C 223.3125 247.605469 245.953125 248.105469 262.882812 260.488281 C 263.578125 260.996094 264.558594 260.878906 265.089844 260.199219 L 277.53125 244.304688 C 278.066406 243.625 277.945312 242.636719 277.25 242.121094 C 252.589844 223.707031 218.5 221.554688 193.363281 242.109375 C 192.714844 242.636719 192.617188 243.589844 193.132812 244.25 Z M 233.707031 289.34375 C 240.152344 289.34375 245.378906 284.128906 245.378906 277.699219 C 245.378906 271.265625 240.152344 266.050781 233.707031 266.050781 C 227.261719 266.050781 222.035156 271.265625 222.035156 277.699219 C 222.035156 284.128906 227.261719 289.34375 233.707031 289.34375 Z M 233.707031 289.34375 " fill-opacity="1" fill-rule="evenodd"/><g clip-path="url(#2430e91b03)"><path fill="#032068" d="M 223.601562 60.214844 C 223.554688 60.3125 223.605469 60.429688 223.707031 60.46875 C 230.285156 63.0625 233.121094 71.132812 230.773438 77.542969 C 230.734375 77.644531 230.792969 77.757812 230.898438 77.789062 L 233.425781 78.5 C 233.523438 78.527344 233.628906 78.476562 233.664062 78.378906 C 236.511719 70.707031 233.199219 61.007812 224.9375 57.808594 C 224.84375 57.773438 224.734375 57.816406 224.691406 57.910156 Z M 225.742188 76.617188 C 225.640625 76.589844 225.585938 76.484375 225.613281 76.382812 C 226.941406 71.511719 224.988281 67.011719 220.695312 64.773438 C 220.597656 64.722656 220.5625 64.601562 220.617188 64.507812 L 221.832031 62.464844 C 221.882812 62.375 222 62.34375 222.089844 62.390625 C 227.644531 65.253906 230.046875 71.019531 228.355469 77.144531 C 228.328125 77.246094 228.21875 77.308594 228.117188 77.28125 Z M 217.773438 68.753906 C 217.71875 68.851562 217.757812 68.96875 217.851562 69.019531 C 220.023438 70.167969 221.035156 72.714844 220.417969 75.199219 C 220.394531 75.300781 220.453125 75.40625 220.554688 75.433594 L 222.960938 76.042969 C 223.066406 76.070312 223.171875 76.007812 223.199219 75.90625 C 224.140625 72.269531 222.777344 68.367188 219.234375 66.570312 C 219.144531 66.523438 219.03125 66.558594 218.980469 66.648438 Z M 215.738281 73.355469 C 216.042969 74.070312 216.886719 74.398438 217.621094 74.085938 C 218.359375 73.773438 218.707031 72.941406 218.402344 72.222656 C 218.097656 71.503906 217.253906 71.175781 216.519531 71.488281 C 215.78125 71.800781 215.433594 72.636719 215.738281 73.355469 Z M 215.738281 73.355469 " fill-opacity="1" fill-rule="evenodd"/></g><path fill="#032068" d="M 271.132812 287.289062 C 269.757812 299.523438 273.535156 312.035156 275.769531 316.738281 L 283.019531 316.738281 C 282.761719 301.910156 277.492188 291.398438 273.617188 286.507812 C 272.789062 285.464844 271.28125 285.960938 271.132812 287.289062 Z M 271.132812 287.289062 " fill-opacity="1" fill-rule="nonzero"/><path fill="#ffffff" d="M 292.660156 239.753906 C 275.113281 261.078125 275.824219 299.257812 278.441406 315.972656 L 296.371094 315.972656 C 309.902344 269.34375 301.640625 246.421875 294.898438 239.59375 C 294.261719 238.949219 293.234375 239.054688 292.660156 239.753906 Z M 292.660156 239.753906 " fill-opacity="1" fill-rule="nonzero"/><path fill="#032068" d="M 294.28125 240.199219 C 294.050781 239.964844 293.617188 239.949219 293.328125 240.304688 C 284.707031 250.78125 280.527344 265.464844 278.847656 279.695312 C 277.214844 293.5 277.953125 306.765625 279.183594 315.109375 L 295.722656 315.109375 C 302.304688 292.1875 303.570312 275.109375 302.375 262.941406 C 301.171875 250.640625 297.464844 243.421875 294.28125 240.199219 Z M 291.992188 239.203125 C 292.851562 238.15625 294.472656 237.929688 295.511719 238.984375 C 299.074219 242.589844 302.871094 250.246094 304.097656 262.773438 C 305.328125 275.320312 303.988281 292.820312 297.203125 316.214844 L 297.019531 316.839844 L 277.703125 316.839844 L 277.585938 316.109375 C 276.265625 307.679688 275.429688 293.878906 277.128906 279.492188 C 278.824219 265.121094 283.066406 250.050781 291.992188 239.203125 Z M 291.992188 239.203125 " fill-opacity="1" fill-rule="evenodd"/><path fill="#032068" d="M 312.886719 270.382812 C 298.453125 283.019531 293.0625 306.496094 292.175781 316.738281 L 304.277344 316.738281 C 315.710938 299.65625 316.621094 280.671875 315.433594 271.339844 C 315.273438 270.085938 313.839844 269.546875 312.886719 270.382812 Z M 312.886719 270.382812 " fill-opacity="1" fill-rule="nonzero"/><path fill="#032068" d="M 293.316406 262.652344 L 294.558594 250.832031 L 292.839844 250.648438 L 290.003906 277.597656 L 284.886719 269.722656 L 283.4375 270.667969 L 289.714844 280.328125 L 287.332031 302.96875 L 282.15625 296.730469 L 280.824219 297.832031 L 287.078125 305.375 L 285.972656 315.882812 L 287.695312 316.066406 L 289.941406 294.699219 L 296.882812 289.585938 L 295.855469 288.191406 L 290.1875 292.371094 L 293.074219 264.949219 L 299.164062 260.601562 L 298.15625 259.191406 Z M 293.316406 262.652344 " fill-opacity="1" fill-rule="evenodd"/><path fill="#ffffff" d="M 309.082031 287.296875 L 312.0625 279.269531 L 310.4375 278.667969 L 303.929688 296.210938 L 302.53125 292.046875 L 300.890625 292.597656 L 302.96875 298.792969 L 296.703125 315.675781 L 298.328125 316.277344 L 301.390625 308.019531 L 307.046875 305.308594 L 306.296875 303.75 L 302.257812 305.6875 L 308.25 289.539062 L 312.355469 287.777344 L 311.671875 286.1875 Z M 309.082031 287.296875 " fill-opacity="1" fill-rule="evenodd"/><path fill="#ffffff" d="M 336.640625 190.28125 C 336.640625 209.660156 320.929688 225.367188 301.550781 225.367188 C 282.171875 225.367188 266.460938 209.660156 266.460938 190.28125 C 266.460938 170.902344 282.171875 155.191406 301.550781 155.191406 C 320.929688 155.191406 336.640625 170.902344 336.640625 190.28125 Z M 336.640625 190.28125 " fill-opacity="1" fill-rule="nonzero"/><g clip-path="url(#018466e451)"><path fill="#032068" d="M 301.550781 156.007812 C 282.625 156.007812 267.277344 171.351562 267.277344 190.28125 C 267.277344 209.210938 282.625 224.554688 301.550781 224.554688 C 320.480469 224.554688 335.824219 209.210938 335.824219 190.28125 C 335.824219 171.351562 320.480469 156.007812 301.550781 156.007812 Z M 265.644531 190.28125 C 265.644531 170.449219 281.722656 154.375 301.550781 154.375 C 321.382812 154.375 337.457031 170.449219 337.457031 190.28125 C 337.457031 210.109375 321.382812 226.183594 301.550781 226.183594 C 281.722656 226.183594 265.644531 210.109375 265.644531 190.28125 Z M 265.644531 190.28125 " fill-opacity="1" fill-rule="evenodd"/></g><path fill="#5e9af4" d="M 290.988281 190.558594 C 291.304688 190.878906 291.304688 191.394531 290.988281 191.714844 L 281.300781 201.398438 C 280.984375 201.71875 280.984375 202.234375 281.300781 202.554688 L 290.988281 212.242188 C 291.308594 212.558594 291.824219 212.558594 292.140625 212.242188 L 301.828125 202.554688 C 302.148438 202.234375 302.664062 202.234375 302.980469 202.554688 L 312.667969 212.242188 C 312.988281 212.558594 313.503906 212.558594 313.824219 212.242188 L 323.507812 202.554688 C 323.828125 202.234375 323.828125 201.71875 323.507812 201.398438 L 313.824219 191.714844 C 313.503906 191.394531 313.503906 190.878906 313.824219 190.558594 L 323.507812 180.875 C 323.828125 180.554688 323.828125 180.039062 323.507812 179.71875 L 313.824219 170.03125 C 313.503906 169.714844 312.988281 169.714844 312.667969 170.03125 L 302.980469 179.71875 C 302.664062 180.039062 302.148438 180.039062 301.828125 179.71875 L 292.140625 170.03125 C 291.824219 169.714844 291.304688 169.714844 290.988281 170.03125 L 281.300781 179.71875 C 280.980469 180.039062 280.980469 180.554688 281.300781 180.875 Z M 290.988281 190.558594 " fill-opacity="1" fill-rule="evenodd"/><path fill="#efcb96" d="M 108.949219 185.019531 L 107.65625 197.527344 C 108.949219 199.539062 113.003906 203.5625 118.871094 203.5625 C 124.738281 203.5625 129.652344 199.539062 131.378906 197.527344 L 128.792969 181.570312 C 131.8125 180.273438 133.105469 169.921875 128.792969 161.730469 C 123.007812 150.742188 114.988281 145.769531 105.066406 150.949219 C 97.625 154.828125 95.578125 164.316406 97.300781 170.785156 C 99.277344 178.1875 105.5 184.445312 108.949219 185.019531 Z M 108.949219 185.019531 " fill-opacity="1" fill-rule="nonzero"/><path fill="#efcb96" d="M 197.109375 113.742188 L 196.703125 123.429688 L 211.273438 124.640625 C 211.273438 118.179688 213.300781 118.988281 212.085938 102.441406 C 211.113281 89.207031 203.855469 86.433594 200.347656 86.703125 L 202.371094 106.476562 L 195.894531 106.882812 L 194.679688 96.792969 C 193.871094 98.003906 192.007812 101.230469 191.039062 104.460938 C 190.066406 107.6875 194.679688 111.992188 197.109375 113.742188 Z M 197.109375 113.742188 " fill-opacity="1" fill-rule="nonzero"/><path fill="#ffffff" d="M 191.851562 73.625 L 195.40625 106.574219 C 195.457031 107.023438 195.859375 107.34375 196.304688 107.285156 L 201.328125 106.664062 C 201.765625 106.609375 202.078125 106.210938 202.023438 105.769531 L 198.074219 72.828125 C 198.023438 72.386719 197.617188 72.070312 197.171875 72.128906 L 192.546875 72.742188 C 192.113281 72.800781 191.804688 73.191406 191.851562 73.625 Z M 191.851562 73.625 " fill-opacity="1" fill-rule="nonzero"/><path fill="#032068" d="M 197.066406 71.332031 C 197.953125 71.214844 198.765625 71.84375 198.875 72.734375 L 202.824219 105.675781 C 202.929688 106.554688 202.304688 107.351562 201.425781 107.460938 L 196.402344 108.085938 C 195.511719 108.195312 194.703125 107.554688 194.609375 106.660156 L 191.054688 73.710938 C 190.960938 72.84375 191.574219 72.058594 192.441406 71.945312 Z M 197.277344 72.925781 L 192.652344 73.539062 L 196.207031 106.488281 L 201.226562 105.867188 Z M 197.277344 72.925781 " fill-opacity="1" fill-rule="evenodd"/><g clip-path="url(#ec03692051)"><path fill="#5e9af4" d="M 118.4375 198.820312 C 124.519531 198.820312 129.714844 194.6875 131.6875 192.492188 C 131.769531 192.398438 131.859375 192.328125 131.976562 192.28125 C 142.496094 187.859375 174.09375 171.203125 176.238281 168.199219 C 178.394531 165.179688 189.179688 123.777344 191.769531 120.757812 C 194.355469 117.738281 214.199219 119.03125 215.921875 123.777344 C 217.648438 128.519531 213.765625 177.6875 206.863281 192.351562 C 201.410156 203.941406 177.535156 223.226562 165.871094 231.726562 C 165.613281 231.914062 165.496094 232.21875 165.5625 232.527344 C 170.46875 255.285156 178.878906 301.605469 174.082031 308.796875 C 169.25 316.042969 140.4375 317.277344 126.632812 316.992188 L 50.378906 316.992188 C 50.058594 316.992188 49.773438 316.808594 49.648438 316.515625 C 45.847656 307.675781 38.636719 288.988281 38.636719 281.195312 C 38.636719 271.273438 55.460938 232.027344 66.675781 214.347656 C 75.496094 200.441406 96.148438 194.007812 105.863281 192.429688 C 106.171875 192.378906 106.46875 192.515625 106.65625 192.765625 C 108.34375 195.015625 112.605469 198.820312 118.4375 198.820312 Z M 118.4375 198.820312 " fill-opacity="1" fill-rule="nonzero"/></g><path fill="#032068" d="M 74.4375 284.214844 C 74.09375 289.734375 78.035156 308.367188 80.046875 316.992188 L 84.792969 316.992188 C 82.347656 308.222656 77.546875 289.648438 77.890625 285.507812 C 78.234375 281.367188 85.222656 262.792969 88.675781 254.023438 C 84.074219 261.785156 74.785156 278.695312 74.4375 284.214844 Z M 74.4375 284.214844 " fill-opacity="1" fill-rule="nonzero"/><path fill="#032068" d="M 194.785156 207.445312 C 195.476562 191.230469 206.863281 177.398438 212.472656 172.511719 C 211.464844 176.824219 208.933594 186.832031 206.863281 192.351562 C 204.792969 197.871094 197.949219 204.714844 194.785156 207.445312 Z M 194.785156 207.445312 " fill-opacity="1" fill-rule="nonzero"/><path fill="#032068" d="M 46.832031 281.195312 C 47.523438 272.914062 45.683594 263.65625 44.675781 260.0625 C 42.808594 264.519531 38.898438 274.984375 38.207031 281.195312 C 37.515625 287.40625 40.507812 294.996094 42.089844 298.015625 C 43.382812 295.859375 46.144531 289.476562 46.832031 281.195312 Z M 46.832031 281.195312 " fill-opacity="1" fill-rule="nonzero"/><path fill="#032068" d="M 109.8125 175.960938 C 109.667969 179.410156 109.292969 186.570312 108.949219 187.605469 C 105.496094 186.457031 97.300781 182.515625 92.125 175.960938 C 86.949219 169.40625 90.832031 163.742188 93.421875 161.730469 C 92.558594 161.296875 92.210938 157.242188 97.734375 144.476562 C 104.636719 128.519531 122.320312 134.558594 122.753906 144.476562 C 123.097656 152.414062 112.832031 157.558594 107.65625 159.140625 C 108.085938 162.589844 114.554688 172.941406 109.8125 169.921875 C 105.066406 166.90625 101.617188 167.335938 102.910156 172.941406 C 103.945312 177.429688 107.941406 176.824219 109.8125 175.960938 Z M 109.8125 175.960938 " fill-opacity="1" fill-rule="nonzero"/><path fill="#032068" d="M 119.300781 184.15625 C 125.167969 183.8125 128.070312 182.285156 128.789062 181.570312 L 129.652344 186.3125 C 125.511719 187.003906 121.027344 185.164062 119.300781 184.15625 Z M 119.300781 184.15625 " fill-opacity="1" fill-rule="nonzero"/></svg>