<svg xmlns="http://www.w3.org/2000/svg" xmlns:xlink="http://www.w3.org/1999/xlink" width="500" zoomAndPan="magnify" viewBox="0 0 375 374.999991" height="500" preserveAspectRatio="xMidYMid meet" version="1.0"><defs><g/><clipPath id="e9142b5976"><path d="M 288 9.261719 L 333 9.261719 L 333 274 L 288 274 Z M 288 9.261719 " clip-rule="nonzero"/></clipPath><clipPath id="f9615cd228"><path d="M 32.964844 9.261719 L 341.964844 9.261719 L 341.964844 299.511719 L 32.964844 299.511719 Z M 32.964844 9.261719 " clip-rule="nonzero"/></clipPath></defs><path fill="#5e9af4" d="M 234.121094 212.589844 L 234.121094 72.777344 L 278.253906 72.777344 L 278.253906 233.394531 C 263.757812 225.363281 248.769531 218.46875 234.121094 212.589844 Z M 234.121094 212.589844 " fill-opacity="1" fill-rule="nonzero"/><g clip-path="url(#e9142b5976)"><path fill="#5e9af4" d="M 288.855469 239.535156 L 288.855469 9.457031 L 332.988281 9.457031 L 332.988281 273.253906 C 319.972656 260.414062 304.863281 249.226562 288.855469 239.535156 Z M 288.855469 239.535156 " fill-opacity="1" fill-rule="nonzero"/></g><path fill="#5e9af4" d="M 179.390625 194.179688 L 179.390625 136.101562 L 223.523438 136.101562 L 223.523438 208.484375 C 207.792969 202.605469 192.722656 197.890625 179.390625 194.183594 Z M 179.390625 194.179688 " fill-opacity="1" fill-rule="nonzero"/><g clip-path="url(#f9615cd228)"><path fill="#032068" d="M 63.628906 246.757812 L 96.359375 93.4375 L 134.367188 93.429688 L 91.765625 224.65625 C 91.765625 224.65625 262.242188 225.398438 342.039062 299.59375 C 281.742188 217.511719 126.777344 192.988281 126.777344 192.988281 L 175.417969 37.457031 C 175.417969 37.457031 234.125 43.898438 278.257812 54.640625 C 231.417969 25.523438 161.625 9.457031 161.625 9.457031 L 140.628906 74.136719 C 100.359375 71.835938 74.175781 72.78125 74.175781 72.78125 L 32.964844 281.941406 C 32.964844 281.941406 215.671875 246.753906 316.214844 293.714844 C 232.105469 233.011719 63.628906 246.757812 63.628906 246.757812 Z M 63.628906 246.757812 " fill-opacity="1" fill-rule="nonzero"/></g><g fill="#032068" fill-opacity="1"><g transform="translate(32.966095, 356.623216)"><g><path d="M 28.96875 -44.921875 L 28.96875 -35.9375 L 13.5 -35.9375 L 13.5 -27.015625 L 28.3125 -27.015625 L 28.3125 -18.03125 L 13.5 -18.03125 L 13.5 -8.984375 L 28.96875 -8.984375 L 28.96875 0 L 3.265625 0 L 3.265625 -44.921875 Z M 28.96875 -44.921875 "/></g></g></g><g fill="#032068" fill-opacity="1"><g transform="translate(64.54682, 356.623216)"><g><path d="M 19.828125 -45.734375 C 22.253906 -45.734375 24.628906 -45.378906 26.953125 -44.671875 C 29.273438 -43.960938 31 -43.265625 32.125 -42.578125 L 33.765625 -41.5 L 29.625 -33.328125 C 29.289062 -33.546875 28.832031 -33.828125 28.25 -34.171875 C 27.675781 -34.515625 26.585938 -34.972656 24.984375 -35.546875 C 23.390625 -36.128906 21.90625 -36.421875 20.53125 -36.421875 C 18.820312 -36.421875 17.503906 -36.054688 16.578125 -35.328125 C 15.648438 -34.609375 15.1875 -33.632812 15.1875 -32.40625 C 15.1875 -31.78125 15.40625 -31.203125 15.84375 -30.671875 C 16.28125 -30.148438 17.023438 -29.585938 18.078125 -28.984375 C 19.128906 -28.390625 20.050781 -27.910156 20.84375 -27.546875 C 21.644531 -27.191406 22.882812 -26.648438 24.5625 -25.921875 C 27.46875 -24.679688 29.941406 -23 31.984375 -20.875 C 34.035156 -18.757812 35.0625 -16.359375 35.0625 -13.671875 C 35.0625 -11.085938 34.597656 -8.832031 33.671875 -6.90625 C 32.753906 -4.988281 31.484375 -3.484375 29.859375 -2.390625 C 28.242188 -1.304688 26.457031 -0.503906 24.5 0.015625 C 22.539062 0.546875 20.421875 0.8125 18.140625 0.8125 C 16.171875 0.8125 14.242188 0.613281 12.359375 0.21875 C 10.472656 -0.175781 8.894531 -0.671875 7.625 -1.265625 C 6.351562 -1.867188 5.207031 -2.460938 4.1875 -3.046875 C 3.175781 -3.628906 2.429688 -4.117188 1.953125 -4.515625 L 1.25 -5.125 L 6.375 -13.71875 C 6.8125 -13.351562 7.410156 -12.890625 8.171875 -12.328125 C 8.929688 -11.765625 10.28125 -11.007812 12.21875 -10.0625 C 14.164062 -9.125 15.882812 -8.65625 17.375 -8.65625 C 21.6875 -8.65625 23.84375 -10.125 23.84375 -13.0625 C 23.84375 -13.6875 23.6875 -14.257812 23.375 -14.78125 C 23.070312 -15.3125 22.53125 -15.835938 21.75 -16.359375 C 20.96875 -16.890625 20.273438 -17.304688 19.671875 -17.609375 C 19.078125 -17.921875 18.097656 -18.394531 16.734375 -19.03125 C 15.378906 -19.664062 14.375 -20.144531 13.71875 -20.46875 C 11 -21.8125 8.894531 -23.488281 7.40625 -25.5 C 5.914062 -27.519531 5.171875 -29.691406 5.171875 -32.015625 C 5.171875 -36.046875 6.660156 -39.335938 9.640625 -41.890625 C 12.617188 -44.453125 16.015625 -45.734375 19.828125 -45.734375 Z M 19.828125 -45.734375 "/></g></g></g><g fill="#032068" fill-opacity="1"><g transform="translate(101.136912, 356.623216)"><g><path d="M 13.5 -44.921875 L 13.5 0 L 3.265625 0 L 3.265625 -44.921875 Z M 13.5 -44.921875 "/></g></g></g><g fill="#032068" fill-opacity="1"><g transform="translate(117.907362, 356.623216)"><g><path d="M 19.828125 -45.734375 C 22.253906 -45.734375 24.628906 -45.378906 26.953125 -44.671875 C 29.273438 -43.960938 31 -43.265625 32.125 -42.578125 L 33.765625 -41.5 L 29.625 -33.328125 C 29.289062 -33.546875 28.832031 -33.828125 28.25 -34.171875 C 27.675781 -34.515625 26.585938 -34.972656 24.984375 -35.546875 C 23.390625 -36.128906 21.90625 -36.421875 20.53125 -36.421875 C 18.820312 -36.421875 17.503906 -36.054688 16.578125 -35.328125 C 15.648438 -34.609375 15.1875 -33.632812 15.1875 -32.40625 C 15.1875 -31.78125 15.40625 -31.203125 15.84375 -30.671875 C 16.28125 -30.148438 17.023438 -29.585938 18.078125 -28.984375 C 19.128906 -28.390625 20.050781 -27.910156 20.84375 -27.546875 C 21.644531 -27.191406 22.882812 -26.648438 24.5625 -25.921875 C 27.46875 -24.679688 29.941406 -23 31.984375 -20.875 C 34.035156 -18.757812 35.0625 -16.359375 35.0625 -13.671875 C 35.0625 -11.085938 34.597656 -8.832031 33.671875 -6.90625 C 32.753906 -4.988281 31.484375 -3.484375 29.859375 -2.390625 C 28.242188 -1.304688 26.457031 -0.503906 24.5 0.015625 C 22.539062 0.546875 20.421875 0.8125 18.140625 0.8125 C 16.171875 0.8125 14.242188 0.613281 12.359375 0.21875 C 10.472656 -0.175781 8.894531 -0.671875 7.625 -1.265625 C 6.351562 -1.867188 5.207031 -2.460938 4.1875 -3.046875 C 3.175781 -3.628906 2.429688 -4.117188 1.953125 -4.515625 L 1.25 -5.125 L 6.375 -13.71875 C 6.8125 -13.351562 7.410156 -12.890625 8.171875 -12.328125 C 8.929688 -11.765625 10.28125 -11.007812 12.21875 -10.0625 C 14.164062 -9.125 15.882812 -8.65625 17.375 -8.65625 C 21.6875 -8.65625 23.84375 -10.125 23.84375 -13.0625 C 23.84375 -13.6875 23.6875 -14.257812 23.375 -14.78125 C 23.070312 -15.3125 22.53125 -15.835938 21.75 -16.359375 C 20.96875 -16.890625 20.273438 -17.304688 19.671875 -17.609375 C 19.078125 -17.921875 18.097656 -18.394531 16.734375 -19.03125 C 15.378906 -19.664062 14.375 -20.144531 13.71875 -20.46875 C 11 -21.8125 8.894531 -23.488281 7.40625 -25.5 C 5.914062 -27.519531 5.171875 -29.691406 5.171875 -32.015625 C 5.171875 -36.046875 6.660156 -39.335938 9.640625 -41.890625 C 12.617188 -44.453125 16.015625 -45.734375 19.828125 -45.734375 Z M 19.828125 -45.734375 "/></g></g></g><g fill="#032068" fill-opacity="1"><g transform="translate(154.497454, 356.623216)"><g><path d="M 29.234375 -44.921875 L 29.234375 -35.9375 L 13.5 -35.9375 L 13.5 -27.015625 L 28.046875 -27.015625 L 28.046875 -18.03125 L 13.5 -18.03125 L 13.5 0 L 3.265625 0 L 3.265625 -44.921875 Z M 29.234375 -44.921875 "/></g></g></g><g fill="#032068" fill-opacity="1"><g transform="translate(185.370333, 356.623216)"><g><path d="M 26.078125 -44.921875 L 44.21875 0 L 33.21875 0 L 29.890625 -8.984375 L 12.796875 -8.984375 L 9.46875 0 L -1.53125 0 L 16.609375 -44.921875 Z M 26.40625 -17.96875 L 21.40625 -31.03125 L 21.296875 -31.03125 L 16.28125 -17.96875 Z M 26.40625 -17.96875 "/></g></g></g><g fill="#032068" fill-opacity="1"><g transform="translate(228.058769, 356.623216)"><g><path d="M 27.171875 -9.25 C 28.734375 -9.25 30.25 -9.484375 31.71875 -9.953125 C 33.1875 -10.429688 34.265625 -10.890625 34.953125 -11.328125 L 36 -12.03125 L 40.34375 -3.328125 C 40.195312 -3.210938 40 -3.0625 39.75 -2.875 C 39.5 -2.695312 38.910156 -2.363281 37.984375 -1.875 C 37.054688 -1.382812 36.066406 -0.957031 35.015625 -0.59375 C 33.960938 -0.226562 32.582031 0.09375 30.875 0.375 C 29.164062 0.664062 27.40625 0.8125 25.59375 0.8125 C 21.414062 0.8125 17.457031 -0.210938 13.71875 -2.265625 C 9.976562 -4.316406 6.960938 -7.140625 4.671875 -10.734375 C 2.390625 -14.328125 1.25 -18.207031 1.25 -22.375 C 1.25 -25.539062 1.921875 -28.570312 3.265625 -31.46875 C 4.609375 -34.375 6.394531 -36.859375 8.625 -38.921875 C 10.863281 -40.992188 13.46875 -42.644531 16.4375 -43.875 C 19.414062 -45.113281 22.46875 -45.734375 25.59375 -45.734375 C 28.5 -45.734375 31.175781 -45.390625 33.625 -44.703125 C 36.070312 -44.015625 37.804688 -43.328125 38.828125 -42.640625 L 40.34375 -41.609375 L 36 -32.890625 C 35.738281 -33.109375 35.351562 -33.367188 34.84375 -33.671875 C 34.34375 -33.984375 33.328125 -34.394531 31.796875 -34.90625 C 30.273438 -35.414062 28.734375 -35.671875 27.171875 -35.671875 C 24.703125 -35.671875 22.488281 -35.269531 20.53125 -34.46875 C 18.570312 -33.664062 17.019531 -32.609375 15.875 -31.296875 C 14.726562 -29.992188 13.851562 -28.585938 13.25 -27.078125 C 12.65625 -25.578125 12.359375 -24.046875 12.359375 -22.484375 C 12.359375 -19.078125 13.632812 -16.019531 16.1875 -13.3125 C 18.75 -10.601562 22.410156 -9.25 27.171875 -9.25 Z M 27.171875 -9.25 "/></g></g></g><g fill="#032068" fill-opacity="1"><g transform="translate(269.059272, 356.623216)"><g><path d="M 0.4375 -35.9375 L 0.4375 -44.921875 L 32.015625 -44.921875 L 32.015625 -35.9375 L 21.34375 -35.9375 L 21.34375 0 L 11.109375 0 L 11.109375 -35.9375 Z M 0.4375 -35.9375 "/></g></g></g><g fill="#032068" fill-opacity="1"><g transform="translate(301.511181, 356.623216)"><g><path d="M 37.796875 -44.921875 L 37.796875 -15.953125 C 37.796875 -10.429688 36.304688 -6.253906 33.328125 -3.421875 C 30.347656 -0.597656 25.988281 0.8125 20.25 0.8125 C 14.519531 0.8125 10.164062 -0.597656 7.1875 -3.421875 C 4.207031 -6.253906 2.71875 -10.429688 2.71875 -15.953125 L 2.71875 -44.921875 L 12.953125 -44.921875 L 12.953125 -18.953125 C 12.953125 -15.316406 13.523438 -12.789062 14.671875 -11.375 C 15.816406 -9.957031 17.675781 -9.25 20.25 -9.25 C 22.832031 -9.25 24.691406 -9.957031 25.828125 -11.375 C 26.972656 -12.789062 27.546875 -15.316406 27.546875 -18.953125 L 27.546875 -44.921875 Z M 37.796875 -44.921875 "/></g></g></g></svg>