<svg xmlns="http://www.w3.org/2000/svg" xmlns:xlink="http://www.w3.org/1999/xlink" width="500" zoomAndPan="magnify" viewBox="0 0 375 374.999991" height="500" preserveAspectRatio="xMidYMid meet" version="1.0"><defs><clipPath id="3cc251b687"><path d="M 310 11.25 L 365 11.25 L 365 332 L 310 332 Z M 310 11.25 " clip-rule="nonzero"/></clipPath><clipPath id="18cdeb511b"><path d="M 0 11.25 L 375 11.25 L 375 363.75 L 0 363.75 Z M 0 11.25 " clip-rule="nonzero"/></clipPath></defs><path fill="#5e9af4" d="M 244.074219 257.957031 L 244.074219 88.3125 L 297.625 88.3125 L 297.625 283.199219 C 280.03125 273.453125 261.84375 265.089844 244.074219 257.957031 Z M 244.074219 257.957031 " fill-opacity="1" fill-rule="nonzero"/><g clip-path="url(#3cc251b687)"><path fill="#5e9af4" d="M 310.488281 290.648438 L 310.488281 11.480469 L 364.035156 11.480469 L 364.035156 331.566406 C 348.246094 315.980469 329.910156 302.410156 310.488281 290.648438 Z M 310.488281 290.648438 " fill-opacity="1" fill-rule="nonzero"/></g><path fill="#5e9af4" d="M 177.667969 235.617188 L 177.667969 165.148438 L 231.214844 165.148438 L 231.214844 252.972656 C 212.128906 245.839844 193.84375 240.117188 177.667969 235.621094 Z M 177.667969 235.617188 " fill-opacity="1" fill-rule="nonzero"/><g clip-path="url(#18cdeb511b)"><path fill="#032068" d="M 37.207031 299.417969 L 76.921875 113.382812 L 123.035156 113.371094 L 71.347656 272.59375 C 71.347656 272.59375 278.191406 273.496094 375.019531 363.523438 C 301.855469 263.929688 113.828125 234.175781 113.828125 234.175781 L 172.847656 45.457031 C 172.847656 45.457031 244.078125 53.273438 297.628906 66.304688 C 240.792969 30.976562 156.109375 11.480469 156.109375 11.480469 L 130.636719 89.960938 C 81.773438 87.171875 50 88.316406 50 88.316406 L 0 342.105469 C 0 342.105469 221.6875 299.410156 343.679688 356.390625 C 241.628906 282.738281 37.207031 299.417969 37.207031 299.417969 Z M 37.207031 299.417969 " fill-opacity="1" fill-rule="nonzero"/></g></svg>