<svg xmlns="http://www.w3.org/2000/svg" xmlns:xlink="http://www.w3.org/1999/xlink" width="500" zoomAndPan="magnify" viewBox="0 0 375 374.999991" height="500" preserveAspectRatio="xMidYMid meet" version="1.0"><path fill="#e7e8ff" d="M 112.074219 320 L 264.828125 320 C 275.5625 320 286.117188 317.246094 295.492188 312 C 327.394531 294.152344 337.492188 252.914062 317.457031 222.28125 L 312.214844 214.265625 C 303.476562 200.90625 301.636719 184.160156 307.265625 169.214844 L 314.308594 150.515625 C 324.5 123.445312 302.074219 95.308594 273.492188 99.308594 C 264.875 100.515625 256.105469 98.722656 248.648438 94.226562 L 207.535156 69.433594 C 188.390625 57.886719 165.359375 54.730469 143.828125 60.695312 L 125.625 65.738281 C 90.578125 75.449219 70.789062 112.605469 82.230469 147.210938 L 85.917969 158.367188 C 92.691406 178.851562 85.058594 201.359375 67.230469 213.453125 C 47.054688 227.140625 40.28125 253.796875 51.460938 275.496094 L 57.097656 286.429688 C 67.71875 307.050781 88.929688 320 112.074219 320 Z M 112.074219 320 " fill-opacity="1" fill-rule="nonzero"/><path fill="#032068" d="M 317.15625 281.109375 C 317.390625 298.90625 305.316406 313.929688 299.1875 319.191406 L 289.792969 319.191406 C 296.777344 295.449219 308.324219 283.644531 314.792969 279.714844 C 315.871094 279.058594 317.140625 279.84375 317.15625 281.109375 Z M 317.15625 281.109375 " fill-opacity="1" fill-rule="nonzero"/><path fill="#ffffff" d="M 318.148438 222.726562 C 327.773438 259.113281 303.511719 302.203125 293.082031 318.246094 L 271.941406 318.246094 C 281.019531 249.59375 296.242188 232.910156 315.488281 221.636719 C 316.523438 221.03125 317.84375 221.566406 318.148438 222.726562 Z M 318.148438 222.726562 " fill-opacity="1" fill-rule="nonzero"/><path fill="#032068" d="M 315.964844 222.453125 C 316.472656 222.15625 317.097656 222.421875 317.242188 222.96875 C 321.984375 240.894531 318.390625 260.550781 312.253906 277.796875 C 306.226562 294.726562 297.789062 309.226562 292.570312 317.300781 L 273.015625 317.300781 C 277.53125 283.644531 283.539062 262.734375 290.734375 248.863281 C 297.984375 234.894531 306.453125 228.023438 315.964844 222.453125 Z M 319.058594 222.484375 C 318.585938 220.707031 316.578125 219.90625 315.015625 220.820312 C 305.28125 226.523438 296.515625 233.632812 289.070312 247.988281 C 281.648438 262.292969 275.554688 283.753906 271.007812 318.121094 L 270.867188 319.191406 L 293.589844 319.191406 L 293.867188 318.761719 C 299.105469 310.707031 307.820312 295.855469 314.023438 278.433594 C 320.214844 261.027344 323.941406 240.945312 319.058594 222.484375 Z M 319.058594 222.484375 " fill-opacity="1" fill-rule="evenodd"/><path fill="#032068" d="M 284.0625 245.113281 C 292.378906 275.601562 282.859375 307.289062 276.636719 319.191406 L 261.136719 319.191406 C 257.648438 282.03125 271.820312 255.007812 281.140625 244.382812 C 282.058594 243.335938 283.695312 243.765625 284.0625 245.113281 Z M 284.0625 245.113281 " fill-opacity="1" fill-rule="nonzero"/><path fill="#032068" d="M 304.988281 248.617188 L 310.046875 234.332031 L 311.816406 234.964844 L 300.234375 267.6875 L 307.84375 265.386719 L 308.382812 267.199219 L 299.453125 269.894531 L 288.917969 299.652344 L 298.398438 296.109375 L 299.054688 297.878906 L 288.09375 301.976562 L 282.222656 318.5625 L 280.449219 317.929688 L 292.378906 284.242188 L 287.96875 271.804688 L 289.738281 271.171875 L 293.375 281.425781 L 303.925781 251.625 L 300.636719 240.585938 L 302.4375 240.046875 Z M 304.988281 248.617188 " fill-opacity="1" fill-rule="evenodd"/><path fill="#ffffff" d="M 276.136719 269.460938 L 278.53125 256.207031 L 280.382812 256.542969 L 275.515625 283.445312 L 281.835938 280.097656 L 282.710938 281.769531 L 275.089844 285.808594 L 270.917969 308.878906 L 276.144531 304.75 L 277.304688 306.238281 L 270.410156 311.683594 L 269.105469 318.886719 L 267.257812 318.550781 L 270.601562 300.070312 L 265.085938 292.84375 L 266.578125 291.695312 L 271.054688 297.558594 L 275.714844 271.785156 L 271.25 266.933594 L 272.628906 265.652344 Z M 276.136719 269.460938 " fill-opacity="1" fill-rule="evenodd"/><path fill="#ffffff" d="M 292.515625 133.351562 L 295.324219 129.464844 C 295.824219 128.773438 296.917969 129.132812 296.914062 129.984375 L 296.890625 134.667969 C 296.890625 134.949219 297.027344 135.21875 297.253906 135.382812 L 301.410156 138.382812 C 302.078125 138.867188 301.769531 139.921875 300.945312 139.972656 L 295.777344 140.285156 C 295.527344 140.300781 295.292969 140.421875 295.136719 140.621094 L 291.632812 145.105469 C 291.113281 145.769531 290.046875 145.386719 290.0625 144.542969 L 290.183594 139.210938 C 290.1875 138.949219 290.078125 138.699219 289.882812 138.53125 L 285.519531 134.707031 C 284.875 134.144531 285.332031 133.085938 286.183594 133.171875 L 291.71875 133.710938 C 292.027344 133.742188 292.332031 133.605469 292.515625 133.351562 Z M 292.515625 133.351562 " fill-opacity="1" fill-rule="nonzero"/><path fill="#5e9af4" d="M 320.976562 185.226562 L 322.332031 184.484375 C 323.082031 184.074219 323.917969 184.863281 323.546875 185.632812 L 322.894531 186.988281 C 322.773438 187.242188 322.78125 187.542969 322.914062 187.792969 L 323.816406 189.4375 C 324.214844 190.164062 323.484375 190.984375 322.71875 190.675781 L 320.925781 189.949219 C 320.691406 189.855469 320.429688 189.867188 320.203125 189.980469 L 318.269531 190.945312 C 317.515625 191.324219 316.714844 190.519531 317.09375 189.765625 L 317.96875 188.027344 C 318.085938 187.796875 318.09375 187.523438 317.988281 187.285156 L 317.121094 185.273438 C 316.785156 184.492188 317.648438 183.734375 318.382812 184.175781 L 320.101562 185.210938 C 320.367188 185.371094 320.703125 185.378906 320.976562 185.226562 Z M 320.976562 185.226562 " fill-opacity="1" fill-rule="nonzero"/><path fill="#ffffff" d="M 72.804688 124.117188 C 72.804688 136.1875 82.589844 145.972656 94.660156 145.972656 C 98.828125 145.972656 102.722656 144.804688 106.039062 142.78125 L 112.617188 145.113281 C 113.671875 145.488281 114.726562 144.554688 114.484375 143.460938 L 112.882812 136.1875 C 115.175781 132.730469 116.515625 128.578125 116.515625 124.117188 C 116.515625 112.046875 106.730469 102.261719 94.660156 102.261719 C 82.589844 102.261719 72.804688 112.046875 72.804688 124.117188 Z M 72.804688 124.117188 " fill-opacity="1" fill-rule="nonzero"/><path fill="#032068" d="M 94.660156 102.738281 C 82.851562 102.738281 73.28125 112.308594 73.28125 124.117188 C 73.28125 135.925781 82.851562 145.496094 94.660156 145.496094 C 98.738281 145.496094 102.550781 144.355469 105.789062 142.375 L 105.984375 142.257812 L 112.777344 144.664062 C 113.480469 144.914062 114.183594 144.292969 114.023438 143.566406 L 112.375 136.09375 L 112.484375 135.925781 C 114.730469 132.542969 116.039062 128.484375 116.039062 124.117188 C 116.039062 112.308594 106.46875 102.738281 94.660156 102.738281 Z M 72.332031 124.117188 C 72.332031 111.785156 82.328125 101.789062 94.660156 101.789062 C 106.992188 101.789062 116.988281 111.785156 116.988281 124.117188 C 116.988281 128.605469 115.667969 132.78125 113.386719 136.28125 L 114.949219 143.359375 C 115.273438 144.816406 113.863281 146.058594 112.460938 145.5625 L 106.09375 143.304688 C 102.746094 145.300781 98.835938 146.445312 94.660156 146.445312 C 82.328125 146.445312 72.332031 136.449219 72.332031 124.117188 Z M 72.332031 124.117188 " fill-opacity="1" fill-rule="evenodd"/><path fill="#5e9af4" d="M 91.78125 130.25 C 91.515625 130.25 91.304688 130.039062 91.308594 129.777344 C 91.347656 128.167969 91.578125 126.871094 92.003906 125.882812 C 92.46875 124.796875 93.316406 123.730469 94.546875 122.6875 C 95.792969 121.628906 96.621094 120.773438 97.03125 120.117188 C 97.441406 119.453125 97.644531 118.753906 97.644531 118.023438 C 97.644531 115.816406 96.578125 114.710938 94.445312 114.710938 C 93.433594 114.710938 92.617188 115.011719 92.003906 115.613281 C 91.492188 116.109375 91.1875 116.773438 91.089844 117.601562 C 91.058594 117.855469 90.851562 118.0625 90.59375 118.0625 L 85.585938 118.0625 C 85.320312 118.0625 85.105469 117.84375 85.121094 117.582031 C 85.246094 115.3125 86.082031 113.523438 87.628906 112.203125 C 89.300781 110.792969 91.570312 110.085938 94.445312 110.085938 C 97.34375 110.085938 99.59375 110.757812 101.195312 112.105469 C 102.796875 113.4375 103.597656 115.324219 103.597656 117.769531 C 103.597656 118.878906 103.335938 119.929688 102.816406 120.921875 C 102.296875 121.902344 101.386719 122.992188 100.089844 124.195312 L 98.425781 125.703125 C 97.386719 126.65625 96.789062 127.773438 96.640625 129.054688 L 96.589844 129.808594 C 96.570312 130.058594 96.363281 130.25 96.113281 130.25 Z M 90.710938 136.265625 C 90.710938 135.390625 91.015625 134.671875 91.632812 134.113281 C 92.261719 133.535156 93.0625 133.25 94.035156 133.25 C 95.003906 133.25 95.800781 133.535156 96.414062 134.113281 C 97.042969 134.671875 97.359375 135.390625 97.359375 136.265625 C 97.359375 137.128906 97.050781 137.839844 96.433594 138.402344 C 95.832031 138.964844 95.03125 139.246094 94.035156 139.246094 C 93.035156 139.246094 92.226562 138.964844 91.613281 138.402344 C 91.011719 137.839844 90.710938 137.128906 90.710938 136.265625 Z M 90.710938 136.265625 " fill-opacity="1" fill-rule="nonzero"/><path fill="#ffffff" d="M 140.796875 93.375 C 140.796875 88.007812 145.144531 83.660156 150.511719 83.660156 L 261.015625 83.660156 C 266.378906 83.660156 270.726562 88.007812 270.726562 93.375 L 270.726562 309.445312 C 270.726562 314.8125 266.378906 319.160156 261.015625 319.160156 L 150.511719 319.160156 C 145.144531 319.160156 140.796875 314.8125 140.796875 309.445312 Z M 140.796875 93.375 " fill-opacity="1" fill-rule="nonzero"/><path fill="#032068" d="M 139.988281 93.375 C 139.988281 87.5625 144.699219 82.851562 150.511719 82.851562 L 261.015625 82.851562 C 266.824219 82.851562 271.535156 87.5625 271.535156 93.375 L 271.535156 309.445312 C 271.535156 315.257812 266.824219 319.96875 261.015625 319.96875 L 150.511719 319.96875 C 144.699219 319.96875 139.988281 315.257812 139.988281 309.445312 Z M 150.511719 84.46875 C 145.59375 84.46875 141.605469 88.457031 141.605469 93.375 L 141.605469 309.445312 C 141.605469 314.363281 145.59375 318.347656 150.511719 318.347656 L 261.015625 318.347656 C 265.929688 318.347656 269.917969 314.363281 269.917969 309.445312 L 269.917969 93.375 C 269.917969 88.457031 265.929688 84.46875 261.015625 84.46875 Z M 150.511719 84.46875 " fill-opacity="1" fill-rule="evenodd"/><path fill="#e7e8ff" d="M 246.023438 170.253906 C 246.023438 192.605469 227.902344 210.726562 205.550781 210.726562 C 183.199219 210.726562 165.082031 192.605469 165.082031 170.253906 C 165.082031 147.902344 183.199219 129.785156 205.550781 129.785156 C 227.902344 129.785156 246.023438 147.902344 246.023438 170.253906 Z M 246.023438 170.253906 " fill-opacity="1" fill-rule="nonzero"/><path fill="#ffffff" d="M 263.023438 142.734375 C 263.023438 153.015625 254.6875 161.351562 244.40625 161.351562 C 234.125 161.351562 225.789062 153.015625 225.789062 142.734375 C 225.789062 132.453125 234.125 124.117188 244.40625 124.117188 C 254.6875 124.117188 263.023438 132.453125 263.023438 142.734375 Z M 263.023438 142.734375 " fill-opacity="1" fill-rule="nonzero"/><path fill="#032068" d="M 244.40625 124.925781 C 234.570312 124.925781 226.597656 132.898438 226.597656 142.734375 C 226.597656 152.570312 234.570312 160.542969 244.40625 160.542969 C 254.238281 160.542969 262.210938 152.570312 262.210938 142.734375 C 262.210938 132.898438 254.238281 124.925781 244.40625 124.925781 Z M 224.976562 142.734375 C 224.976562 132.003906 233.675781 123.308594 244.40625 123.308594 C 255.132812 123.308594 263.832031 132.003906 263.832031 142.734375 C 263.832031 153.464844 255.132812 162.160156 244.40625 162.160156 C 233.675781 162.160156 224.976562 153.464844 224.976562 142.734375 Z M 224.976562 142.734375 " fill-opacity="1" fill-rule="evenodd"/><path fill="#5e9af4" d="M 239.34375 142.332031 L 233.882812 147.792969 L 239.347656 153.257812 L 244.808594 147.792969 L 250.273438 153.257812 L 255.734375 147.792969 L 250.273438 142.332031 L 255.738281 136.867188 L 250.273438 131.402344 L 244.808594 136.867188 L 239.34375 131.402344 L 233.882812 136.867188 Z M 239.34375 142.332031 " fill-opacity="1" fill-rule="evenodd"/><path fill="#032068" d="M 179.925781 91.554688 L 175.714844 83.660156 L 235.808594 83.660156 L 230.859375 91.910156 C 229.394531 94.347656 226.761719 95.839844 223.917969 95.839844 L 187.070312 95.839844 C 184.078125 95.839844 181.332031 94.195312 179.925781 91.554688 Z M 179.925781 91.554688 " fill-opacity="1" fill-rule="nonzero"/><path fill="#032068" d="M 269.132812 88.53125 L 141.5625 88.53125 C 145.785156 84.308594 149.816406 83.523438 151.304688 83.660156 L 259.390625 83.660156 C 264.585938 83.660156 268.050781 86.90625 269.132812 88.53125 Z M 269.132812 88.53125 " fill-opacity="1" fill-rule="nonzero"/><path fill="#032068" d="M 269.035156 314.542969 L 142.414062 314.542969 C 146.804688 318.832031 149.339844 319.628906 150.886719 319.492188 L 260.5625 319.492188 C 265.964844 319.492188 267.910156 316.191406 269.035156 314.542969 Z M 269.035156 314.542969 " fill-opacity="1" fill-rule="nonzero"/><path fill="#5e9af4" d="M 159.414062 114.40625 C 159.414062 113.511719 160.140625 112.785156 161.03125 112.785156 L 204.140625 112.785156 C 205.035156 112.785156 205.757812 113.511719 205.757812 114.40625 L 205.757812 116.132812 C 205.757812 117.027344 205.035156 117.75 204.140625 117.75 L 161.03125 117.75 C 160.140625 117.75 159.414062 117.027344 159.414062 116.132812 Z M 159.414062 114.40625 " fill-opacity="1" fill-rule="nonzero"/><path fill="#032068" d="M 159.414062 223.675781 C 159.414062 222.785156 160.140625 222.058594 161.03125 222.058594 L 204.140625 222.058594 C 205.035156 222.058594 205.757812 222.785156 205.757812 223.675781 L 205.757812 225.40625 C 205.757812 226.300781 205.035156 227.023438 204.140625 227.023438 L 161.03125 227.023438 C 160.140625 227.023438 159.414062 226.300781 159.414062 225.40625 Z M 159.414062 223.675781 " fill-opacity="1" fill-rule="nonzero"/><path fill="#032068" d="M 159.414062 266.578125 C 159.414062 265.683594 160.140625 264.957031 161.03125 264.957031 L 186.933594 264.957031 C 187.828125 264.957031 188.554688 265.683594 188.554688 266.578125 L 188.554688 268.195312 C 188.554688 269.089844 187.828125 269.816406 186.933594 269.816406 L 161.03125 269.816406 C 160.140625 269.816406 159.414062 269.089844 159.414062 268.195312 Z M 159.414062 266.578125 " fill-opacity="1" fill-rule="nonzero"/><path fill="#e7e8ff" d="M 158.605469 235.820312 C 158.605469 234.476562 159.691406 233.390625 161.03125 233.390625 L 247.640625 233.390625 C 248.984375 233.390625 250.070312 234.476562 250.070312 235.820312 L 250.070312 252.007812 C 250.070312 253.347656 248.984375 254.4375 247.640625 254.4375 L 161.03125 254.4375 C 159.691406 254.4375 158.605469 253.347656 158.605469 252.007812 Z M 161.03125 235.007812 C 160.585938 235.007812 160.222656 235.371094 160.222656 235.820312 L 160.222656 252.007812 C 160.222656 252.453125 160.585938 252.816406 161.03125 252.816406 L 247.640625 252.816406 C 248.089844 252.816406 248.453125 252.453125 248.453125 252.007812 L 248.453125 235.820312 C 248.453125 235.371094 248.089844 235.007812 247.640625 235.007812 Z M 161.03125 235.007812 " fill-opacity="1" fill-rule="evenodd"/><path fill="#e7e8ff" d="M 158.605469 277.910156 C 158.605469 276.570312 159.691406 275.480469 161.03125 275.480469 L 247.640625 275.480469 C 248.984375 275.480469 250.070312 276.570312 250.070312 277.910156 L 250.070312 294.097656 C 250.070312 295.441406 248.984375 296.527344 247.640625 296.527344 L 161.03125 296.527344 C 159.691406 296.527344 158.605469 295.441406 158.605469 294.097656 Z M 161.03125 277.101562 C 160.585938 277.101562 160.222656 277.460938 160.222656 277.910156 L 160.222656 294.097656 C 160.222656 294.546875 160.585938 294.90625 161.03125 294.90625 L 247.640625 294.90625 C 248.089844 294.90625 248.453125 294.546875 248.453125 294.097656 L 248.453125 277.910156 C 248.453125 277.460938 248.089844 277.101562 247.640625 277.101562 Z M 161.03125 277.101562 " fill-opacity="1" fill-rule="evenodd"/><path fill="#032068" d="M 259.988281 95.230469 L 261.605469 95.230469 L 261.605469 101.851562 L 259.988281 101.851562 Z M 259.988281 95.230469 " fill-opacity="1" fill-rule="evenodd"/><path fill="#032068" d="M 255.847656 96.058594 L 257.46875 96.058594 L 257.46875 101.851562 L 255.847656 101.851562 Z M 255.847656 96.058594 " fill-opacity="1" fill-rule="evenodd"/><path fill="#032068" d="M 251.710938 97.714844 L 253.332031 97.714844 L 253.332031 101.851562 L 251.710938 101.851562 Z M 251.710938 97.714844 " fill-opacity="1" fill-rule="evenodd"/><path fill="#032068" d="M 247.574219 99.371094 L 249.191406 99.371094 L 249.191406 101.851562 L 247.574219 101.851562 Z M 247.574219 99.371094 " fill-opacity="1" fill-rule="evenodd"/><path fill="#032068" d="M 205.535156 146.507812 C 198.167969 146.507812 192.195312 152.578125 192.195312 160.066406 L 192.195312 169.351562 C 192.195312 170.453125 193.089844 171.34375 194.191406 171.34375 C 195.292969 171.34375 196.183594 170.453125 196.183594 169.351562 L 196.183594 159.816406 C 196.183594 154.566406 200.371094 150.3125 205.535156 150.3125 C 210.695312 150.3125 214.882812 154.566406 214.882812 159.816406 L 214.882812 168.855469 C 214.882812 169.957031 215.773438 170.847656 216.878906 170.847656 C 217.980469 170.847656 218.871094 169.957031 218.871094 168.855469 L 218.871094 160.066406 C 218.871094 152.578125 212.898438 146.507812 205.535156 146.507812 Z M 205.535156 146.507812 " fill-opacity="1" fill-rule="evenodd"/><path fill="#5e9af4" d="M 188.515625 169.175781 C 188.515625 167.832031 189.601562 166.746094 190.945312 166.746094 L 220.121094 166.746094 C 221.464844 166.746094 222.550781 167.832031 222.550781 169.175781 L 222.550781 190.992188 C 222.550781 192.335938 221.464844 193.421875 220.121094 193.421875 L 190.945312 193.421875 C 189.601562 193.421875 188.515625 192.335938 188.515625 190.992188 Z M 188.515625 169.175781 " fill-opacity="1" fill-rule="nonzero"/><path fill="#ffffff" d="M 207.703125 181.1875 C 208.492188 180.554688 209 179.582031 209 178.488281 C 209 176.574219 207.449219 175.027344 205.535156 175.027344 C 203.621094 175.027344 202.070312 176.574219 202.070312 178.488281 C 202.070312 179.675781 202.671875 180.726562 203.582031 181.351562 L 202.808594 184.597656 C 202.695312 185.078125 203.0625 185.542969 203.558594 185.542969 L 207.769531 185.542969 C 208.265625 185.542969 208.632812 185.078125 208.515625 184.597656 Z M 207.703125 181.1875 " fill-opacity="1" fill-rule="evenodd"/><path fill="#032068" d="M 256.273438 241.484375 L 236.582031 241.484375 C 235.359375 241.484375 234.578125 240.183594 235.15625 239.101562 L 245 220.683594 C 245.609375 219.542969 247.246094 219.542969 247.855469 220.683594 L 257.703125 239.101562 C 258.277344 240.183594 257.496094 241.484375 256.273438 241.484375 Z M 256.273438 241.484375 " fill-opacity="1" fill-rule="nonzero"/><path fill="#ffffff" d="M 245.527344 234.566406 L 247.296875 234.566406 L 247.578125 226.914062 L 245.246094 226.914062 Z M 247.640625 236.949219 C 247.640625 236.570312 247.527344 236.257812 247.296875 236.019531 C 247.066406 235.773438 246.773438 235.648438 246.429688 235.648438 C 246.082031 235.648438 245.792969 235.773438 245.566406 236.019531 C 245.332031 236.257812 245.214844 236.570312 245.214844 236.949219 C 245.214844 237.328125 245.332031 237.640625 245.566406 237.886719 C 245.792969 238.125 246.082031 238.246094 246.429688 238.246094 C 246.773438 238.246094 247.066406 238.125 247.296875 237.886719 C 247.527344 237.640625 247.640625 237.328125 247.640625 236.949219 Z M 247.640625 236.949219 " fill-opacity="1" fill-rule="nonzero"/><path fill="#5e9af4" d="M 171.628906 243.546875 C 171.628906 244.683594 170.707031 245.605469 169.570312 245.605469 C 168.429688 245.605469 167.507812 244.683594 167.507812 243.546875 C 167.507812 242.40625 168.429688 241.484375 169.570312 241.484375 C 170.707031 241.484375 171.628906 242.40625 171.628906 243.546875 Z M 171.628906 243.546875 " fill-opacity="1" fill-rule="nonzero"/><path fill="#5e9af4" d="M 181.523438 243.546875 C 181.523438 244.683594 180.601562 245.605469 179.460938 245.605469 C 178.324219 245.605469 177.402344 244.683594 177.402344 243.546875 C 177.402344 242.40625 178.324219 241.484375 179.460938 241.484375 C 180.601562 241.484375 181.523438 242.40625 181.523438 243.546875 Z M 181.523438 243.546875 " fill-opacity="1" fill-rule="nonzero"/><path fill="#5e9af4" d="M 191.417969 243.546875 C 191.417969 244.683594 190.496094 245.605469 189.355469 245.605469 C 188.21875 245.605469 187.296875 244.683594 187.296875 243.546875 C 187.296875 242.40625 188.21875 241.484375 189.355469 241.484375 C 190.496094 241.484375 191.417969 242.40625 191.417969 243.546875 Z M 191.417969 243.546875 " fill-opacity="1" fill-rule="nonzero"/><path fill="#5e9af4" d="M 201.3125 243.546875 C 201.3125 244.683594 200.386719 245.605469 199.25 245.605469 C 198.113281 245.605469 197.1875 244.683594 197.1875 243.546875 C 197.1875 242.40625 198.113281 241.484375 199.25 241.484375 C 200.386719 241.484375 201.3125 242.40625 201.3125 243.546875 Z M 201.3125 243.546875 " fill-opacity="1" fill-rule="nonzero"/><path fill="#5e9af4" d="M 211.203125 243.546875 C 211.203125 244.683594 210.28125 245.605469 209.144531 245.605469 C 208.003906 245.605469 207.082031 244.683594 207.082031 243.546875 C 207.082031 242.40625 208.003906 241.484375 209.144531 241.484375 C 210.28125 241.484375 211.203125 242.40625 211.203125 243.546875 Z M 211.203125 243.546875 " fill-opacity="1" fill-rule="nonzero"/><path fill="#5e9af4" d="M 221.097656 243.546875 C 221.097656 244.683594 220.175781 245.605469 219.039062 245.605469 C 217.898438 245.605469 216.976562 244.683594 216.976562 243.546875 C 216.976562 242.40625 217.898438 241.484375 219.039062 241.484375 C 220.175781 241.484375 221.097656 242.40625 221.097656 243.546875 Z M 221.097656 243.546875 " fill-opacity="1" fill-rule="nonzero"/><path fill="#efcb96" d="M 111.304688 164.84375 C 99.828125 172.964844 104.652344 187.402344 106.816406 193 L 105.867188 204.414062 C 106.847656 208.007812 110.40625 215.195312 116.796875 215.195312 C 123.183594 215.195312 126.109375 209.0625 126.777344 205.992188 L 125.777344 197.328125 C 133.265625 194.625 133.761719 183.792969 133.265625 175.132812 C 132.671875 164.84375 121.417969 157.691406 111.304688 164.84375 Z M 111.304688 164.84375 " fill-opacity="1" fill-rule="nonzero"/><path fill="#032068" d="M 107.175781 190.167969 L 106.183594 199.984375 C 105.851562 199.257812 105.089844 197.148438 104.691406 194.53125 C 104.191406 191.257812 96.238281 178.714844 98.722656 169.441406 C 100.710938 162.027344 106.183594 162.355469 108.667969 163.445312 C 110.160156 160.71875 119.109375 151.445312 132.035156 152.535156 C 144.960938 153.628906 146.453125 172.171875 136.011719 174.898438 C 127.660156 177.078125 118.28125 175.804688 114.632812 174.898438 C 114.300781 175.625 113.339844 178.058594 112.148438 181.988281 C 110.65625 186.894531 110.65625 187.988281 110.160156 184.714844 C 109.660156 181.441406 107.671875 175.441406 105.1875 181.441406 C 103.199219 186.242188 105.683594 189.257812 107.175781 190.167969 Z M 107.175781 190.167969 " fill-opacity="1" fill-rule="nonzero"/><path fill="#032068" d="M 114.394531 197.132812 C 117.816406 199.148438 123.109375 197.972656 125.324219 197.132812 L 125.800781 200.660156 C 120.859375 201.867188 116.140625 198.8125 114.394531 197.132812 Z M 114.394531 197.132812 " fill-opacity="1" fill-rule="nonzero"/><path fill="#5e9af4" d="M 116.359375 209.140625 C 123.515625 209.140625 126.984375 205.15625 128.023438 202.777344 C 128.144531 202.496094 128.410156 202.300781 128.714844 202.316406 C 132.664062 202.515625 138.265625 204.914062 139.671875 205.394531 C 139.710938 205.410156 139.742188 205.421875 139.777344 205.441406 C 150.820312 211.375 161.292969 221.878906 167.855469 259.753906 C 169.984375 275.5625 173.78125 308.542969 171.957031 314.015625 C 170.136719 319.488281 157.527344 320.246094 151.449219 319.945312 L 71.695312 319.945312 C 69.585938 319.945312 70.238281 316.617188 71.128906 314.089844 C 71.328125 313.519531 70.785156 312.890625 70.183594 312.972656 C 66.550781 313.476562 59.617188 312.816406 52.097656 307.175781 C 37.515625 295.320312 54.378906 247.898438 65.316406 225.558594 C 73.910156 208.003906 94.34375 202.792969 103.992188 202.324219 C 104.304688 202.308594 104.574219 202.507812 104.699219 202.792969 C 105.75 205.175781 109.214844 209.140625 116.359375 209.140625 Z M 116.359375 209.140625 " fill-opacity="1" fill-rule="nonzero"/><path fill="#032068" d="M 68.515625 312.125 C 63.503906 301.46875 52.890625 290.9375 47.214844 286.148438 C 46.777344 285.78125 46.125 286.066406 46.109375 286.636719 C 45.972656 291.539062 46.632812 300.503906 50.277344 305.808594 C 53.996094 311.222656 62.972656 312.867188 67.886719 313.078125 C 68.394531 313.101562 68.734375 312.582031 68.515625 312.125 Z M 68.515625 312.125 " fill-opacity="1" fill-rule="nonzero"/><path fill="#032068" d="M 114.992188 284.832031 C 94.210938 305.988281 76.859375 312.800781 70.785156 313.558594 L 69.871094 317.664062 C 87.738281 314.746094 107.394531 294.5625 114.992188 284.832031 Z M 114.992188 284.832031 " fill-opacity="1" fill-rule="nonzero"/><path fill="#ffffff" d="M 120.003906 278.023438 L 120.003906 247.128906 C 120.003906 246.785156 120.25 246.492188 120.589844 246.433594 L 135.578125 243.933594 C 136.011719 243.863281 136.402344 244.199219 136.398438 244.640625 L 135.960938 274.707031 C 135.957031 275.03125 135.730469 275.308594 135.414062 275.382812 L 120.863281 278.707031 C 120.421875 278.808594 120.003906 278.476562 120.003906 278.023438 Z M 120.003906 278.023438 " fill-opacity="1" fill-rule="nonzero"/><path fill="#032068" d="M 135.460938 243.238281 C 136.328125 243.097656 137.113281 243.769531 137.101562 244.648438 L 136.664062 274.714844 C 136.65625 275.363281 136.203125 275.921875 135.570312 276.066406 L 121.019531 279.394531 C 120.140625 279.597656 119.300781 278.925781 119.300781 278.023438 L 119.300781 247.128906 C 119.300781 246.441406 119.796875 245.851562 120.476562 245.738281 Z M 135.695312 244.628906 L 120.707031 247.128906 L 120.707031 278.023438 L 135.257812 274.695312 Z M 135.695312 244.628906 " fill-opacity="1" fill-rule="evenodd"/><path fill="#032068" d="M 80.808594 268.875 C 80.082031 270.332031 72.300781 274.042969 68.503906 275.714844 C 72.515625 274.621094 96 266.441406 107.242188 262.492188 C 104.050781 262.492188 85.367188 267.960938 84.910156 267.050781 C 84.546875 266.320312 85.972656 257.019531 86.734375 252.460938 C 85.0625 257.324219 81.539062 267.414062 80.808594 268.875 Z M 80.808594 268.875 " fill-opacity="1" fill-rule="nonzero"/><path fill="#efcb96" d="M 114.078125 260.667969 C 112.253906 263.585938 110.28125 264.921875 109.519531 265.226562 L 112.710938 275.714844 C 116.8125 273.433594 123.648438 273.890625 128.664062 271.15625 C 133.675781 268.417969 132.765625 255.195312 130.03125 256.105469 C 127.84375 256.835938 122.433594 259.148438 120.003906 260.210938 L 120.003906 253.828125 C 116.8125 255.195312 116.359375 257.019531 114.078125 260.667969 Z M 114.078125 260.667969 " fill-opacity="1" fill-rule="nonzero"/><path fill="#5e9af4" d="M 142.886719 203.832031 C 139.332031 203.832031 130.640625 212.132812 130.640625 216.085938 C 129.847656 219.25 150.789062 264.308594 166.195312 272.609375 C 181.601562 280.910156 194.246094 270.632812 193.0625 254.824219 C 191.816406 238.222656 147.011719 203.832031 142.886719 203.832031 Z M 142.886719 203.832031 " fill-opacity="1" fill-rule="nonzero"/><path fill="#032068" d="M 193.058594 253.636719 C 178.519531 257.117188 172.253906 269.054688 170.9375 274.585938 C 174.359375 275.507812 180.8125 278.539062 188.320312 271.03125 C 193.703125 265.644531 193.851562 257.328125 193.058594 253.636719 Z M 193.058594 253.636719 " fill-opacity="1" fill-rule="nonzero"/><path fill="#032068" d="M 148.8125 253.242188 C 158.292969 269.054688 166.722656 273.796875 169.75 274.191406 L 170.539062 279.332031 C 168.171875 278.933594 162.480469 275.378906 153.949219 264.308594 C 141.9375 249.132812 133.007812 225.835938 130.636719 216.085938 C 132.613281 222.804688 136.960938 233.476562 148.8125 253.242188 Z M 148.8125 253.242188 " fill-opacity="1" fill-rule="nonzero"/><path fill="#efcb96" d="M 131.429688 192.039062 C 131.984375 192.882812 137.140625 201.304688 139.332031 205.40625 C 137.253906 207.515625 132.898438 211.738281 132.066406 211.738281 C 131.027344 211.738281 125.148438 209.980469 122.726562 206.8125 C 120.304688 203.648438 124.109375 199.777344 124.109375 199.425781 C 124.109375 199.074219 117.882812 196.261719 116.847656 194.855469 C 115.808594 193.445312 117.207031 191.976562 118.785156 192.371094 C 119.6875 192.371094 125.503906 195.53125 127.480469 196.324219 C 128.308594 196.042969 129.453125 195.136719 131.429688 192.039062 Z M 131.429688 192.039062 " fill-opacity="1" fill-rule="nonzero"/><path fill="#032068" d="M 116.417969 194.347656 C 116.734375 196.558594 119.707031 198.429688 121.15625 199.089844 L 122.34375 198.300781 C 121.816406 198.035156 120.367188 197.269531 118.785156 196.324219 C 117.207031 195.375 116.546875 194.609375 116.417969 194.347656 Z M 116.417969 194.347656 " fill-opacity="1" fill-rule="nonzero"/><path fill="#032068" d="M 121.949219 208.179688 C 119.101562 205.335938 120.5 201.988281 121.550781 200.671875 L 123.527344 200.277344 C 121.15625 204.226562 122.605469 206.863281 123.527344 207.390625 Z M 121.949219 208.179688 " fill-opacity="1" fill-rule="nonzero"/></svg>