<svg xmlns="http://www.w3.org/2000/svg" xmlns:xlink="http://www.w3.org/1999/xlink" width="500" zoomAndPan="magnify" viewBox="0 0 375 374.999991" height="500" preserveAspectRatio="xMidYMid meet" version="1.0"><path fill="#e7e8ff" d="M 247.351562 303.109375 L 132.957031 303.109375 C 109.515625 303.109375 87.585938 291.519531 74.371094 272.140625 L 54.457031 242.941406 C 44.703125 228.640625 47.644531 209.230469 61.199219 198.472656 C 73.042969 189.066406 76.980469 172.804688 70.753906 159.011719 L 66.613281 149.84375 C 58.296875 131.4375 62.980469 109.757812 78.148438 96.429688 L 85.773438 89.726562 C 106.90625 71.160156 138.132812 69.90625 160.679688 86.722656 L 182.679688 103.125 C 196.054688 113.101562 213.15625 116.644531 229.386719 112.804688 C 253.769531 107.03125 279.035156 118.042969 291.425781 139.835938 L 308.242188 169.410156 C 315.4375 182.0625 311.90625 198.113281 300.066406 206.570312 L 288.371094 214.925781 C 276.535156 223.378906 277.753906 241.351562 290.625 248.128906 C 304.003906 255.171875 304.65625 274.105469 291.792969 282.050781 L 266.511719 297.667969 C 260.753906 301.226562 254.121094 303.109375 247.351562 303.109375 Z M 247.351562 303.109375 " fill-opacity="1" fill-rule="nonzero"/><path fill="#5e9af4" d="M 135.894531 94.71875 L 136.117188 91.335938 C 136.15625 90.734375 135.402344 90.4375 135.023438 90.90625 L 132.933594 93.472656 C 132.808594 93.628906 132.613281 93.714844 132.414062 93.703125 L 128.820312 93.480469 C 128.238281 93.445312 127.933594 94.160156 128.355469 94.554688 L 131.019531 97.042969 C 131.148438 97.164062 131.21875 97.335938 131.214844 97.511719 L 131.101562 101.53125 C 131.085938 102.128906 131.835938 102.398438 132.203125 101.929688 L 134.53125 98.960938 C 134.644531 98.816406 134.816406 98.730469 135 98.722656 L 139.082031 98.589844 C 139.679688 98.570312 139.90625 97.789062 139.410156 97.453125 L 136.167969 95.269531 C 135.984375 95.148438 135.882812 94.9375 135.894531 94.71875 Z M 135.894531 94.71875 " fill-opacity="1" fill-rule="nonzero"/><path fill="#5e9af4" d="M 97.203125 110.304688 L 96.800781 109.289062 C 96.578125 108.730469 95.769531 108.789062 95.625 109.375 L 95.371094 110.40625 C 95.324219 110.601562 95.1875 110.761719 95 110.835938 L 93.773438 111.332031 C 93.234375 111.550781 93.261719 112.328125 93.816406 112.5 L 95.109375 112.90625 C 95.28125 112.960938 95.417969 113.085938 95.488281 113.246094 L 96.105469 114.640625 C 96.34375 115.1875 97.136719 115.105469 97.269531 114.523438 L 97.578125 113.183594 C 97.617188 113.003906 97.734375 112.851562 97.898438 112.769531 L 99.269531 112.058594 C 99.804688 111.78125 99.675781 110.980469 99.082031 110.890625 L 97.683594 110.6875 C 97.46875 110.65625 97.285156 110.511719 97.203125 110.304688 Z M 97.203125 110.304688 " fill-opacity="1" fill-rule="nonzero"/><path fill="#ffffff" d="M 249.046875 93.652344 L 188.894531 93.652344 C 187.542969 93.652344 186.449219 94.746094 186.449219 96.097656 L 186.449219 127.511719 C 186.449219 128.863281 187.542969 129.957031 188.894531 129.957031 L 234.484375 129.957031 C 234.972656 129.957031 235.449219 130.101562 235.851562 130.375 L 247.679688 138.351562 C 249.304688 139.449219 251.492188 138.285156 251.492188 136.324219 L 251.492188 96.097656 C 251.492188 94.746094 250.398438 93.652344 249.046875 93.652344 Z M 249.046875 93.652344 " fill-opacity="1" fill-rule="nonzero"/><path fill="#032068" d="M 185.632812 96.097656 C 185.632812 94.296875 187.09375 92.835938 188.894531 92.835938 L 249.046875 92.835938 C 250.847656 92.835938 252.308594 94.296875 252.308594 96.097656 L 252.308594 136.324219 C 252.308594 138.9375 249.390625 140.488281 247.226562 139.027344 L 235.398438 131.050781 C 235.128906 130.867188 234.808594 130.769531 234.484375 130.769531 L 188.894531 130.769531 C 187.09375 130.769531 185.632812 129.3125 185.632812 127.511719 Z M 188.894531 94.46875 C 187.996094 94.46875 187.265625 95.195312 187.265625 96.097656 L 187.265625 127.511719 C 187.265625 128.410156 187.996094 129.140625 188.894531 129.140625 L 234.484375 129.140625 C 235.132812 129.140625 235.769531 129.335938 236.308594 129.699219 L 248.136719 137.675781 C 249.21875 138.40625 250.679688 137.632812 250.679688 136.324219 L 250.679688 96.097656 C 250.679688 95.195312 249.949219 94.46875 249.046875 94.46875 Z M 188.894531 94.46875 " fill-opacity="1" fill-rule="evenodd"/><path fill="#5e9af4" d="M 198.519531 107.101562 L 238.863281 107.101562 L 238.863281 105.46875 L 198.519531 105.46875 Z M 198.519531 118.511719 L 238.863281 118.511719 L 238.863281 116.878906 L 198.519531 116.878906 Z M 198.519531 118.511719 " fill-opacity="1" fill-rule="evenodd"/><path fill="#5e9af4" d="M 275.996094 100.742188 L 277.015625 104.363281 C 277.078125 104.582031 277.011719 104.816406 276.84375 104.96875 L 274.71875 106.90625 C 274.261719 107.324219 274.667969 108.082031 275.277344 107.953125 L 278.164062 107.34375 C 278.375 107.296875 278.597656 107.367188 278.746094 107.527344 L 280.980469 109.894531 C 281.398438 110.339844 282.132812 109.980469 282.023438 109.382812 L 281.417969 106.082031 C 281.382812 105.886719 281.441406 105.691406 281.582031 105.550781 L 283.457031 103.65625 C 283.878906 103.230469 283.476562 102.507812 282.882812 102.628906 L 280.304688 103.152344 C 280.101562 103.195312 279.882812 103.128906 279.734375 102.976562 L 277.023438 100.171875 C 276.578125 99.710938 275.824219 100.132812 275.996094 100.742188 Z M 275.996094 100.742188 " fill-opacity="1" fill-rule="nonzero"/><path fill="#efcb96" d="M 283.324219 181.65625 L 285.476562 195.394531 C 285.191406 196.824219 283.0625 199.6875 276.859375 199.6875 C 270.652344 199.6875 269.101562 194.535156 269.101562 191.960938 L 269.101562 185.089844 C 267.519531 185.664062 264.015625 185.003906 262.636719 177.792969 C 260.914062 168.777344 263.066406 163.625 266.945312 160.621094 C 270.824219 157.617188 279.011719 157.617188 283.324219 164.914062 C 286.769531 170.753906 284.757812 178.507812 283.324219 181.65625 Z M 283.324219 181.65625 " fill-opacity="1" fill-rule="nonzero"/><path fill="#efcb96" d="M 194.976562 203.980469 C 196.011719 206.382812 196.84375 211.5625 197.132812 213.855469 L 188.941406 219.433594 L 182.476562 215.140625 L 191.097656 208.703125 L 189.804688 206.125 C 187.21875 202.691406 188.511719 199.6875 188.941406 198.828125 C 189.375 197.96875 193.683594 200.976562 194.976562 203.980469 Z M 194.976562 203.980469 " fill-opacity="1" fill-rule="nonzero"/><path fill="#5e9af4" d="M 330.203125 302.351562 C 324.34375 303.722656 294.722656 302.921875 280.644531 302.351562 L 237.546875 302.351562 C 228.066406 302.351562 228.066406 292.90625 228.066406 285.609375 L 229.773438 269.003906 C 229.839844 268.371094 229.058594 267.996094 228.574219 268.410156 C 217.839844 277.617188 212.050781 269.464844 206.261719 263.285156 C 200.230469 256.84375 185.574219 225.9375 185.574219 222.929688 C 185.574219 219.925781 198.9375 209.621094 200.660156 210.480469 C 202.382812 211.339844 206.691406 216.492188 212.296875 222.929688 C 217.875 229.34375 219.609375 228.519531 223.03125 224.691406 C 223.054688 224.664062 223.078125 224.632812 223.097656 224.601562 C 224.660156 222.121094 230.019531 214.707031 239.269531 204.46875 C 248.269531 194.511719 260.945312 189.902344 266.710938 188.699219 C 267.039062 188.628906 267.363281 188.820312 267.496094 189.128906 C 268.5625 191.570312 271.445312 195.027344 278.488281 195.027344 C 285.582031 195.027344 289.207031 191.523438 290.707031 189.078125 C 290.878906 188.796875 291.222656 188.660156 291.535156 188.761719 C 318.660156 197.460938 325.496094 218.8125 330.203125 244.824219 C 334.945312 271.011719 337.53125 300.632812 330.203125 302.351562 Z M 330.203125 302.351562 " fill-opacity="1" fill-rule="nonzero"/><path fill="#032068" d="M 237.640625 224.15625 C 235.917969 231.710938 231.75 257.355469 229.882812 269.234375 C 228.851562 269.234375 225.429688 270.949219 223.851562 271.808594 C 226.265625 269.0625 234.050781 238.894531 237.640625 224.15625 Z M 237.640625 224.15625 " fill-opacity="1" fill-rule="nonzero"/><path fill="#032068" d="M 292.804688 287.265625 C 301.082031 284.171875 308.320312 268.230469 310.90625 260.648438 C 310.476562 272.667969 300.132812 291.988281 292.804688 291.988281 C 272.464844 294.046875 243.964844 271.808594 233.332031 264.511719 C 248.417969 273.097656 282.460938 291.128906 292.804688 287.265625 Z M 292.804688 287.265625 " fill-opacity="1" fill-rule="nonzero"/><path fill="#032068" d="M 274.703125 253.347656 C 277.808594 251.976562 282.03125 238.753906 283.753906 232.3125 C 281.023438 238.039062 275.132812 249.742188 273.410156 250.773438 C 271.6875 251.804688 254.019531 245.191406 242.8125 243.046875 C 251 247.769531 271.601562 254.722656 274.703125 253.347656 Z M 274.703125 253.347656 " fill-opacity="1" fill-rule="nonzero"/><path fill="#032068" d="M 275.136719 284.257812 C 285.824219 278.078125 297.113281 279.109375 301.425781 280.394531 C 301.425781 281.96875 299.699219 285.632812 292.804688 287.695312 C 285.910156 289.753906 278.152344 286.261719 275.136719 284.257812 Z M 275.136719 284.257812 " fill-opacity="1" fill-rule="nonzero"/><path fill="#032068" d="M 229.023438 268.375 C 222.472656 264.253906 211.066406 263.511719 206.179688 263.652344 C 207.761719 265.941406 212.214844 270.949219 217.386719 272.667969 C 222.558594 274.386719 227.296875 270.523438 229.023438 268.375 Z M 229.023438 268.375 " fill-opacity="1" fill-rule="nonzero"/><path fill="#032068" d="M 281.601562 177.792969 L 285.363281 194.65625 C 288.464844 193.625 290.738281 190.632812 291.457031 189.34375 C 298.695312 191.40625 301.570312 193.105469 304.441406 195.394531 C 305.445312 191.816406 306.597656 186.378906 303.578125 183.375 C 298.335938 178.152344 297.113281 178.652344 296.683594 175.644531 C 296.253906 172.640625 297.546875 164.054688 292.804688 162.765625 C 288.066406 161.480469 283.753906 158.902344 282.894531 156.328125 C 282.03125 153.75 279.015625 149.886719 272.550781 149.886719 C 267.378906 149.886719 265.222656 153.324219 264.363281 155.46875 C 262.351562 155.324219 258.5 156.929688 255.742188 161.050781 C 252.292969 166.203125 257.898438 171.351562 252.726562 179.9375 C 248.589844 186.808594 251.578125 191.9375 252.726562 194.65625 C 259.191406 191.652344 264.066406 189.917969 267.082031 189.34375 L 269.367188 192.378906 L 269.367188 185.171875 C 265.917969 185.171875 263.070312 182.085938 262.207031 173.929688 C 261.515625 167.402344 264.265625 163.316406 265.558594 162.027344 C 266.421875 161.3125 268.5 160.878906 271.257812 165.34375 C 274.015625 169.808594 276.714844 171.78125 277.722656 172.210938 C 279.015625 170.066406 281.601562 167.488281 282.894531 172.210938 C 283.925781 175.988281 282.460938 177.507812 281.601562 177.792969 Z M 281.601562 177.792969 " fill-opacity="1" fill-rule="nonzero"/><path fill="#ffffff" d="M 245.828125 243.21875 C 246.207031 243.21875 246.515625 242.914062 246.515625 242.535156 L 246.515625 178.722656 C 246.515625 170.757812 240.035156 164.304688 232.042969 164.304688 L 167.980469 164.304688 C 167.601562 164.304688 167.292969 164.609375 167.292969 164.988281 L 167.292969 191.515625 C 167.292969 192.054688 166.691406 192.390625 166.207031 192.152344 C 160.296875 189.257812 149.773438 189.988281 149.773438 204.238281 C 149.773438 218.554688 160.394531 218.464844 166.285156 216.074219 C 166.757812 215.882812 167.292969 216.21875 167.292969 216.726562 L 167.292969 242.535156 C 167.292969 242.914062 167.601562 243.21875 167.980469 243.21875 L 195.894531 243.21875 C 196.402344 243.21875 196.738281 242.683594 196.546875 242.214844 C 194.144531 236.34375 194.058594 225.765625 208.429688 225.765625 C 222.734375 225.765625 223.382812 236.25 220.464844 242.136719 C 220.226562 242.617188 220.5625 243.21875 221.101562 243.21875 Z M 245.828125 243.21875 " fill-opacity="1" fill-rule="nonzero"/><path fill="#032068" d="M 232.039062 163.621094 C 240.414062 163.621094 247.199219 170.382812 247.199219 178.722656 L 247.199219 242.535156 C 247.199219 243.289062 246.585938 243.902344 245.828125 243.902344 L 221.101562 243.902344 C 219.996094 243.902344 219.410156 242.71875 219.847656 241.832031 C 221.242188 239.019531 221.757812 235.152344 220.285156 232.035156 C 218.84375 228.988281 215.402344 226.449219 208.425781 226.449219 C 201.425781 226.449219 198.160156 229.003906 196.824219 232.0625 C 195.453125 235.207031 196.019531 239.113281 197.179688 241.957031 C 197.542969 242.839844 196.925781 243.902344 195.890625 243.902344 L 167.980469 243.902344 C 167.222656 243.902344 166.609375 243.289062 166.609375 242.535156 L 166.609375 216.726562 C 166.609375 216.726562 166.609375 216.722656 166.609375 216.722656 C 166.609375 216.722656 166.605469 216.71875 166.597656 216.714844 C 166.589844 216.707031 166.578125 216.703125 166.570312 216.703125 C 166.5625 216.703125 166.554688 216.703125 166.542969 216.707031 C 163.503906 217.941406 159.171875 218.617188 155.546875 217.046875 C 151.832031 215.441406 149.089844 211.582031 149.089844 204.238281 C 149.089844 196.9375 151.800781 192.898438 155.480469 191.148438 C 159.085938 189.433594 163.421875 190.027344 166.507812 191.539062 C 166.527344 191.550781 166.558594 191.550781 166.589844 191.535156 C 166.601562 191.527344 166.605469 191.519531 166.609375 191.519531 C 166.609375 191.519531 166.609375 191.515625 166.609375 191.515625 L 166.609375 164.988281 C 166.609375 164.234375 167.222656 163.621094 167.980469 163.621094 Z M 245.828125 178.722656 C 245.828125 171.136719 239.65625 164.988281 232.039062 164.988281 L 167.980469 164.988281 L 167.980469 191.515625 C 167.980469 192.617188 166.792969 193.199219 165.902344 192.765625 C 163.082031 191.382812 159.199219 190.894531 156.070312 192.382812 C 153.007812 193.839844 150.460938 197.292969 150.460938 204.238281 C 150.460938 211.214844 153.023438 214.46875 156.09375 215.796875 C 159.25 217.164062 163.171875 216.601562 166.027344 215.441406 C 166.914062 215.082031 167.980469 215.695312 167.980469 216.726562 L 167.980469 242.535156 L 195.890625 242.535156 C 195.894531 242.535156 195.894531 242.535156 195.894531 242.535156 C 195.898438 242.535156 195.902344 242.53125 195.90625 242.523438 C 195.910156 242.515625 195.914062 242.507812 195.914062 242.496094 C 195.914062 242.488281 195.914062 242.480469 195.910156 242.472656 C 194.671875 239.445312 193.992188 235.128906 195.570312 231.515625 C 197.183594 227.816406 201.058594 225.085938 208.425781 225.085938 C 215.757812 225.085938 219.792969 227.789062 221.523438 231.453125 C 223.222656 235.050781 222.601562 239.367188 221.078125 242.4375 C 221.066406 242.457031 221.066406 242.488281 221.082031 242.519531 C 221.089844 242.53125 221.097656 242.535156 221.097656 242.535156 C 221.101562 242.535156 221.101562 242.535156 221.101562 242.535156 L 245.828125 242.535156 Z M 245.828125 178.722656 " fill-opacity="1" fill-rule="evenodd"/><path fill="#032068" d="M 275.132812 183.804688 C 273.554688 184.792969 270.394531 185.457031 269.101562 185.171875 L 269.101562 188.523438 C 273.238281 187.839844 274.847656 185.089844 275.132812 183.804688 Z M 275.132812 183.804688 " fill-opacity="1" fill-rule="nonzero"/><path fill="#efcb96" d="M 220.988281 240.96875 C 222.878906 238.097656 228.804688 241.625 231.527344 243.75 L 237.148438 243.75 C 237.59375 245.667969 238.027344 247.570312 238.332031 248.914062 L 234.574219 257.753906 C 233.226562 256.976562 225.105469 256.683594 220.988281 253.070312 C 216.875 249.457031 218.625 244.558594 220.988281 240.96875 Z M 220.988281 240.96875 " fill-opacity="1" fill-rule="nonzero"/><path fill="#ffffff" d="M 102.503906 200.417969 C 102.054688 200.417969 101.6875 200.785156 101.6875 201.234375 L 101.6875 265.03125 C 101.6875 273.007812 108.128906 279.472656 116.078125 279.472656 L 179.628906 279.472656 C 180.078125 279.472656 180.441406 279.109375 180.441406 278.660156 L 180.441406 253.976562 C 180.441406 253.332031 181.160156 252.929688 181.746094 253.203125 C 187.65625 255.976562 197.859375 255.085938 197.859375 240.988281 C 197.859375 226.8125 187.542969 226.734375 181.648438 229.050781 C 181.085938 229.269531 180.441406 228.871094 180.441406 228.265625 L 180.441406 201.234375 C 180.441406 200.785156 180.078125 200.417969 179.628906 200.417969 L 152.226562 200.417969 C 151.621094 200.417969 151.222656 201.058594 151.441406 201.621094 C 153.75 207.539062 153.679688 217.902344 139.550781 217.902344 C 125.5 217.902344 124.703125 207.648438 127.484375 201.71875 C 127.757812 201.136719 127.355469 200.417969 126.710938 200.417969 Z M 102.503906 200.417969 " fill-opacity="1" fill-rule="nonzero"/><path fill="#032068" d="M 116.078125 280.289062 C 107.675781 280.289062 100.875 273.453125 100.875 265.03125 L 100.875 201.234375 C 100.875 200.332031 101.605469 199.605469 102.503906 199.605469 L 126.710938 199.605469 C 128.027344 199.605469 128.714844 201.011719 128.222656 202.0625 C 126.902344 204.878906 126.46875 208.65625 127.9375 211.675781 C 129.371094 214.621094 132.734375 217.085938 139.550781 217.085938 C 146.398438 217.085938 149.589844 214.597656 150.917969 211.644531 C 152.289062 208.59375 151.792969 204.765625 150.683594 201.917969 C 150.273438 200.867188 150.996094 199.605469 152.226562 199.605469 L 179.628906 199.601562 C 180.527344 199.601562 181.257812 200.332031 181.257812 201.234375 L 181.257812 228.265625 C 181.257812 228.265625 181.257812 228.265625 181.257812 228.269531 C 181.257812 228.269531 181.261719 228.273438 181.269531 228.277344 C 181.269531 228.277344 181.273438 228.28125 181.273438 228.28125 C 181.300781 228.296875 181.328125 228.300781 181.351562 228.292969 C 184.40625 227.089844 188.707031 226.464844 192.300781 228.09375 C 195.996094 229.765625 198.675781 233.6875 198.675781 240.988281 C 198.675781 248.242188 196.03125 252.335938 192.382812 254.152344 C 188.808594 255.933594 184.511719 255.402344 181.398438 253.941406 C 181.371094 253.925781 181.328125 253.925781 181.285156 253.949219 C 181.265625 253.960938 181.257812 253.972656 181.257812 253.972656 C 181.257812 253.972656 181.257812 253.976562 181.257812 253.976562 L 181.257812 278.660156 C 181.257812 279.558594 180.527344 280.289062 179.628906 280.289062 Z M 102.503906 265.03125 C 102.503906 272.5625 108.582031 278.660156 116.078125 278.660156 L 179.628906 278.660156 L 179.628906 253.976562 C 179.628906 252.65625 181.039062 251.972656 182.089844 252.464844 C 184.890625 253.78125 188.648438 254.191406 191.65625 252.695312 C 194.585938 251.234375 197.042969 247.832031 197.042969 240.988281 C 197.042969 234.113281 194.566406 230.90625 191.628906 229.578125 C 188.589844 228.203125 184.785156 228.695312 181.945312 229.808594 C 180.898438 230.21875 179.628906 229.5 179.628906 228.265625 L 179.628906 201.234375 L 152.226562 201.234375 C 152.226562 201.234375 152.226562 201.234375 152.222656 201.234375 C 152.222656 201.234375 152.214844 201.238281 152.210938 201.25 C 152.191406 201.277344 152.191406 201.304688 152.199219 201.324219 C 153.398438 204.390625 154.023438 208.707031 152.402344 212.3125 C 150.738281 216.023438 146.832031 218.71875 139.550781 218.71875 C 132.316406 218.71875 128.257812 216.058594 126.472656 212.390625 C 124.726562 208.800781 125.285156 204.488281 126.746094 201.371094 C 126.757812 201.34375 126.761719 201.300781 126.738281 201.261719 C 126.726562 201.242188 126.714844 201.234375 126.714844 201.234375 C 126.714844 201.234375 126.710938 201.234375 126.710938 201.234375 L 102.503906 201.234375 Z M 102.503906 265.03125 " fill-opacity="1" fill-rule="evenodd"/><path fill="#ffffff" d="M 180.746094 278.660156 C 180.746094 279.109375 181.109375 279.472656 181.558594 279.472656 L 245.355469 279.472656 C 253.332031 279.472656 259.800781 272.976562 259.800781 264.964844 L 259.800781 200.867188 C 259.800781 200.417969 259.433594 200.050781 258.984375 200.050781 L 232.777344 200.050781 C 232.132812 200.050781 231.730469 199.335938 232 198.753906 C 234.785156 192.796875 233.90625 182.488281 219.792969 182.488281 C 205.605469 182.488281 205.542969 192.90625 207.859375 198.851562 C 208.082031 199.414062 207.679688 200.050781 207.074219 200.050781 L 181.558594 200.050781 C 181.109375 200.050781 180.746094 200.417969 180.746094 200.867188 L 180.746094 227.75 C 180.746094 228.355469 181.386719 228.757812 181.949219 228.535156 C 187.867188 226.207031 198.226562 226.28125 198.226562 240.527344 C 198.226562 254.695312 187.980469 255.5 182.046875 252.699219 C 181.464844 252.425781 180.746094 252.828125 180.746094 253.46875 Z M 180.746094 278.660156 " fill-opacity="1" fill-rule="nonzero"/><path fill="#032068" d="M 260.613281 264.964844 C 260.613281 273.425781 253.789062 280.289062 245.355469 280.289062 L 181.558594 280.289062 C 180.660156 280.289062 179.929688 279.558594 179.929688 278.660156 L 179.929688 253.46875 C 179.929688 252.152344 181.34375 251.464844 182.394531 251.960938 C 185.207031 253.292969 188.984375 253.726562 192.003906 252.246094 C 194.945312 250.800781 197.414062 247.40625 197.414062 240.527344 C 197.414062 233.617188 194.921875 230.394531 191.972656 229.058594 C 188.917969 227.675781 185.097656 228.171875 182.25 229.292969 C 181.199219 229.707031 179.929688 228.984375 179.929688 227.75 L 179.929688 200.867188 C 179.929688 199.96875 180.660156 199.238281 181.558594 199.238281 L 207.074219 199.238281 C 207.078125 199.238281 207.078125 199.238281 207.078125 199.238281 C 207.078125 199.238281 207.082031 199.234375 207.085938 199.230469 C 207.085938 199.230469 207.089844 199.226562 207.09375 199.222656 C 207.109375 199.195312 207.109375 199.167969 207.101562 199.144531 C 205.898438 196.066406 205.269531 191.730469 206.894531 188.109375 C 208.5625 184.382812 212.484375 181.671875 219.792969 181.671875 C 227.058594 181.671875 231.152344 184.347656 232.964844 188.027344 C 234.738281 191.628906 234.203125 195.964844 232.742188 199.097656 C 232.726562 199.128906 232.726562 199.171875 232.75 199.210938 C 232.761719 199.230469 232.769531 199.234375 232.773438 199.238281 L 258.984375 199.238281 C 259.886719 199.238281 260.613281 199.96875 260.613281 200.867188 Z M 245.355469 278.660156 C 252.878906 278.660156 258.984375 272.53125 258.984375 264.964844 L 258.984375 200.867188 L 232.773438 200.867188 C 231.460938 200.867188 230.773438 199.460938 231.261719 198.410156 C 232.582031 195.585938 233 191.785156 231.5 188.746094 C 230.042969 185.785156 226.640625 183.304688 219.792969 183.304688 C 212.917969 183.304688 209.710938 185.804688 208.378906 188.773438 C 207.003906 191.84375 207.503906 195.691406 208.621094 198.554688 C 209.027344 199.601562 208.304688 200.867188 207.074219 200.867188 L 181.558594 200.867188 L 181.558594 227.75 C 181.558594 227.753906 181.558594 227.753906 181.558594 227.753906 C 181.558594 227.753906 181.5625 227.753906 181.5625 227.757812 C 181.566406 227.761719 181.570312 227.765625 181.574219 227.769531 C 181.601562 227.785156 181.628906 227.785156 181.652344 227.777344 C 184.71875 226.570312 189.035156 225.941406 192.644531 227.574219 C 196.351562 229.253906 199.042969 233.191406 199.042969 240.527344 C 199.042969 247.816406 196.386719 251.910156 192.71875 253.707031 C 189.132812 255.472656 184.816406 254.910156 181.699219 253.4375 C 181.667969 253.421875 181.628906 253.421875 181.585938 253.445312 C 181.570312 253.453125 181.5625 253.464844 181.558594 253.46875 L 181.558594 278.660156 Z M 245.355469 278.660156 " fill-opacity="1" fill-rule="evenodd"/><path fill="#ffffff" d="M 172.789062 130.15625 C 172.78125 129.800781 172.488281 129.511719 172.132812 129.511719 L 107.632812 129.511719 C 99.589844 129.511719 93.453125 136.007812 93.453125 144.023438 L 93.453125 208.273438 C 93.453125 208.636719 93.746094 208.925781 94.109375 208.925781 L 121 208.925781 C 121.519531 208.925781 121.839844 209.5 121.609375 209.960938 C 118.652344 215.875 119.351562 226.492188 133.789062 226.492188 C 148.292969 226.492188 148.160156 215.785156 145.722656 209.886719 C 145.539062 209.4375 145.859375 208.925781 146.347656 208.925781 L 172.507812 208.925781 C 172.867188 208.925781 173.160156 208.636719 173.160156 208.273438 L 173.160156 180.203125 C 173.160156 179.71875 172.648438 179.398438 172.199219 179.582031 C 166.28125 182.011719 155.535156 182.140625 155.535156 167.695312 C 155.535156 153.320312 166.167969 152.699219 172.105469 155.644531 C 172.570312 155.878906 173.152344 155.546875 173.144531 155.03125 Z M 172.789062 130.15625 " fill-opacity="1" fill-rule="nonzero"/><path fill="#032068" d="M 92.800781 144.023438 C 92.800781 135.671875 99.207031 128.859375 107.632812 128.859375 L 172.132812 128.859375 C 172.847656 128.859375 173.433594 129.433594 173.441406 130.148438 L 173.800781 155.019531 C 173.816406 156.082031 172.671875 156.65625 171.8125 156.230469 C 168.96875 154.820312 165.042969 154.289062 161.871094 155.765625 C 158.769531 157.210938 156.191406 160.675781 156.191406 167.695312 C 156.191406 174.742188 158.789062 178.03125 161.90625 179.367188 C 165.109375 180.742188 169.078125 180.15625 171.949219 178.980469 C 172.800781 178.628906 173.816406 179.222656 173.816406 180.203125 L 173.816406 208.273438 C 173.816406 208.996094 173.230469 209.582031 172.507812 209.582031 L 146.347656 209.582031 C 146.347656 209.582031 146.34375 209.582031 146.34375 209.582031 C 146.34375 209.582031 146.339844 209.585938 146.335938 209.589844 C 146.332031 209.59375 146.332031 209.597656 146.328125 209.601562 C 146.328125 209.605469 146.328125 209.613281 146.328125 209.617188 C 146.324219 209.621094 146.328125 209.628906 146.328125 209.640625 C 147.585938 212.675781 148.28125 217.023438 146.710938 220.660156 C 145.101562 224.382812 141.21875 227.144531 133.792969 227.144531 C 126.398438 227.144531 122.332031 224.410156 120.585938 220.722656 C 118.867188 217.101562 119.480469 212.753906 121.023438 209.671875 C 121.03125 209.652344 121.035156 209.625 121.019531 209.597656 C 121.011719 209.585938 121.007812 209.582031 121.003906 209.582031 C 121.003906 209.582031 121.003906 209.582031 121 209.582031 L 94.109375 209.582031 C 93.386719 209.582031 92.800781 208.996094 92.800781 208.273438 Z M 107.632812 130.164062 C 99.976562 130.164062 94.109375 136.347656 94.109375 144.023438 L 94.109375 208.273438 L 121 208.273438 C 122.058594 208.273438 122.621094 209.40625 122.195312 210.253906 C 120.78125 213.082031 120.265625 217 121.769531 220.164062 C 123.238281 223.265625 126.742188 225.839844 133.792969 225.839844 C 140.863281 225.839844 144.164062 223.246094 145.507812 220.140625 C 146.886719 216.949219 146.300781 212.996094 145.117188 210.136719 C 144.769531 209.289062 145.363281 208.273438 146.347656 208.273438 L 172.507812 208.273438 L 172.507812 180.203125 C 172.507812 180.203125 172.507812 180.203125 172.507812 180.199219 C 172.503906 180.199219 172.503906 180.195312 172.496094 180.191406 C 172.488281 180.1875 172.480469 180.183594 172.472656 180.183594 C 172.464844 180.183594 172.457031 180.183594 172.449219 180.1875 C 169.402344 181.4375 165.039062 182.132812 161.386719 180.566406 C 157.652344 178.964844 154.878906 175.09375 154.878906 167.695312 C 154.878906 160.335938 157.617188 156.304688 161.316406 154.585938 C 164.945312 152.894531 169.304688 153.527344 172.398438 155.0625 C 172.414062 155.070312 172.441406 155.074219 172.472656 155.054688 C 172.484375 155.050781 172.488281 155.042969 172.488281 155.042969 C 172.488281 155.039062 172.488281 155.039062 172.488281 155.039062 L 172.132812 130.164062 Z M 107.632812 130.164062 " fill-opacity="1" fill-rule="evenodd"/><path fill="#efcb96" d="M 167.851562 193.78125 C 168.441406 195.578125 168.097656 197.027344 167.851562 197.527344 C 168.714844 201.648438 171.628906 208.394531 176.367188 202.398438 C 182.292969 194.90625 181.179688 191.160156 178.960938 188.160156 C 177.183594 185.761719 174.144531 185.660156 173.035156 186.285156 L 173.035156 193.78125 C 172.664062 193.40625 171.257812 192.207031 171.554688 190.410156 C 171.925781 188.160156 169.703125 187.035156 168.960938 187.410156 C 168.21875 187.785156 167.109375 191.53125 167.851562 193.78125 Z M 167.851562 193.78125 " fill-opacity="1" fill-rule="nonzero"/><path fill="#efcb96" d="M 83.464844 177.890625 L 81.394531 188.617188 C 82.363281 189.71875 85.453125 192 90.089844 192.332031 C 94.730469 192.660156 98.925781 190.542969 100.445312 189.445312 L 99.203125 179.542969 C 106.242188 175.828125 103.757812 161.800781 100.445312 156.851562 C 97.132812 151.902344 83.464844 151.074219 80.152344 162.628906 C 77.503906 171.867188 81.257812 176.652344 83.464844 177.890625 Z M 83.464844 177.890625 " fill-opacity="1" fill-rule="nonzero"/><path fill="#5e9af4" d="M 55.683594 196.464844 C 68.253906 185.613281 81.355469 184.914062 94.605469 184.914062 C 123.59375 184.914062 141.308594 215.832031 147.105469 215.417969 C 152.902344 215.007812 163.042969 196.464844 165.113281 196.464844 C 167.183594 196.464844 179.324219 200.097656 178.910156 205.875 C 178.496094 211.648438 166.085938 249.152344 158.21875 252.453125 C 151.921875 255.09375 140.984375 251.886719 134.773438 249.6875 C 135.324219 263.300781 135.765625 291.4375 133.117188 295.070312 C 129.804688 299.605469 126.078125 301.257812 105.371094 303.320312 C 87.058594 305.144531 55.789062 302.449219 47.089844 300.375 C 43.519531 299.710938 44.382812 260.902344 44.789062 250.542969 C 37.503906 249.6875 37.558594 235.808594 38.65625 229.546875 C 39.992188 221.910156 44.789062 205.875 55.683594 196.464844 Z M 55.683594 196.464844 " fill-opacity="1" fill-rule="nonzero"/><path fill="#032068" d="M 165.878906 242.527344 C 154.382812 241.382812 143.652344 247.871094 140.570312 251.335938 C 144.296875 252.574219 149.953125 254.207031 155.917969 253.21875 C 161.878906 252.226562 164.777344 245.140625 165.878906 242.527344 Z M 165.878906 242.527344 " fill-opacity="1" fill-rule="nonzero"/><path fill="#032068" d="M 48.714844 221.976562 C 47.167969 228.332031 45.652344 240.066406 44.785156 250.542969 C 43.890625 250.390625 43.394531 250.269531 42.488281 249.78125 C 44.214844 236.617188 47.203125 226.589844 48.714844 221.976562 Z M 48.714844 221.976562 " fill-opacity="1" fill-rule="nonzero"/><path fill="#032068" d="M 113.652344 236.898438 C 118.292969 241.519531 129.664062 247.347656 134.773438 249.6875 L 134.773438 255.464844 C 130.132812 253.8125 118.761719 242.398438 113.652344 236.898438 Z M 113.652344 236.898438 " fill-opacity="1" fill-rule="nonzero"/><path fill="#032068" d="M 82.085938 179.175781 C 83.707031 180.792969 90.335938 180.660156 94.261719 179.984375 C 96.289062 179.671875 97.914062 173.109375 96.695312 171.898438 C 91.824219 170.28125 93.855469 165.023438 95.882812 164.617188 C 97.914062 164.214844 97.914062 169.875 98.726562 169.066406 C 99.535156 168.257812 99.132812 164.214844 99.941406 162.597656 C 100.753906 160.980469 102.378906 159.765625 105.625 158.554688 C 113.335938 155.671875 110.089844 144.609375 95.476562 145.613281 C 83.707031 146.421875 82.085938 153.296875 81.273438 153.296875 C 80.460938 153.296875 76.808594 154.507812 75.996094 160.980469 C 75.183594 167.449219 80.054688 177.15625 82.085938 179.175781 Z M 82.085938 179.175781 " fill-opacity="1" fill-rule="nonzero"/></svg>