<svg xmlns="http://www.w3.org/2000/svg" xmlns:xlink="http://www.w3.org/1999/xlink" width="500" zoomAndPan="magnify" viewBox="0 0 375 374.999991" height="500" preserveAspectRatio="xMidYMid meet" version="1.0"><defs><clipPath id="bcf791b1b0"><path d="M 120 199 L 246 199 L 246 306 L 120 306 Z M 120 199 " clip-rule="nonzero"/></clipPath><clipPath id="8c1f256d6c"><path d="M 230 160 L 337.5 160 L 337.5 285 L 230 285 Z M 230 160 " clip-rule="nonzero"/></clipPath></defs><path fill="#e7e8ff" d="M 115.019531 305.085938 L 273.792969 305.085938 C 303.894531 305.085938 321.332031 271.042969 303.710938 246.675781 C 293.066406 231.960938 294.746094 211.695312 307.664062 198.925781 L 313.378906 193.277344 C 337.421875 169.511719 328.648438 128.863281 296.933594 117.101562 L 184.964844 75.5625 C 167.261719 68.996094 148.113281 80.886719 146.1875 99.644531 C 144.601562 115.046875 131.113281 126.453125 115.636719 125.472656 L 108.007812 124.988281 C 86.800781 123.644531 68.859375 140.457031 68.859375 161.675781 L 68.859375 176.613281 C 68.859375 188.304688 64.726562 199.753906 57.324219 208.816406 C 38.96875 231.292969 42.136719 264.714844 64.71875 282.957031 L 74.296875 290.699219 C 85.820312 300.007812 100.195312 305.085938 115.019531 305.085938 Z M 115.019531 305.085938 " fill-opacity="1" fill-rule="nonzero"/><path fill="#032068" d="M 271.378906 270.609375 C 261.867188 269.984375 253.410156 293.59375 250.765625 305.085938 L 257.109375 305.085938 C 265.566406 294.117188 280.894531 271.238281 271.378906 270.609375 Z M 271.378906 270.609375 " fill-opacity="1" fill-rule="nonzero"/><path fill="#ffffff" d="M 269.003906 235.742188 C 252.828125 234.175781 245.351562 280.796875 243.632812 304.304688 L 255.128906 304.304688 C 266.492188 282.101562 285.175781 237.308594 269.003906 235.742188 Z M 269.003906 235.742188 " fill-opacity="1" fill-rule="nonzero"/><path fill="#032068" d="M 244.339844 303.652344 L 254.722656 303.652344 C 260.375 292.570312 267.75 276.070312 271.757812 262.109375 C 273.789062 255.039062 274.9375 248.6875 274.601562 244.039062 C 274.433594 241.71875 273.898438 239.886719 272.980469 238.601562 C 272.082031 237.347656 270.78125 236.566406 268.9375 236.390625 C 265.269531 236.035156 261.96875 238.390625 259.007812 242.84375 C 256.058594 247.28125 253.574219 253.621094 251.527344 260.796875 C 247.519531 274.855469 245.234375 291.9375 244.339844 303.652344 Z M 257.90625 242.132812 C 260.949219 237.550781 264.648438 234.667969 269.066406 235.09375 C 271.269531 235.308594 272.921875 236.273438 274.054688 237.851562 C 275.164062 239.40625 275.734375 241.503906 275.914062 243.949219 C 276.265625 248.832031 275.0625 255.363281 273.023438 262.460938 C 268.9375 276.6875 261.40625 293.480469 255.714844 304.597656 L 255.53125 304.953125 L 242.925781 304.953125 L 242.976562 304.257812 C 243.835938 292.480469 246.140625 274.898438 250.261719 260.445312 C 252.324219 253.222656 254.847656 246.730469 257.90625 242.132812 Z M 257.90625 242.132812 " fill-opacity="1" fill-rule="evenodd"/><path fill="#032068" d="M 267.257812 245.714844 L 259.734375 271.644531 L 266.335938 268.460938 L 266.914062 269.628906 L 259.246094 273.328125 L 250.210938 304.480469 L 248.945312 304.125 L 253.449219 288.597656 L 250.539062 279.824219 L 251.789062 279.417969 L 254.09375 286.371094 L 261.722656 260.074219 L 258.089844 251.667969 L 259.300781 251.160156 L 262.296875 258.09375 L 265.992188 245.359375 Z M 267.257812 245.714844 " fill-opacity="1" fill-rule="evenodd"/><path fill="#ffffff" d="M 140.933594 124.101562 C 140.933594 136.003906 131.285156 145.652344 119.382812 145.652344 C 115.269531 145.652344 111.429688 144.5 108.160156 142.503906 L 101.746094 144.777344 C 100.675781 145.160156 99.601562 144.210938 99.847656 143.101562 L 101.414062 136.003906 C 99.148438 132.59375 97.832031 128.503906 97.832031 124.101562 C 97.832031 112.199219 107.480469 102.550781 119.382812 102.550781 C 131.285156 102.550781 140.933594 112.199219 140.933594 124.101562 Z M 140.933594 124.101562 " fill-opacity="1" fill-rule="nonzero"/><path fill="#032068" d="M 119.382812 103.035156 C 131.015625 103.035156 140.449219 112.464844 140.449219 124.101562 C 140.449219 135.738281 131.015625 145.167969 119.382812 145.167969 C 115.363281 145.167969 111.609375 144.042969 108.414062 142.09375 L 108.21875 141.972656 L 101.585938 144.324219 C 100.871094 144.578125 100.15625 143.945312 100.320312 143.207031 L 101.929688 135.910156 L 101.816406 135.738281 C 99.601562 132.402344 98.3125 128.40625 98.3125 124.101562 C 98.3125 112.464844 107.746094 103.035156 119.382812 103.035156 Z M 141.414062 124.101562 C 141.414062 111.933594 131.550781 102.070312 119.382812 102.070312 C 107.214844 102.070312 97.347656 111.933594 97.347656 124.101562 C 97.347656 128.527344 98.652344 132.648438 100.898438 136.101562 L 99.378906 142.996094 C 99.050781 144.476562 100.480469 145.742188 101.910156 145.234375 L 108.109375 143.035156 C 111.40625 145.003906 115.261719 146.132812 119.382812 146.132812 C 131.550781 146.132812 141.414062 136.269531 141.414062 124.101562 Z M 141.414062 124.101562 " fill-opacity="1" fill-rule="evenodd"/><path fill="#5e9af4" d="M 119.277344 123.53125 C 125.300781 123.53125 130.265625 128.117188 130.96875 134.035156 C 131.0625 134.828125 130.40625 135.480469 129.605469 135.480469 L 108.953125 135.480469 C 108.152344 135.480469 107.492188 134.828125 107.589844 134.035156 C 108.292969 128.117188 113.257812 123.53125 119.277344 123.53125 Z M 119.277344 123.53125 " fill-opacity="1" fill-rule="nonzero"/><path fill="#5e9af4" d="M 113.726562 116.53125 C 113.726562 119.640625 116.246094 122.15625 119.351562 122.15625 C 122.457031 122.15625 124.976562 119.640625 124.976562 116.53125 C 124.976562 113.425781 122.457031 110.910156 119.351562 110.910156 C 116.246094 110.910156 113.726562 113.425781 113.726562 116.53125 Z M 113.726562 116.53125 " fill-opacity="1" fill-rule="nonzero"/><path fill="#ffffff" d="M 211.644531 110.265625 L 211.484375 105.703125 C 211.457031 104.886719 212.488281 104.519531 212.984375 105.164062 L 215.703125 108.695312 C 215.867188 108.910156 216.125 109.03125 216.394531 109.023438 L 221.273438 108.855469 C 222.058594 108.828125 222.445312 109.800781 221.855469 110.320312 L 218.148438 113.574219 C 217.96875 113.734375 217.863281 113.960938 217.863281 114.199219 L 217.847656 119.621094 C 217.847656 120.425781 216.820312 120.765625 216.339844 120.117188 L 213.3125 116.035156 C 213.164062 115.835938 212.9375 115.714844 212.691406 115.699219 L 207.171875 115.375 C 206.359375 115.324219 206.085938 114.265625 206.773438 113.832031 L 211.253906 111.003906 C 211.503906 110.84375 211.652344 110.5625 211.644531 110.265625 Z M 211.644531 110.265625 " fill-opacity="1" fill-rule="nonzero"/><path fill="#ffffff" d="M 263.371094 132.65625 L 263.960938 131.304688 C 264.285156 130.558594 265.375 130.664062 265.546875 131.460938 L 265.847656 132.859375 C 265.902344 133.125 266.085938 133.34375 266.332031 133.453125 L 267.972656 134.164062 C 268.695312 134.476562 268.625 135.523438 267.867188 135.738281 L 266.097656 136.238281 C 265.867188 136.304688 265.675781 136.464844 265.570312 136.683594 L 264.679688 138.539062 C 264.332031 139.265625 263.261719 139.128906 263.105469 138.339844 L 262.746094 136.523438 C 262.699219 136.277344 262.546875 136.070312 262.328125 135.949219 L 260.503906 134.945312 C 259.789062 134.554688 260 133.476562 260.808594 133.382812 L 262.707031 133.15625 C 263 133.121094 263.253906 132.929688 263.371094 132.65625 Z M 263.371094 132.65625 " fill-opacity="1" fill-rule="nonzero"/><path fill="#032068" d="M 183.121094 128.824219 C 158.445312 128.824219 138.445312 148.832031 138.445312 173.515625 L 138.445312 207.917969 C 138.445312 209.449219 139.6875 210.691406 141.21875 210.691406 L 149.035156 210.691406 C 150.566406 210.691406 151.804688 209.449219 151.804688 207.917969 L 151.804688 172.679688 C 151.804688 155.378906 165.824219 141.355469 183.121094 141.355469 C 200.414062 141.355469 214.4375 155.378906 214.4375 172.679688 L 214.4375 182.019531 C 214.4375 183.550781 215.675781 184.792969 217.207031 184.792969 L 225.023438 184.792969 C 226.554688 184.792969 227.796875 183.550781 227.796875 182.019531 L 227.796875 173.515625 C 227.796875 148.832031 207.792969 128.824219 183.121094 128.824219 Z M 183.121094 128.824219 " fill-opacity="1" fill-rule="evenodd"/><path fill="#ffffff" d="M 121.742188 203.4375 C 121.742188 201.90625 122.984375 200.664062 124.515625 200.664062 L 241.726562 200.664062 C 243.257812 200.664062 244.5 201.90625 244.5 203.4375 L 244.5 302.3125 C 244.5 303.84375 243.257812 305.085938 241.726562 305.085938 L 124.515625 305.085938 C 122.984375 305.085938 121.742188 303.84375 121.742188 302.3125 Z M 121.742188 203.4375 " fill-opacity="1" fill-rule="nonzero"/><g clip-path="url(#bcf791b1b0)"><path fill="#032068" d="M 120.820312 203.4375 C 120.820312 201.394531 122.472656 199.742188 124.515625 199.742188 L 241.726562 199.742188 C 243.769531 199.742188 245.421875 201.394531 245.421875 203.4375 L 245.421875 302.3125 C 245.421875 304.355469 243.769531 306.011719 241.726562 306.011719 L 124.515625 306.011719 C 122.472656 306.011719 120.820312 304.355469 120.820312 302.3125 Z M 124.515625 201.589844 C 123.496094 201.589844 122.667969 202.417969 122.667969 203.4375 L 122.667969 302.3125 C 122.667969 303.335938 123.496094 304.164062 124.515625 304.164062 L 241.726562 304.164062 C 242.746094 304.164062 243.574219 303.335938 243.574219 302.3125 L 243.574219 203.4375 C 243.574219 202.417969 242.746094 201.589844 241.726562 201.589844 Z M 124.515625 201.589844 " fill-opacity="1" fill-rule="evenodd"/></g><path fill="#5e9af4" d="M 190.183594 255.820312 C 192.75 253.75 194.394531 250.582031 194.394531 247.027344 C 194.394531 240.800781 189.347656 235.75 183.121094 235.75 C 176.894531 235.75 171.847656 240.800781 171.847656 247.027344 C 171.847656 250.898438 173.796875 254.3125 176.769531 256.34375 L 174.253906 266.914062 C 173.878906 268.488281 175.070312 270 176.691406 270 L 190.386719 270 C 192.003906 270 193.199219 268.488281 192.824219 266.914062 Z M 190.183594 255.820312 " fill-opacity="1" fill-rule="evenodd"/><path fill="#ffffff" d="M 141.691406 124.496094 C 141.691406 137.035156 131.527344 147.199219 118.988281 147.199219 C 114.65625 147.199219 110.609375 145.988281 107.167969 143.882812 L 100.410156 146.28125 C 99.28125 146.679688 98.148438 145.683594 98.410156 144.511719 L 100.058594 137.035156 C 97.671875 133.441406 96.285156 129.132812 96.285156 124.496094 C 96.285156 111.957031 106.449219 101.789062 118.988281 101.789062 C 131.527344 101.789062 141.691406 111.957031 141.691406 124.496094 Z M 141.691406 124.496094 " fill-opacity="1" fill-rule="nonzero"/><path fill="#032068" d="M 118.988281 102.300781 C 131.246094 102.300781 141.183594 112.238281 141.183594 124.496094 C 141.183594 136.753906 131.246094 146.691406 118.988281 146.691406 C 114.753906 146.691406 110.796875 145.503906 107.433594 143.449219 L 107.226562 143.324219 L 100.238281 145.800781 C 99.484375 146.066406 98.734375 145.402344 98.90625 144.621094 L 100.601562 136.933594 L 100.480469 136.753906 C 98.152344 133.242188 96.792969 129.027344 96.792969 124.496094 C 96.792969 112.238281 106.730469 102.300781 118.988281 102.300781 Z M 142.203125 124.496094 C 142.203125 111.675781 131.808594 101.28125 118.988281 101.28125 C 106.167969 101.28125 95.773438 111.675781 95.773438 124.496094 C 95.773438 129.15625 97.148438 133.5 99.515625 137.136719 L 97.910156 144.402344 C 97.566406 145.964844 99.074219 147.292969 100.578125 146.761719 L 107.109375 144.441406 C 110.585938 146.515625 114.648438 147.707031 118.988281 147.707031 C 131.808594 147.707031 142.203125 137.316406 142.203125 124.496094 Z M 142.203125 124.496094 " fill-opacity="1" fill-rule="evenodd"/><path fill="#5e9af4" d="M 118.878906 123.890625 C 125.222656 123.890625 130.457031 128.726562 131.195312 134.960938 C 131.296875 135.796875 130.605469 136.484375 129.761719 136.484375 L 108 136.484375 C 107.15625 136.484375 106.464844 135.796875 106.5625 134.960938 C 107.304688 128.726562 112.535156 123.890625 118.878906 123.890625 Z M 118.878906 123.890625 " fill-opacity="1" fill-rule="nonzero"/><path fill="#5e9af4" d="M 113.03125 116.519531 C 113.03125 119.792969 115.683594 122.445312 118.957031 122.445312 C 122.230469 122.445312 124.882812 119.792969 124.882812 116.519531 C 124.882812 113.25 122.230469 110.59375 118.957031 110.59375 C 115.683594 110.59375 113.03125 113.25 113.03125 116.519531 Z M 113.03125 116.519531 " fill-opacity="1" fill-rule="nonzero"/><path fill="#ffffff" d="M 239.238281 167.378906 L 330.96875 167.378906 C 331.210938 167.378906 331.445312 167.425781 331.667969 167.519531 C 331.890625 167.613281 332.089844 167.742188 332.257812 167.914062 C 332.429688 168.085938 332.5625 168.28125 332.652344 168.507812 C 332.746094 168.730469 332.792969 168.960938 332.792969 169.203125 L 332.792969 275.359375 C 332.792969 275.601562 332.746094 275.835938 332.652344 276.058594 C 332.5625 276.28125 332.429688 276.480469 332.257812 276.648438 C 332.089844 276.820312 331.890625 276.953125 331.667969 277.046875 C 331.445312 277.136719 331.210938 277.183594 330.96875 277.183594 L 239.238281 277.183594 C 238.996094 277.183594 238.765625 277.136719 238.542969 277.046875 C 238.316406 276.953125 238.121094 276.820312 237.949219 276.648438 C 237.78125 276.480469 237.648438 276.28125 237.554688 276.058594 C 237.460938 275.835938 237.417969 275.601562 237.417969 275.359375 L 237.417969 169.203125 C 237.417969 168.960938 237.460938 168.730469 237.554688 168.507812 C 237.648438 168.28125 237.78125 168.085938 237.949219 167.914062 C 238.121094 167.742188 238.316406 167.613281 238.542969 167.519531 C 238.765625 167.425781 238.996094 167.378906 239.238281 167.378906 Z M 239.238281 167.378906 " fill-opacity="1" fill-rule="nonzero"/><g clip-path="url(#8c1f256d6c)"><path stroke-linecap="butt" transform="matrix(0.607536, 0, 0, 0.607536, 31.454248, 21.733658)" fill="none" stroke-linejoin="miter" d="M 342.010802 239.730875 L 492.998395 239.730875 C 493.397034 239.730875 493.782813 239.808031 494.149304 239.962342 C 494.515794 240.116654 494.843706 240.328833 495.120182 240.611738 C 495.403086 240.894643 495.621695 241.216125 495.769577 241.589045 C 495.923888 241.955536 496.001044 242.334885 496.001044 242.733524 L 496.001044 417.465834 C 496.001044 417.864473 495.923888 418.250252 495.769577 418.616743 C 495.621695 418.983233 495.403086 419.311145 495.120182 419.58762 C 494.843706 419.870525 494.515794 420.089134 494.149304 420.243445 C 493.782813 420.391327 493.397034 420.468483 492.998395 420.468483 L 342.010802 420.468483 C 341.612163 420.468483 341.232813 420.391327 340.866323 420.243445 C 340.493403 420.089134 340.17192 419.870525 339.889015 419.58762 C 339.61254 419.311145 339.393932 418.983233 339.23962 418.616743 C 339.085309 418.250252 339.014582 417.864473 339.014582 417.465834 L 339.014582 242.733524 C 339.014582 242.334885 339.085309 241.955536 339.23962 241.589045 C 339.393932 241.216125 339.61254 240.894643 339.889015 240.611738 C 340.17192 240.328833 340.493403 240.116654 340.866323 239.962342 C 341.232813 239.808031 341.612163 239.730875 342.010802 239.730875 Z M 342.010802 239.730875 " stroke="#032068" stroke-width="2" stroke-opacity="1" stroke-miterlimit="4"/></g><path stroke-linecap="butt" transform="matrix(0.607536, 0, 0, 0.607536, 31.454248, 21.733658)" fill="none" stroke-linejoin="miter" d="M 368.398107 284.590579 L 467.935599 284.590579 C 468.334238 284.590579 468.713588 284.661306 469.080078 284.815617 C 469.452998 284.969929 469.774481 285.188537 470.057385 285.465013 C 470.34029 285.747917 470.552469 286.0694 470.706781 286.44232 C 470.861092 286.80881 470.931819 287.18816 470.931819 287.586799 L 470.931819 305.332647 C 470.931819 305.731286 470.861092 306.117065 470.706781 306.483555 C 470.552469 306.850046 470.34029 307.171529 470.057385 307.454433 C 469.774481 307.737338 469.452998 307.955946 469.080078 308.103829 C 468.713588 308.25814 468.334238 308.335296 467.935599 308.335296 L 368.398107 308.335296 C 367.999468 308.335296 367.613689 308.25814 367.247198 308.103829 C 366.880708 307.955946 366.552796 307.737338 366.27632 307.454433 C 365.993416 307.171529 365.774807 306.850046 365.626925 306.483555 C 365.472614 306.117065 365.395458 305.731286 365.395458 305.332647 L 365.395458 287.586799 C 365.395458 287.18816 365.472614 286.80881 365.626925 286.44232 C 365.774807 286.0694 365.993416 285.747917 366.27632 285.465013 C 366.552796 285.188537 366.880708 284.969929 367.247198 284.815617 C 367.613689 284.661306 367.999468 284.590579 368.398107 284.590579 Z M 368.398107 284.590579 " stroke="#e7e8ff" stroke-width="2" stroke-opacity="1" stroke-miterlimit="4"/><path stroke-linecap="butt" transform="matrix(0.607536, 0, 0, 0.607536, 31.454248, 21.733658)" fill="none" stroke-linejoin="miter" d="M 368.398107 333.398092 L 467.935599 333.398092 C 468.334238 333.398092 468.713588 333.475248 469.080078 333.62956 C 469.452998 333.777442 469.774481 333.99605 470.057385 334.278955 C 470.34029 334.56186 470.552469 334.883343 470.706781 335.249833 C 470.861092 335.616323 470.931819 336.002103 470.931819 336.400741 L 470.931819 354.14659 C 470.931819 354.545228 470.861092 354.924578 470.706781 355.291068 C 470.552469 355.663988 470.34029 355.985471 470.057385 356.268376 C 469.774481 356.551281 469.452998 356.763459 469.080078 356.917771 C 468.713588 357.072083 468.334238 357.142809 467.935599 357.142809 L 368.398107 357.142809 C 367.999468 357.142809 367.613689 357.072083 367.247198 356.917771 C 366.880708 356.763459 366.552796 356.551281 366.27632 356.268376 C 365.993416 355.985471 365.774807 355.663988 365.626925 355.291068 C 365.472614 354.924578 365.395458 354.545228 365.395458 354.14659 L 365.395458 336.400741 C 365.395458 336.002103 365.472614 335.616323 365.626925 335.249833 C 365.774807 334.883343 365.993416 334.56186 366.27632 334.278955 C 366.552796 333.99605 366.880708 333.777442 367.247198 333.62956 C 367.613689 333.475248 367.999468 333.398092 368.398107 333.398092 Z M 368.398107 333.398092 " stroke="#e7e8ff" stroke-width="2" stroke-opacity="1" stroke-miterlimit="4"/><path fill="#032068" d="M 270.5 249.933594 L 300.515625 249.933594 C 300.757812 249.933594 300.988281 249.980469 301.214844 250.070312 C 301.4375 250.164062 301.632812 250.296875 301.804688 250.46875 C 301.976562 250.636719 302.105469 250.835938 302.199219 251.058594 C 302.292969 251.28125 302.339844 251.515625 302.339844 251.757812 L 302.339844 260.933594 C 302.339844 261.175781 302.292969 261.410156 302.199219 261.632812 C 302.105469 261.855469 301.976562 262.050781 301.804688 262.222656 C 301.632812 262.394531 301.4375 262.527344 301.214844 262.617188 C 300.988281 262.710938 300.757812 262.757812 300.515625 262.757812 L 270.5 262.757812 C 270.257812 262.757812 270.023438 262.710938 269.800781 262.617188 C 269.578125 262.527344 269.378906 262.394531 269.210938 262.222656 C 269.039062 262.050781 268.90625 261.855469 268.816406 261.632812 C 268.722656 261.410156 268.675781 261.175781 268.675781 260.933594 L 268.675781 251.757812 C 268.675781 251.515625 268.722656 251.28125 268.816406 251.058594 C 268.90625 250.835938 269.039062 250.636719 269.210938 250.46875 C 269.378906 250.296875 269.578125 250.164062 269.800781 250.070312 C 270.023438 249.980469 270.257812 249.933594 270.5 249.933594 Z M 270.5 249.933594 " fill-opacity="1" fill-rule="nonzero"/><path fill="#032068" d="M 275.085938 181.007812 L 295.925781 181.007812 C 296.136719 181.007812 296.339844 181.046875 296.539062 181.128906 C 296.734375 181.210938 296.90625 181.324219 297.058594 181.476562 C 297.207031 181.625 297.324219 181.800781 297.40625 181.996094 C 297.488281 182.191406 297.527344 182.394531 297.527344 182.609375 C 297.527344 182.820312 297.488281 183.027344 297.40625 183.222656 C 297.324219 183.417969 297.207031 183.59375 297.058594 183.742188 C 296.90625 183.894531 296.734375 184.007812 296.539062 184.089844 C 296.339844 184.171875 296.136719 184.210938 295.925781 184.210938 L 275.085938 184.210938 C 274.871094 184.210938 274.667969 184.171875 274.472656 184.089844 C 274.277344 184.007812 274.101562 183.894531 273.953125 183.742188 C 273.800781 183.59375 273.6875 183.417969 273.605469 183.222656 C 273.523438 183.027344 273.484375 182.820312 273.484375 182.609375 C 273.484375 182.394531 273.523438 182.191406 273.605469 181.996094 C 273.6875 181.800781 273.800781 181.625 273.953125 181.476562 C 274.101562 181.324219 274.277344 181.210938 274.472656 181.128906 C 274.667969 181.046875 274.871094 181.007812 275.085938 181.007812 Z M 275.085938 181.007812 " fill-opacity="1" fill-rule="nonzero"/><path fill="#5e9af4" d="M 263.066406 231.898438 C 263.066406 232.164062 263.015625 232.421875 262.914062 232.667969 C 262.808594 232.914062 262.664062 233.128906 262.476562 233.316406 C 262.289062 233.503906 262.074219 233.648438 261.828125 233.75 C 261.582031 233.851562 261.328125 233.902344 261.0625 233.902344 C 260.796875 233.902344 260.539062 233.851562 260.292969 233.75 C 260.050781 233.648438 259.832031 233.503906 259.644531 233.316406 C 259.457031 233.128906 259.3125 232.914062 259.210938 232.667969 C 259.109375 232.421875 259.058594 232.164062 259.058594 231.898438 C 259.058594 231.632812 259.109375 231.378906 259.210938 231.132812 C 259.3125 230.886719 259.457031 230.671875 259.644531 230.484375 C 259.832031 230.296875 260.050781 230.152344 260.292969 230.046875 C 260.539062 229.945312 260.796875 229.894531 261.0625 229.894531 C 261.328125 229.894531 261.582031 229.945312 261.828125 230.046875 C 262.074219 230.152344 262.289062 230.296875 262.476562 230.484375 C 262.664062 230.671875 262.808594 230.886719 262.914062 231.132812 C 263.015625 231.378906 263.066406 231.632812 263.066406 231.898438 Z M 263.066406 231.898438 " fill-opacity="1" fill-rule="nonzero"/><path fill="#5e9af4" d="M 272.683594 231.898438 C 272.683594 232.164062 272.632812 232.421875 272.53125 232.667969 C 272.429688 232.914062 272.285156 233.128906 272.097656 233.316406 C 271.910156 233.503906 271.691406 233.648438 271.445312 233.75 C 271.199219 233.851562 270.945312 233.902344 270.679688 233.902344 C 270.414062 233.902344 270.160156 233.851562 269.914062 233.75 C 269.667969 233.648438 269.449219 233.503906 269.261719 233.316406 C 269.074219 233.128906 268.929688 232.914062 268.828125 232.667969 C 268.726562 232.421875 268.675781 232.164062 268.675781 231.898438 C 268.675781 231.632812 268.726562 231.378906 268.828125 231.132812 C 268.929688 230.886719 269.074219 230.671875 269.261719 230.484375 C 269.449219 230.296875 269.667969 230.152344 269.914062 230.046875 C 270.160156 229.945312 270.414062 229.894531 270.679688 229.894531 C 270.945312 229.894531 271.199219 229.945312 271.445312 230.046875 C 271.691406 230.152344 271.910156 230.296875 272.097656 230.484375 C 272.285156 230.671875 272.429688 230.886719 272.53125 231.132812 C 272.632812 231.378906 272.683594 231.632812 272.683594 231.898438 Z M 272.683594 231.898438 " fill-opacity="1" fill-rule="nonzero"/><path fill="#5e9af4" d="M 282.296875 231.898438 C 282.296875 232.164062 282.246094 232.421875 282.144531 232.667969 C 282.042969 232.914062 281.898438 233.128906 281.710938 233.316406 C 281.523438 233.503906 281.308594 233.648438 281.0625 233.75 C 280.816406 233.851562 280.558594 233.902344 280.292969 233.902344 C 280.027344 233.902344 279.773438 233.851562 279.527344 233.75 C 279.28125 233.648438 279.066406 233.503906 278.878906 233.316406 C 278.691406 233.128906 278.546875 232.914062 278.441406 232.667969 C 278.339844 232.421875 278.289062 232.164062 278.289062 231.898438 C 278.289062 231.632812 278.339844 231.378906 278.441406 231.132812 C 278.546875 230.886719 278.691406 230.671875 278.878906 230.484375 C 279.066406 230.296875 279.28125 230.152344 279.527344 230.046875 C 279.773438 229.945312 280.027344 229.894531 280.292969 229.894531 C 280.558594 229.894531 280.816406 229.945312 281.0625 230.046875 C 281.308594 230.152344 281.523438 230.296875 281.710938 230.484375 C 281.898438 230.671875 282.042969 230.886719 282.144531 231.132812 C 282.246094 231.378906 282.296875 231.632812 282.296875 231.898438 Z M 282.296875 231.898438 " fill-opacity="1" fill-rule="nonzero"/><path fill="#5e9af4" d="M 291.914062 231.898438 C 291.914062 232.164062 291.863281 232.421875 291.761719 232.667969 C 291.660156 232.914062 291.515625 233.128906 291.328125 233.316406 C 291.140625 233.503906 290.925781 233.648438 290.679688 233.75 C 290.433594 233.851562 290.175781 233.902344 289.910156 233.902344 C 289.644531 233.902344 289.390625 233.851562 289.144531 233.75 C 288.898438 233.648438 288.683594 233.503906 288.496094 233.316406 C 288.308594 233.128906 288.164062 232.914062 288.0625 232.667969 C 287.957031 232.421875 287.90625 232.164062 287.90625 231.898438 C 287.90625 231.632812 287.957031 231.378906 288.0625 231.132812 C 288.164062 230.886719 288.308594 230.671875 288.496094 230.484375 C 288.683594 230.296875 288.898438 230.152344 289.144531 230.046875 C 289.390625 229.945312 289.644531 229.894531 289.910156 229.894531 C 290.175781 229.894531 290.433594 229.945312 290.679688 230.046875 C 290.925781 230.152344 291.140625 230.296875 291.328125 230.484375 C 291.515625 230.671875 291.660156 230.886719 291.761719 231.132812 C 291.863281 231.378906 291.914062 231.632812 291.914062 231.898438 Z M 291.914062 231.898438 " fill-opacity="1" fill-rule="nonzero"/><path fill="#5e9af4" d="M 301.535156 231.898438 C 301.535156 232.164062 301.484375 232.421875 301.382812 232.667969 C 301.28125 232.914062 301.136719 233.128906 300.945312 233.316406 C 300.757812 233.503906 300.542969 233.648438 300.296875 233.75 C 300.050781 233.851562 299.796875 233.902344 299.53125 233.902344 C 299.265625 233.902344 299.007812 233.851562 298.761719 233.75 C 298.519531 233.648438 298.300781 233.503906 298.113281 233.316406 C 297.925781 233.128906 297.78125 232.914062 297.679688 232.667969 C 297.578125 232.421875 297.527344 232.164062 297.527344 231.898438 C 297.527344 231.632812 297.578125 231.378906 297.679688 231.132812 C 297.78125 230.886719 297.925781 230.671875 298.113281 230.484375 C 298.300781 230.296875 298.519531 230.152344 298.761719 230.046875 C 299.007812 229.945312 299.265625 229.894531 299.53125 229.894531 C 299.796875 229.894531 300.050781 229.945312 300.296875 230.046875 C 300.542969 230.152344 300.757812 230.296875 300.945312 230.484375 C 301.136719 230.671875 301.28125 230.886719 301.382812 231.132812 C 301.484375 231.378906 301.535156 231.632812 301.535156 231.898438 Z M 301.535156 231.898438 " fill-opacity="1" fill-rule="nonzero"/><path fill="#5e9af4" d="M 263.058594 202.246094 C 263.058594 202.511719 263.007812 202.765625 262.90625 203.011719 C 262.804688 203.257812 262.660156 203.472656 262.472656 203.664062 C 262.285156 203.851562 262.070312 203.996094 261.824219 204.097656 C 261.578125 204.199219 261.320312 204.25 261.054688 204.25 C 260.789062 204.25 260.535156 204.199219 260.289062 204.097656 C 260.042969 203.996094 259.828125 203.851562 259.640625 203.664062 C 259.453125 203.472656 259.308594 203.257812 259.203125 203.011719 C 259.101562 202.765625 259.050781 202.511719 259.050781 202.246094 C 259.050781 201.980469 259.101562 201.722656 259.207031 201.480469 C 259.308594 201.234375 259.453125 201.015625 259.640625 200.828125 C 259.828125 200.640625 260.042969 200.496094 260.289062 200.394531 C 260.535156 200.292969 260.789062 200.242188 261.054688 200.242188 C 261.320312 200.242188 261.578125 200.292969 261.824219 200.394531 C 262.070312 200.496094 262.285156 200.640625 262.472656 200.828125 C 262.660156 201.015625 262.804688 201.234375 262.90625 201.480469 C 263.007812 201.722656 263.058594 201.980469 263.058594 202.246094 Z M 263.058594 202.246094 " fill-opacity="1" fill-rule="nonzero"/><path fill="#5e9af4" d="M 272.679688 202.246094 C 272.679688 202.511719 272.628906 202.765625 272.527344 203.011719 C 272.425781 203.257812 272.28125 203.472656 272.089844 203.664062 C 271.902344 203.851562 271.6875 203.996094 271.441406 204.097656 C 271.195312 204.199219 270.941406 204.25 270.675781 204.25 C 270.410156 204.25 270.152344 204.199219 269.90625 204.097656 C 269.664062 203.996094 269.445312 203.851562 269.257812 203.664062 C 269.070312 203.472656 268.925781 203.257812 268.824219 203.011719 C 268.722656 202.765625 268.671875 202.511719 268.671875 202.246094 C 268.671875 201.980469 268.722656 201.722656 268.824219 201.480469 C 268.925781 201.234375 269.070312 201.015625 269.257812 200.828125 C 269.445312 200.640625 269.664062 200.496094 269.90625 200.394531 C 270.152344 200.292969 270.410156 200.242188 270.675781 200.242188 C 270.941406 200.242188 271.195312 200.292969 271.441406 200.394531 C 271.6875 200.496094 271.902344 200.640625 272.089844 200.828125 C 272.28125 201.015625 272.425781 201.234375 272.527344 201.480469 C 272.628906 201.722656 272.679688 201.980469 272.679688 202.246094 Z M 272.679688 202.246094 " fill-opacity="1" fill-rule="nonzero"/><path fill="#5e9af4" d="M 282.296875 202.246094 C 282.296875 202.511719 282.246094 202.765625 282.144531 203.011719 C 282.042969 203.257812 281.898438 203.472656 281.707031 203.664062 C 281.519531 203.851562 281.304688 203.996094 281.058594 204.097656 C 280.8125 204.199219 280.558594 204.25 280.292969 204.25 C 280.027344 204.25 279.769531 204.199219 279.523438 204.097656 C 279.28125 203.996094 279.0625 203.851562 278.875 203.664062 C 278.6875 203.472656 278.542969 203.257812 278.441406 203.011719 C 278.339844 202.765625 278.289062 202.511719 278.289062 202.246094 C 278.289062 201.980469 278.339844 201.722656 278.441406 201.480469 C 278.542969 201.234375 278.6875 201.015625 278.875 200.828125 C 279.0625 200.640625 279.28125 200.496094 279.523438 200.394531 C 279.769531 200.292969 280.027344 200.242188 280.292969 200.242188 C 280.558594 200.242188 280.8125 200.292969 281.058594 200.394531 C 281.304688 200.496094 281.519531 200.640625 281.707031 200.828125 C 281.898438 201.015625 282.042969 201.234375 282.144531 201.480469 C 282.246094 201.722656 282.296875 201.980469 282.296875 202.246094 Z M 282.296875 202.246094 " fill-opacity="1" fill-rule="nonzero"/><path fill="#5e9af4" d="M 291.914062 202.246094 C 291.914062 202.511719 291.863281 202.765625 291.761719 203.011719 C 291.660156 203.257812 291.515625 203.472656 291.328125 203.664062 C 291.140625 203.851562 290.921875 203.996094 290.675781 204.097656 C 290.433594 204.199219 290.175781 204.25 289.910156 204.25 C 289.644531 204.25 289.390625 204.199219 289.144531 204.097656 C 288.898438 203.996094 288.679688 203.851562 288.492188 203.664062 C 288.304688 203.472656 288.160156 203.257812 288.058594 203.011719 C 287.957031 202.765625 287.90625 202.511719 287.90625 202.246094 C 287.90625 201.980469 287.957031 201.722656 288.058594 201.480469 C 288.160156 201.234375 288.304688 201.015625 288.492188 200.828125 C 288.679688 200.640625 288.898438 200.496094 289.144531 200.394531 C 289.390625 200.292969 289.644531 200.242188 289.910156 200.242188 C 290.175781 200.242188 290.433594 200.292969 290.675781 200.394531 C 290.921875 200.496094 291.140625 200.640625 291.328125 200.828125 C 291.515625 201.015625 291.660156 201.234375 291.761719 201.480469 C 291.863281 201.722656 291.914062 201.980469 291.914062 202.246094 Z M 291.914062 202.246094 " fill-opacity="1" fill-rule="nonzero"/><path fill="#5e9af4" d="M 301.53125 202.246094 C 301.53125 202.511719 301.480469 202.765625 301.378906 203.011719 C 301.277344 203.257812 301.132812 203.472656 300.945312 203.664062 C 300.757812 203.851562 300.539062 203.996094 300.292969 204.097656 C 300.050781 204.199219 299.792969 204.25 299.527344 204.25 C 299.261719 204.25 299.007812 204.199219 298.761719 204.097656 C 298.515625 203.996094 298.300781 203.851562 298.109375 203.664062 C 297.921875 203.472656 297.777344 203.257812 297.675781 203.011719 C 297.574219 202.765625 297.523438 202.511719 297.523438 202.246094 C 297.523438 201.980469 297.574219 201.722656 297.675781 201.480469 C 297.777344 201.234375 297.921875 201.015625 298.109375 200.828125 C 298.300781 200.640625 298.515625 200.496094 298.761719 200.394531 C 299.007812 200.292969 299.261719 200.242188 299.527344 200.242188 C 299.792969 200.242188 300.050781 200.292969 300.292969 200.394531 C 300.539062 200.496094 300.757812 200.640625 300.945312 200.828125 C 301.132812 201.015625 301.277344 201.234375 301.378906 201.480469 C 301.480469 201.722656 301.53125 201.980469 301.53125 202.246094 Z M 301.53125 202.246094 " fill-opacity="1" fill-rule="nonzero"/><path fill="#5e9af4" d="M 311.148438 202.246094 C 311.148438 202.511719 311.097656 202.765625 310.996094 203.011719 C 310.894531 203.257812 310.75 203.472656 310.5625 203.664062 C 310.375 203.851562 310.160156 203.996094 309.914062 204.097656 C 309.667969 204.199219 309.414062 204.25 309.144531 204.25 C 308.878906 204.25 308.625 204.199219 308.378906 204.097656 C 308.132812 203.996094 307.917969 203.851562 307.730469 203.664062 C 307.542969 203.472656 307.398438 203.257812 307.296875 203.011719 C 307.195312 202.765625 307.144531 202.511719 307.144531 202.246094 C 307.144531 201.980469 307.195312 201.722656 307.296875 201.480469 C 307.398438 201.234375 307.542969 201.015625 307.730469 200.828125 C 307.917969 200.640625 308.132812 200.496094 308.378906 200.394531 C 308.625 200.292969 308.878906 200.242188 309.144531 200.242188 C 309.414062 200.242188 309.667969 200.292969 309.914062 200.394531 C 310.160156 200.496094 310.375 200.640625 310.5625 200.828125 C 310.75 201.015625 310.894531 201.234375 310.996094 201.480469 C 311.097656 201.722656 311.148438 201.980469 311.148438 202.246094 Z M 311.148438 202.246094 " fill-opacity="1" fill-rule="nonzero"/><path fill="#5e9af4" d="M 311.152344 231.898438 C 311.152344 232.164062 311.101562 232.421875 311 232.667969 C 310.898438 232.914062 310.753906 233.128906 310.5625 233.316406 C 310.375 233.503906 310.160156 233.648438 309.914062 233.75 C 309.667969 233.851562 309.414062 233.902344 309.148438 233.902344 C 308.882812 233.902344 308.625 233.851562 308.378906 233.75 C 308.136719 233.648438 307.917969 233.503906 307.730469 233.316406 C 307.542969 233.128906 307.398438 232.914062 307.296875 232.667969 C 307.195312 232.421875 307.144531 232.164062 307.144531 231.898438 C 307.144531 231.632812 307.195312 231.378906 307.296875 231.132812 C 307.398438 230.886719 307.542969 230.671875 307.730469 230.484375 C 307.917969 230.296875 308.136719 230.152344 308.378906 230.046875 C 308.625 229.945312 308.882812 229.894531 309.148438 229.894531 C 309.414062 229.894531 309.667969 229.945312 309.914062 230.046875 C 310.160156 230.152344 310.375 230.296875 310.5625 230.484375 C 310.753906 230.671875 310.898438 230.886719 311 231.132812 C 311.101562 231.378906 311.152344 231.632812 311.152344 231.898438 Z M 311.152344 231.898438 " fill-opacity="1" fill-rule="nonzero"/><path fill="#efcb96" d="M 84.863281 190.792969 L 83.199219 200.765625 C 83.753906 202.980469 86.445312 207.410156 92.765625 207.410156 C 99.089844 207.410156 101.226562 203.535156 101.503906 201.59375 L 99.421875 193.703125 C 105.246094 192.457031 104.832031 179.992188 102.75 174.175781 C 100.671875 167.117188 89.859375 165.039062 83.199219 173.347656 C 78.207031 180.410156 81.953125 188.441406 84.863281 190.792969 Z M 84.863281 190.792969 " fill-opacity="1" fill-rule="nonzero"/><path fill="#032068" d="M 86.117188 188.71875 L 84.386719 194.238281 C 84.242188 194.707031 83.617188 194.796875 83.332031 194.398438 C 70.253906 176.175781 75.796875 169.171875 80.292969 167.945312 C 81.957031 164.621094 86.949219 161.714844 95.265625 160.46875 C 103.585938 159.222656 107.328125 165.039062 106.496094 171.269531 C 105.832031 176.253906 96.792969 176.394531 92.355469 175.839844 C 92.355469 177.5 89.859375 186.226562 89.027344 185.394531 C 88.195312 184.5625 86.117188 179.578125 84.453125 182.484375 C 83.121094 184.8125 85.007812 187.609375 86.117188 188.71875 Z M 86.117188 188.71875 " fill-opacity="1" fill-rule="nonzero"/><path fill="#032068" d="M 92.769531 193.703125 C 96.429688 194.367188 98.730469 193.980469 99.425781 193.703125 L 100.257812 196.609375 C 96.261719 196.941406 93.601562 194.808594 92.769531 193.703125 Z M 92.769531 193.703125 " fill-opacity="1" fill-rule="nonzero"/><path fill="#5e9af4" d="M 92.769531 204.917969 C 99.09375 204.917969 101.503906 201.59375 102.335938 199.933594 C 106.914062 199.933594 125.628906 204.085938 132.703125 218.210938 C 139.773438 232.335938 141.851562 263.90625 142.683594 268.890625 C 143.351562 272.878906 151.558594 294.648438 155.578125 305.035156 L 43.269531 305.035156 C 37.613281 305.035156 42.578125 274.015625 45.765625 258.507812 C 44.242188 252.136719 42.355469 235.992188 47.015625 222.367188 C 51.671875 208.738281 72.804688 201.734375 82.785156 199.933594 C 83.203125 201.59375 86.445312 204.917969 92.769531 204.917969 Z M 92.769531 204.917969 " fill-opacity="1" fill-rule="nonzero"/><path fill="#032068" d="M 79.042969 263.492188 L 75.714844 246.875 L 83.203125 262.246094 C 96.097656 261 107.191406 260.03125 110.65625 260.167969 C 107.660156 260.167969 83.617188 265.707031 71.972656 268.476562 Z M 79.042969 263.492188 " fill-opacity="1" fill-rule="nonzero"/><path fill="#032068" d="M 120.847656 211.929688 C 120.851562 211.601562 121.121094 211.335938 121.449219 211.339844 L 126.695312 211.398438 C 127.023438 211.402344 127.289062 211.671875 127.285156 212 L 127.257812 214.484375 C 127.253906 214.8125 127.515625 215.082031 127.847656 215.085938 L 135.847656 215.175781 C 136.179688 215.179688 136.441406 215.449219 136.4375 215.777344 L 136.390625 220.097656 C 136.386719 220.425781 136.117188 220.691406 135.785156 220.6875 L 127.785156 220.597656 C 127.457031 220.59375 127.1875 220.859375 127.183594 221.1875 L 127.152344 223.667969 C 127.148438 223.996094 127.414062 224.269531 127.746094 224.273438 L 132.070312 224.320312 C 132.398438 224.324219 132.664062 224.59375 132.660156 224.921875 L 132.609375 229.242188 C 132.605469 229.570312 132.335938 229.835938 132.007812 229.832031 L 127.683594 229.78125 C 127.351562 229.777344 127.082031 230.042969 127.078125 230.371094 L 126.25 304.496094 C 126.25 304.828125 125.976562 305.089844 125.648438 305.085938 L 120.40625 305.027344 C 120.074219 305.023438 119.808594 304.753906 119.8125 304.425781 Z M 120.847656 211.929688 " fill-opacity="1" fill-rule="evenodd"/><path fill="#032068" d="M 45.765625 258.507812 C 47.429688 272.214844 56.582031 291.160156 66.5625 295.480469 C 79.828125 300.542969 106.269531 285.507812 114.304688 279.167969 C 114.773438 278.777344 115.21875 278.398438 115.648438 278.03125 C 115.285156 278.367188 114.835938 278.746094 114.304688 279.167969 C 104.097656 287.6875 84.082031 301.960938 66.980469 298.386719 C 53.253906 295.0625 45.488281 275.261719 44.515625 264.738281 Z M 45.765625 258.507812 " fill-opacity="1" fill-rule="nonzero"/><path fill="#032068" d="M 79.457031 296.308594 C 71.140625 288.667969 60.464844 287.863281 56.164062 288.417969 C 57.414062 290.214844 61.15625 294.316406 66.148438 296.308594 C 71.140625 298.304688 77.101562 297.140625 79.457031 296.308594 Z M 79.457031 296.308594 " fill-opacity="1" fill-rule="nonzero"/><path fill="#efcb96" d="M 115.433594 259.292969 C 115.433594 260.554688 113.359375 262.441406 112.320312 263.230469 L 114.265625 273.460938 C 114.785156 273.199219 117.148438 272.125 119.328125 271.492188 C 122.054688 270.707031 127.507812 270.707031 129.84375 268.34375 C 132.179688 265.984375 131.792969 256.539062 129.84375 254.570312 C 128.285156 252.996094 122.964844 255.75 120.496094 257.324219 L 120.496094 251.027344 C 116.605469 252.605469 115.433594 257.71875 115.433594 259.292969 Z M 115.433594 259.292969 " fill-opacity="1" fill-rule="nonzero"/><path fill="#032068" d="M 130.621094 231.921875 C 131.621094 242.554688 133.8125 285.09375 134.78125 305.035156 L 137.691406 305.035156 Z M 130.621094 231.921875 " fill-opacity="1" fill-rule="nonzero"/></svg>