<svg xmlns="http://www.w3.org/2000/svg" xmlns:xlink="http://www.w3.org/1999/xlink" width="500" zoomAndPan="magnify" viewBox="0 0 375 374.999991" height="500" preserveAspectRatio="xMidYMid meet" version="1.0"><defs><clipPath id="823bb7a679"><path d="M 225 66.5625 L 243 66.5625 L 243 84 L 225 84 Z M 225 66.5625 " clip-rule="nonzero"/></clipPath><clipPath id="c684555cda"><path d="M 134 192 L 271 192 L 271 308.8125 L 134 308.8125 Z M 134 192 " clip-rule="nonzero"/></clipPath><clipPath id="e72e59f676"><path d="M 37.5 194 L 175 194 L 175 308 L 37.5 308 Z M 37.5 194 " clip-rule="nonzero"/></clipPath></defs><path fill="#e7e8ff" d="M 302.722656 229.367188 C 314.050781 246.382812 317.261719 261.84375 316.417969 274.625 C 314.894531 297.726562 289.6875 307.296875 266.457031 307.296875 L 111.179688 307.296875 C 98.121094 307.296875 86.636719 297.453125 81.695312 285.410156 C 70.710938 258.636719 51.226562 224.507812 63.894531 191.847656 C 80.367188 149.378906 104.660156 157.210938 135.542969 120.515625 C 166.425781 83.820312 203.898438 82.996094 249.605469 112.683594 C 295.308594 142.367188 271.429688 182.363281 302.722656 229.367188 Z M 302.722656 229.367188 " fill-opacity="1" fill-rule="nonzero"/><path fill="#032068" d="M 327.84375 272.398438 C 328.058594 288.523438 317.0625 302.136719 311.476562 306.90625 L 302.917969 306.90625 C 309.277344 285.390625 319.800781 274.695312 325.695312 271.132812 C 326.675781 270.542969 327.832031 271.253906 327.84375 272.398438 Z M 327.84375 272.398438 " fill-opacity="1" fill-rule="nonzero"/><path fill="#ffffff" d="M 328.75 219.496094 C 337.519531 252.464844 315.417969 291.511719 305.910156 306.050781 L 286.652344 306.050781 C 294.925781 243.839844 308.792969 228.722656 326.328125 218.507812 C 327.269531 217.957031 328.46875 218.441406 328.75 219.496094 Z M 328.75 219.496094 " fill-opacity="1" fill-rule="nonzero"/><path fill="#032068" d="M 326.757812 219.246094 C 327.222656 218.976562 327.789062 219.21875 327.921875 219.714844 C 332.242188 235.957031 328.96875 253.765625 323.378906 269.394531 C 317.890625 284.738281 310.203125 297.875 305.449219 305.191406 L 287.632812 305.191406 C 291.75 274.695312 297.222656 255.746094 303.777344 243.175781 C 310.378906 230.519531 318.097656 224.292969 326.757812 219.246094 Z M 329.578125 219.273438 C 329.148438 217.664062 327.316406 216.941406 325.898438 217.765625 C 317.027344 222.9375 309.042969 229.378906 302.257812 242.386719 C 295.496094 255.347656 289.945312 274.796875 285.804688 305.9375 L 285.675781 306.90625 L 306.375 306.90625 L 306.628906 306.515625 C 311.402344 299.21875 319.339844 285.757812 324.988281 269.972656 C 330.632812 254.203125 334.027344 236.003906 329.578125 219.273438 Z M 329.578125 219.273438 " fill-opacity="1" fill-rule="evenodd"/><path fill="#032068" d="M 297.699219 239.777344 C 305.273438 267.410156 296.601562 296.121094 290.933594 306.90625 L 276.8125 306.90625 C 273.632812 273.230469 286.546875 248.746094 295.035156 239.117188 C 295.871094 238.167969 297.363281 238.558594 297.699219 239.777344 Z M 297.699219 239.777344 " fill-opacity="1" fill-rule="nonzero"/><path fill="#032068" d="M 316.761719 242.957031 L 321.371094 230.011719 L 322.980469 230.585938 L 312.429688 260.234375 L 319.359375 258.152344 L 319.855469 259.792969 L 311.714844 262.234375 L 302.117188 289.199219 L 310.757812 285.988281 L 311.351562 287.59375 L 301.371094 291.304688 L 296.019531 306.335938 L 294.40625 305.761719 L 305.273438 275.234375 L 301.253906 263.96875 L 302.867188 263.394531 L 306.179688 272.683594 L 315.789062 245.683594 L 312.796875 235.679688 L 314.433594 235.1875 Z M 316.761719 242.957031 " fill-opacity="1" fill-rule="evenodd"/><path fill="#ffffff" d="M 290.476562 261.839844 L 292.660156 249.832031 L 294.34375 250.136719 L 289.910156 274.515625 L 295.667969 271.480469 L 296.46875 272.996094 L 289.519531 276.65625 L 285.71875 297.5625 L 290.480469 293.820312 L 291.539062 295.167969 L 285.257812 300.101562 L 284.070312 306.628906 L 282.386719 306.324219 L 285.433594 289.578125 L 280.410156 283.03125 L 281.769531 281.988281 L 285.84375 287.304688 L 290.09375 263.949219 L 286.023438 259.554688 L 287.28125 258.390625 Z M 290.476562 261.839844 " fill-opacity="1" fill-rule="evenodd"/><g clip-path="url(#823bb7a679)"><path fill="#5e9af4" d="M 232.261719 72.175781 L 233.203125 67.601562 C 233.375 66.785156 234.488281 66.664062 234.824219 67.425781 L 236.679688 71.59375 C 236.789062 71.847656 237.015625 72.03125 237.289062 72.085938 L 242.179688 73.09375 C 242.964844 73.257812 243.117188 74.316406 242.402344 74.691406 L 237.933594 77.035156 C 237.714844 77.148438 237.558594 77.351562 237.5 77.589844 L 236.175781 82.972656 C 235.980469 83.773438 234.878906 83.863281 234.558594 83.101562 L 232.53125 78.316406 C 232.433594 78.082031 232.234375 77.90625 231.992188 77.832031 L 226.582031 76.175781 C 225.789062 75.933594 225.773438 74.8125 226.5625 74.546875 L 231.695312 72.816406 C 231.984375 72.71875 232.199219 72.476562 232.261719 72.175781 Z M 232.261719 72.175781 " fill-opacity="1" fill-rule="nonzero"/></g><path fill="#5e9af4" d="M 278.296875 106.910156 L 279.207031 105.707031 C 279.707031 105.042969 280.765625 105.414062 280.746094 106.246094 L 280.707031 107.710938 C 280.699219 107.984375 280.828125 108.246094 281.046875 108.414062 L 282.507812 109.519531 C 283.148438 110.003906 282.828125 111.023438 282.023438 111.054688 L 280.140625 111.128906 C 279.894531 111.136719 279.667969 111.253906 279.511719 111.441406 L 278.179688 113.074219 C 277.65625 113.710938 276.625 113.320312 276.660156 112.496094 L 276.742188 110.601562 C 276.753906 110.347656 276.652344 110.105469 276.464844 109.933594 L 274.890625 108.492188 C 274.277344 107.933594 274.746094 106.914062 275.570312 107.011719 L 277.511719 107.242188 C 277.816406 107.28125 278.113281 107.152344 278.296875 106.910156 Z M 278.296875 106.910156 " fill-opacity="1" fill-rule="nonzero"/><path fill="#ffffff" d="M 136.753906 158.15625 L 134.492188 161.117188 C 134.355469 161.296875 134.132812 161.382812 133.914062 161.339844 L 131.121094 160.804688 C 130.519531 160.691406 130.15625 161.464844 130.621094 161.871094 L 132.816406 163.800781 C 132.976562 163.941406 133.050781 164.15625 133.015625 164.371094 L 132.464844 167.550781 C 132.359375 168.148438 133.078125 168.519531 133.488281 168.078125 L 135.742188 165.632812 C 135.875 165.492188 136.066406 165.421875 136.257812 165.449219 L 138.863281 165.8125 C 139.453125 165.894531 139.785156 165.144531 139.339844 164.742188 L 137.398438 163.011719 C 137.242188 162.871094 137.167969 162.660156 137.203125 162.453125 L 137.8125 158.628906 C 137.914062 158.003906 137.132812 157.65625 136.753906 158.15625 Z M 136.753906 158.15625 " fill-opacity="1" fill-rule="nonzero"/><path fill="#032068" d="M 202.277344 114.707031 C 175.265625 114.707031 153.371094 136.570312 153.371094 163.539062 L 153.371094 201.128906 C 153.371094 202.800781 154.726562 204.15625 156.40625 204.15625 L 164.960938 204.15625 C 166.636719 204.15625 167.996094 202.800781 167.996094 201.128906 L 167.996094 162.628906 C 167.996094 143.722656 183.34375 128.398438 202.277344 128.398438 C 221.210938 128.398438 236.558594 143.722656 236.558594 162.628906 L 236.558594 197.726562 C 236.558594 199.402344 237.917969 200.757812 239.59375 200.757812 L 248.152344 200.757812 C 249.828125 200.757812 251.1875 199.402344 251.1875 197.726562 L 251.1875 163.539062 C 251.1875 136.570312 229.289062 114.707031 202.277344 114.707031 Z M 202.277344 114.707031 " fill-opacity="1" fill-rule="evenodd"/><path fill="#ffffff" d="M 135.085938 196.234375 C 135.085938 194.5625 136.445312 193.203125 138.121094 193.203125 L 266.433594 193.203125 C 268.109375 193.203125 269.46875 194.5625 269.46875 196.234375 L 269.46875 304.265625 C 269.46875 305.941406 268.109375 307.296875 266.433594 307.296875 L 138.121094 307.296875 C 136.445312 307.296875 135.085938 305.941406 135.085938 304.265625 Z M 135.085938 196.234375 " fill-opacity="1" fill-rule="nonzero"/><g clip-path="url(#c684555cda)"><path fill="#032068" d="M 134.074219 196.234375 C 134.074219 194.003906 135.886719 192.195312 138.121094 192.195312 L 266.433594 192.195312 C 268.667969 192.195312 270.480469 194.003906 270.480469 196.234375 L 270.480469 304.265625 C 270.480469 306.5 268.667969 308.308594 266.433594 308.308594 L 138.121094 308.308594 C 135.886719 308.308594 134.074219 306.5 134.074219 304.265625 Z M 138.121094 194.214844 C 137.003906 194.214844 136.097656 195.121094 136.097656 196.234375 L 136.097656 304.265625 C 136.097656 305.382812 137.003906 306.289062 138.121094 306.289062 L 266.433594 306.289062 C 267.550781 306.289062 268.457031 305.382812 268.457031 304.265625 L 268.457031 196.234375 C 268.457031 195.121094 267.550781 194.214844 266.433594 194.214844 Z M 138.121094 194.214844 " fill-opacity="1" fill-rule="evenodd"/></g><path fill="#5e9af4" d="M 210.007812 253.464844 C 212.820312 251.207031 214.617188 247.746094 214.617188 243.863281 C 214.617188 237.054688 209.09375 231.539062 202.277344 231.539062 C 195.460938 231.539062 189.933594 237.054688 189.933594 243.863281 C 189.933594 248.089844 192.070312 251.824219 195.320312 254.042969 L 192.566406 265.589844 C 192.15625 267.308594 193.464844 268.960938 195.234375 268.960938 L 210.230469 268.960938 C 212.003906 268.960938 213.308594 267.308594 212.898438 265.589844 Z M 210.007812 253.464844 " fill-opacity="1" fill-rule="evenodd"/><path fill="#ffffff" d="M 328.53125 161.359375 C 328.53125 177.667969 315.308594 190.886719 299 190.886719 C 293.367188 190.886719 288.101562 189.3125 283.625 186.574219 L 275.140625 189.585938 C 273.539062 190.152344 271.9375 188.738281 272.304688 187.078125 L 274.378906 177.667969 C 271.277344 172.996094 269.46875 167.386719 269.46875 161.359375 C 269.46875 145.050781 282.691406 131.828125 299 131.828125 C 315.308594 131.828125 328.53125 145.050781 328.53125 161.359375 Z M 328.53125 161.359375 " fill-opacity="1" fill-rule="nonzero"/><path fill="#032068" d="M 299 132.550781 C 314.910156 132.550781 327.808594 145.449219 327.808594 161.359375 C 327.808594 177.269531 314.910156 190.167969 299 190.167969 C 293.503906 190.167969 288.371094 188.628906 284 185.960938 L 283.707031 185.78125 L 274.898438 188.90625 C 273.832031 189.285156 272.761719 188.339844 273.007812 187.234375 L 275.148438 177.523438 L 274.980469 177.269531 C 271.953125 172.710938 270.191406 167.242188 270.191406 161.359375 C 270.191406 145.449219 283.089844 132.550781 299 132.550781 Z M 329.25 161.359375 C 329.25 144.652344 315.707031 131.105469 299 131.105469 C 282.292969 131.105469 268.75 144.652344 268.75 161.359375 C 268.75 167.425781 270.535156 173.074219 273.609375 177.8125 L 271.597656 186.921875 C 271.109375 189.136719 273.246094 191.019531 275.378906 190.265625 L 283.542969 187.367188 C 288.066406 190.0625 293.355469 191.609375 299 191.609375 C 315.707031 191.609375 329.25 178.066406 329.25 161.359375 Z M 329.25 161.359375 " fill-opacity="1" fill-rule="evenodd"/><path fill="#5e9af4" d="M 317.414062 154.972656 L 293.457031 175.601562 L 281.851562 159.644531 L 287.53125 155.515625 L 294.652344 165.304688 L 312.832031 149.652344 Z M 317.414062 154.972656 " fill-opacity="1" fill-rule="evenodd"/><path fill="#5e9af4" d="M 112.855469 129.058594 L 112.855469 135.289062 C 112.855469 136.742188 111.085938 137.503906 109.988281 136.519531 L 93.699219 121.933594 C 92.960938 121.269531 92.960938 120.132812 93.699219 119.46875 L 109.988281 104.878906 C 111.085938 103.898438 112.855469 104.660156 112.855469 106.113281 L 112.855469 112.34375 L 150.492188 112.34375 L 150.492188 129.058594 Z M 112.855469 129.058594 " fill-opacity="1" fill-rule="evenodd"/><path fill="#efcb96" d="M 91.917969 189.042969 L 89.929688 196.71875 C 88.9375 200.554688 92.132812 205.035156 100.839844 204.917969 C 107.804688 204.824219 108.765625 198.320312 108.371094 195.078125 L 106.515625 186.410156 C 108.234375 184.652344 109.613281 183.589844 109.503906 175.246094 C 109.363281 164.816406 103.738281 161.066406 97.121094 161.15625 C 90.503906 161.246094 85.003906 166.875 85.136719 176.964844 C 85.253906 185.652344 89.933594 188.371094 91.917969 189.042969 Z M 91.917969 189.042969 " fill-opacity="1" fill-rule="nonzero"/><path fill="#032068" d="M 71.164062 203.871094 C 68.546875 197.125 69.480469 187.136719 74.703125 181.472656 C 81.238281 174.390625 74.140625 165.394531 82.085938 159.695312 C 84.847656 157.417969 87.167969 157.0625 87.980469 157.167969 C 89.21875 154.121094 93.8125 149.746094 98.714844 151.429688 C 101.523438 152.789062 102.957031 155.566406 105.40625 156.234375 C 107.855469 156.902344 111.722656 157.324219 113.835938 160.667969 C 116.683594 165.175781 112.894531 168.722656 115.777344 175.675781 C 118.660156 182.632812 127.417969 185.546875 126.519531 196.75 C 123.6875 195.636719 116.40625 194.621094 109.914062 194.664062 C 109.796875 195.398438 108.96875 196.609375 108.570312 197.125 L 108.078125 194.710938 C 108.085938 195.257812 104.679688 180.371094 104.679688 180.371094 C 104.679688 180.371094 108.695312 178.007812 108.089844 174.382812 C 107.332031 169.84375 104.199219 170.238281 102.511719 174.457031 C 102.167969 174.925781 101.125 175.3125 99.703125 173.09375 C 97.921875 170.320312 96.003906 163.347656 90.429688 163.773438 C 88.09375 165.488281 85.867188 168.46875 85.546875 176.054688 C 86 184.089844 88.289062 187.226562 92.027344 189.027344 L 90.839844 194.519531 L 89.867188 197.5 C 89.089844 196.601562 88.546875 195.347656 88.371094 194.835938 C 83.207031 195.882812 75.949219 199.398438 71.164062 203.871094 Z M 71.164062 203.871094 " fill-opacity="1" fill-rule="nonzero"/><path fill="#032068" d="M 99.582031 188.082031 C 96.664062 189.808594 92.734375 189.433594 92.027344 189.027344 L 90.820312 193.253906 C 95.3125 193.859375 98.675781 190.03125 99.582031 188.082031 Z M 99.582031 188.082031 " fill-opacity="1" fill-rule="nonzero"/><g clip-path="url(#e72e59f676)"><path fill="#5e9af4" d="M 98.847656 201.246094 C 105.429688 201.246094 108.945312 197.375 109.695312 194.875 C 120.167969 194.875 138.121094 197.5 147.46875 206.117188 C 160.796875 218.402344 175.519531 257.082031 174.398438 272.445312 C 173.5 284.738281 165.546875 300.800781 161.683594 307.296875 L 37.507812 307.296875 C 43.992188 292.933594 52.320312 263.378906 53.21875 260.082031 C 54.339844 255.957031 59.203125 225.980469 64.4375 213.238281 C 68.625 203.046875 81.640625 196 88.375 194.875 C 89.371094 197.375 92.265625 201.246094 98.847656 201.246094 Z M 98.847656 201.246094 " fill-opacity="1" fill-rule="nonzero"/></g><path fill="#032068" d="M 69.300781 226.730469 L 59.203125 307.296875 L 54.714844 307.296875 Z M 69.300781 226.730469 " fill-opacity="1" fill-rule="nonzero"/><path fill="#032068" d="M 143.355469 273.945312 C 143.355469 276.042969 138.121094 297.054688 135.503906 307.296875 L 131.386719 307.296875 L 141.113281 273.945312 C 139.316406 268.25 131.761719 250.710938 130.265625 241.71875 C 131.386719 248.464844 143.355469 271.324219 143.355469 273.945312 Z M 143.355469 273.945312 " fill-opacity="1" fill-rule="nonzero"/><path fill="#032068" d="M 170.65625 287.8125 C 166.167969 273.71875 169.785156 260.703125 172.152344 255.957031 C 173.027344 258.582031 174.695312 265.550781 174.398438 272.445312 C 174.097656 279.339844 171.78125 285.5625 170.65625 287.8125 Z M 170.65625 287.8125 " fill-opacity="1" fill-rule="nonzero"/></svg>