<svg xmlns="http://www.w3.org/2000/svg" xmlns:xlink="http://www.w3.org/1999/xlink" width="500" zoomAndPan="magnify" viewBox="0 0 375 374.999991" height="500" preserveAspectRatio="xMidYMid meet" version="1.0"><defs><clipPath id="3b72c586fa"><path d="M 37.5 83 L 335 83 L 335 326.90625 L 37.5 326.90625 Z M 37.5 83 " clip-rule="nonzero"/></clipPath><clipPath id="f16de7e721"><path d="M 304 292 L 329 292 L 329 326.289062 L 304 326.289062 Z M 304 292 " clip-rule="nonzero"/></clipPath><clipPath id="9f07326161"><path d="M 287 241 L 332 241 L 332 326.289062 L 287 326.289062 Z M 287 241 " clip-rule="nonzero"/></clipPath><clipPath id="995455879c"><path d="M 279 261 L 303 261 L 303 326.289062 L 279 326.289062 Z M 279 261 " clip-rule="nonzero"/></clipPath><clipPath id="077687f860"><path d="M 282 272 L 299 272 L 299 326.289062 L 282 326.289062 Z M 282 272 " clip-rule="nonzero"/></clipPath><clipPath id="1d664cbf40"><path d="M 37.5 274 L 78 274 L 78 326 L 37.5 326 Z M 37.5 274 " clip-rule="nonzero"/></clipPath><clipPath id="3fc3f260ec"><path d="M 42 235.058594 L 84.75 235.058594 L 84.75 326.558594 L 42 326.558594 Z M 42 235.058594 " clip-rule="nonzero"/></clipPath><clipPath id="1d68df788c"><path d="M 71 173 L 304 173 L 304 326.359375 L 71 326.359375 Z M 71 173 " clip-rule="nonzero"/></clipPath><clipPath id="6387dfca83"><path d="M 44.203125 121 L 99.703125 121 L 99.703125 176 L 44.203125 176 Z M 44.203125 121 " clip-rule="nonzero"/></clipPath><clipPath id="8233edb516"><path d="M 44.203125 120.859375 L 99.703125 120.859375 L 99.703125 176.359375 L 44.203125 176.359375 Z M 44.203125 120.859375 " clip-rule="nonzero"/></clipPath><clipPath id="bb993305d4"><path d="M 284 154 L 303 154 L 303 176.359375 L 284 176.359375 Z M 284 154 " clip-rule="nonzero"/></clipPath><clipPath id="ad8ed34764"><path d="M 160 49 L 215 49 L 215 103.96875 L 160 103.96875 Z M 160 49 " clip-rule="nonzero"/></clipPath><clipPath id="d9b51cdb6c"><path d="M 159.664062 48.46875 L 215.164062 48.46875 L 215.164062 103.96875 L 159.664062 103.96875 Z M 159.664062 48.46875 " clip-rule="nonzero"/></clipPath></defs><path fill="#e7e8ff" d="M 285.085938 130.371094 C 285.085938 135.664062 274.417969 134.953125 267.035156 132.871094 C 256.367188 130.371094 248.984375 125.371094 251.445312 114.535156 C 251.445312 105.785156 260.058594 107.234375 270.316406 111.203125 C 278.929688 114.535156 285.085938 125.078125 285.085938 130.371094 Z M 285.085938 130.371094 " fill-opacity="1" fill-rule="nonzero"/><g clip-path="url(#3b72c586fa)"><path fill="#e7e8ff" d="M 37.5 274.542969 C 37.5 286.101562 42.796875 297.382812 49.300781 306.71875 C 59.414062 321.226562 77.386719 326.734375 95.054688 326.734375 L 305.726562 326.734375 C 317.96875 326.734375 326.078125 309.417969 326.476562 297.164062 C 327.074219 278.945312 337.476562 258.3125 334.441406 227.660156 C 329.710938 179.890625 297.558594 165.296875 263.988281 147.160156 C 230.417969 129.027344 252.167969 102.488281 194.480469 86.566406 C 136.796875 70.644531 75.800781 123.277344 77.691406 172.371094 C 79.582031 221.464844 37.5 228.542969 37.5 274.542969 Z M 37.5 274.542969 " fill-opacity="1" fill-rule="nonzero"/></g><g clip-path="url(#f16de7e721)"><path fill="#032068" d="M 328.355469 293.515625 C 328.558594 308.84375 318.027344 321.78125 312.679688 326.3125 L 304.480469 326.3125 C 310.574219 305.867188 320.648438 295.699219 326.296875 292.316406 C 327.238281 291.75 328.34375 292.425781 328.355469 293.515625 Z M 328.355469 293.515625 " fill-opacity="1" fill-rule="nonzero"/></g><path fill="#ffffff" d="M 329.222656 243.234375 C 337.621094 274.570312 316.453125 311.683594 307.347656 325.5 L 288.902344 325.5 C 296.828125 266.375 310.109375 252.007812 326.902344 242.296875 C 327.804688 241.773438 328.953125 242.234375 329.222656 243.234375 Z M 329.222656 243.234375 " fill-opacity="1" fill-rule="nonzero"/><g clip-path="url(#9f07326161)"><path fill="#032068" d="M 327.316406 243 C 327.757812 242.742188 328.304688 242.972656 328.429688 243.445312 C 332.570312 258.882812 329.433594 275.808594 324.078125 290.664062 C 318.820312 305.242188 311.457031 317.730469 306.90625 324.6875 L 289.839844 324.6875 C 293.785156 295.699219 299.023438 277.691406 305.304688 265.742188 C 311.625 253.714844 319.019531 247.796875 327.316406 243 Z M 330.015625 243.027344 C 329.605469 241.496094 327.851562 240.808594 326.488281 241.59375 C 317.992188 246.507812 310.347656 252.628906 303.851562 264.992188 C 297.375 277.3125 292.058594 295.792969 288.089844 325.390625 L 287.96875 326.3125 L 307.792969 326.3125 L 308.035156 325.945312 C 312.605469 319.007812 320.210938 306.214844 325.621094 291.210938 C 331.027344 276.222656 334.277344 258.925781 330.015625 243.027344 Z M 330.015625 243.027344 " fill-opacity="1" fill-rule="evenodd"/></g><g clip-path="url(#995455879c)"><path fill="#032068" d="M 299.480469 262.515625 C 306.734375 288.773438 298.433594 316.0625 293.003906 326.3125 L 279.476562 326.3125 C 276.433594 294.308594 288.800781 271.035156 296.929688 261.886719 C 297.734375 260.984375 299.160156 261.351562 299.480469 262.515625 Z M 299.480469 262.515625 " fill-opacity="1" fill-rule="nonzero"/></g><path fill="#032068" d="M 317.742188 265.535156 L 322.152344 253.230469 L 323.699219 253.777344 L 313.589844 281.957031 L 320.230469 279.976562 L 320.703125 281.535156 L 312.910156 283.855469 L 303.714844 309.484375 L 311.988281 306.433594 L 312.5625 307.957031 L 303 311.484375 L 297.875 325.773438 L 296.328125 325.226562 L 306.738281 296.214844 L 302.886719 285.503906 L 304.433594 284.957031 L 307.605469 293.789062 L 316.8125 268.125 L 313.941406 258.617188 L 315.511719 258.152344 Z M 317.742188 265.535156 " fill-opacity="1" fill-rule="evenodd"/><g clip-path="url(#077687f860)"><path fill="#ffffff" d="M 292.5625 283.484375 L 294.65625 272.070312 L 296.269531 272.359375 L 292.023438 295.527344 L 297.539062 292.644531 L 298.304688 294.085938 L 291.652344 297.5625 L 288.011719 317.433594 L 292.570312 313.875 L 293.582031 315.15625 L 287.566406 319.847656 L 286.429688 326.050781 L 284.816406 325.761719 L 287.734375 309.84375 L 282.925781 303.621094 L 284.226562 302.632812 L 288.128906 307.683594 L 292.199219 285.484375 L 288.300781 281.308594 L 289.503906 280.203125 Z M 292.5625 283.484375 " fill-opacity="1" fill-rule="evenodd"/></g><g clip-path="url(#1d664cbf40)"><path fill="#032068" d="M 39.917969 274.664062 C 65.09375 287.210938 75.5625 313.980469 77.316406 325.984375 L 67.878906 325.984375 C 46.742188 311.199219 38.980469 288.15625 37.605469 276.257812 C 37.457031 274.96875 38.761719 274.085938 39.917969 274.664062 Z M 39.917969 274.664062 " fill-opacity="1" fill-rule="nonzero"/></g><path fill="#ffffff" d="M 46.691406 236.679688 C 74.957031 250.457031 83.257812 301.417969 83.851562 325.617188 L 71.148438 325.617188 C 41.816406 283.089844 40.917969 250.425781 44.457031 237.664062 C 44.726562 236.691406 45.789062 236.238281 46.691406 236.679688 Z M 46.691406 236.679688 " fill-opacity="1" fill-rule="nonzero"/><g clip-path="url(#3fc3f260ec)"><path fill="#032068" d="M 45.300781 237.898438 C 45.417969 237.484375 45.875 237.261719 46.308594 237.472656 C 60.109375 244.199219 69.152344 260.082031 74.816406 277.511719 C 80.328125 294.472656 82.570312 312.683594 82.949219 324.738281 L 71.605469 324.738281 C 42.636719 282.542969 41.863281 250.304688 45.300781 237.898438 Z M 47.074219 235.886719 C 45.703125 235.21875 44.035156 235.902344 43.613281 237.425781 C 39.984375 250.511719 40.996094 283.441406 70.425781 326.121094 L 70.6875 326.5 L 84.75 326.5 L 84.726562 325.597656 C 84.429688 313.429688 82.195312 294.550781 76.484375 276.96875 C 70.78125 259.425781 61.542969 242.941406 47.074219 235.886719 Z M 47.074219 235.886719 " fill-opacity="1" fill-rule="evenodd"/></g><path fill="#032068" d="M 48.183594 247.160156 L 59.820312 278.71875 L 53 275.589844 L 52.269531 277.191406 L 60.679688 281.050781 L 71.226562 309.664062 L 65.300781 307.296875 L 64.652344 308.933594 L 72.046875 311.886719 L 77.222656 325.925781 L 78.867188 325.3125 L 68.371094 296.84375 L 73.761719 284.773438 L 72.164062 284.054688 L 67.5 294.488281 L 56.113281 263.601562 L 58.917969 254.40625 L 57.242188 253.890625 L 55.109375 260.878906 L 49.828125 246.550781 Z M 48.183594 247.160156 " fill-opacity="1" fill-rule="evenodd"/><path fill="#efcb96" d="M 176.898438 164.683594 L 173.738281 176.804688 L 186.382812 187.871094 L 200.085938 179.4375 L 197.449219 167.320312 C 200.085938 166.265625 202.191406 160.46875 202.191406 154.144531 C 202.191406 141.5 199.558594 134.648438 191.125 133.066406 C 182.695312 131.484375 173.210938 135.175781 170.574219 147.820312 C 168.46875 157.9375 174.089844 163.980469 176.898438 164.683594 Z M 176.898438 164.683594 " fill-opacity="1" fill-rule="nonzero"/><path fill="#efcb96" d="M 86.855469 199.886719 C 88.746094 201.40625 91.113281 207.171875 92.058594 209.867188 C 88.429688 212.558594 80.890625 217.5625 79.753906 216.042969 C 78.332031 214.140625 76.441406 208.441406 74.546875 207.015625 C 72.652344 205.589844 59.402344 204.640625 57.507812 203.6875 C 55.613281 202.738281 55.613281 198.460938 58.925781 198.460938 C 62.242188 198.460938 84.488281 197.984375 86.855469 199.886719 Z M 86.855469 199.886719 " fill-opacity="1" fill-rule="nonzero"/><path fill="#efcb96" d="M 288.023438 199.886719 C 286.128906 201.40625 283.761719 207.171875 282.816406 209.867188 C 286.445312 212.558594 293.988281 217.5625 295.121094 216.042969 C 296.542969 214.140625 298.4375 208.441406 300.328125 207.015625 C 302.222656 205.589844 315.476562 204.640625 317.367188 203.6875 C 319.261719 202.738281 319.261719 198.460938 315.949219 198.460938 C 312.636719 198.460938 290.390625 197.984375 288.023438 199.886719 Z M 288.023438 199.886719 " fill-opacity="1" fill-rule="nonzero"/><g clip-path="url(#1d68df788c)"><path fill="#5e9af4" d="M 187.4375 182.601562 C 195.449219 182.601562 199.382812 176.628906 201.140625 173.640625 C 212.203125 176.277344 237.863281 184.917969 246.296875 198.410156 C 254.726562 211.898438 259.644531 229.324219 261.050781 236.347656 C 266.144531 227.566406 277.070312 209.578125 280.019531 207.894531 C 283.707031 205.785156 300.730469 213.691406 302.839844 218.433594 C 304.949219 223.175781 289.503906 284.828125 277.914062 295.894531 C 268.636719 304.746094 254.375 296.421875 248.402344 291.152344 C 249.984375 302.921875 251.566406 326.457031 245.242188 326.457031 L 130 326.457031 C 123.679688 326.457031 125.257812 302.921875 126.839844 291.152344 C 120.867188 296.421875 106.605469 304.746094 97.332031 295.894531 C 85.738281 284.828125 69.929688 223.175781 72.035156 218.433594 C 74.144531 213.691406 91.535156 205.785156 95.222656 207.894531 C 98.171875 209.578125 109.097656 227.566406 114.191406 236.347656 C 115.597656 229.324219 120.515625 211.898438 128.945312 198.410156 C 137.378906 184.917969 161.617188 176.277344 172.683594 173.640625 C 174.265625 176.628906 179.429688 182.601562 187.4375 182.601562 Z M 187.4375 182.601562 " fill-opacity="1" fill-rule="nonzero"/></g><path fill="#032068" d="M 178.480469 159.941406 L 174.265625 176.277344 C 173.421875 175.433594 172.859375 174.167969 172.683594 173.640625 C 160.878906 176.171875 148.09375 182.777344 143.175781 185.761719 C 143.175781 168.371094 152.660156 171.535156 160.035156 161.523438 C 167.414062 151.511719 158.984375 146.242188 164.78125 135.175781 C 170.574219 124.109375 175.316406 130.433594 184.277344 125.164062 C 191.441406 120.945312 196.921875 125.164062 198.503906 129.378906 C 205.882812 128.851562 210.097656 134.121094 212.730469 145.1875 C 215.367188 156.253906 215.894531 151.511719 224.851562 163.101562 C 232.019531 172.378906 230.648438 180.667969 229.066406 183.652344 C 220.214844 178.59375 206.234375 174.871094 201.140625 173.640625 C 200.613281 174.695312 200.085938 175.222656 199.558594 176.277344 L 197.449219 167.320312 C 200.613281 165.738281 202.191406 158.886719 202.191406 151.511719 C 202.191406 145.609375 198.679688 140.972656 196.921875 139.390625 C 194.640625 142.550781 189.230469 149.71875 185.855469 153.089844 C 181.640625 157.304688 181.640625 155.726562 181.113281 153.089844 C 180.585938 150.457031 177.425781 145.1875 175.316406 151.511719 C 173.632812 156.570312 176.722656 159.238281 178.480469 159.941406 Z M 178.480469 159.941406 " fill-opacity="1" fill-rule="nonzero"/><path fill="#032068" d="M 135.269531 223.175781 L 126.839844 291.679688 L 122.625 294.3125 Z M 135.269531 223.175781 " fill-opacity="1" fill-rule="nonzero"/><path fill="#032068" d="M 239.605469 222.648438 L 248.039062 291.152344 L 252.253906 293.785156 Z M 239.605469 222.648438 " fill-opacity="1" fill-rule="nonzero"/><path fill="#032068" d="M 127.367188 287.988281 C 110.503906 284.617188 98.910156 290.449219 95.222656 293.785156 C 104.496094 305.589844 120.164062 297.300781 126.839844 291.679688 Z M 127.367188 287.988281 " fill-opacity="1" fill-rule="nonzero"/><path fill="#032068" d="M 248.039062 287.988281 C 264.898438 284.617188 276.492188 290.449219 280.179688 293.785156 C 270.90625 305.589844 255.238281 297.300781 248.5625 291.679688 Z M 248.039062 287.988281 " fill-opacity="1" fill-rule="nonzero"/><path fill="#032068" d="M 185.855469 168.371094 C 190.914062 170.058594 195.691406 168.371094 197.449219 167.320312 L 198.503906 171.535156 C 193.445312 173.21875 187.964844 170.128906 185.855469 168.371094 Z M 185.855469 168.371094 " fill-opacity="1" fill-rule="nonzero"/><g clip-path="url(#6387dfca83)"><path fill="#ffffff" d="M 99.207031 148.691406 C 99.207031 163.714844 87.027344 175.890625 72.007812 175.890625 C 56.984375 175.890625 44.808594 163.714844 44.808594 148.691406 C 44.808594 133.667969 56.984375 121.492188 72.007812 121.492188 C 87.027344 121.492188 99.207031 133.667969 99.207031 148.691406 Z M 99.207031 148.691406 " fill-opacity="1" fill-rule="nonzero"/></g><g clip-path="url(#8233edb516)"><path fill="#032068" d="M 72.007812 122.125 C 57.332031 122.125 45.441406 134.019531 45.441406 148.691406 C 45.441406 163.363281 57.332031 175.257812 72.007812 175.257812 C 86.679688 175.257812 98.574219 163.363281 98.574219 148.691406 C 98.574219 134.019531 86.679688 122.125 72.007812 122.125 Z M 44.175781 148.691406 C 44.175781 133.320312 56.636719 120.859375 72.007812 120.859375 C 87.378906 120.859375 99.839844 133.320312 99.839844 148.691406 C 99.839844 164.0625 87.378906 176.523438 72.007812 176.523438 C 56.636719 176.523438 44.175781 164.0625 44.175781 148.691406 Z M 44.175781 148.691406 " fill-opacity="1" fill-rule="evenodd"/></g><path fill="#5e9af4" d="M 63.816406 148.90625 C 64.066406 149.15625 64.066406 149.554688 63.816406 149.800781 L 56.308594 157.3125 C 56.0625 157.558594 56.0625 157.957031 56.308594 158.207031 L 63.820312 165.714844 C 64.066406 165.960938 64.464844 165.960938 64.714844 165.714844 L 72.222656 158.207031 C 72.46875 157.957031 72.867188 157.957031 73.117188 158.207031 L 80.625 165.714844 C 80.871094 165.960938 81.269531 165.960938 81.519531 165.714844 L 89.027344 158.207031 C 89.273438 157.957031 89.273438 157.558594 89.027344 157.3125 L 81.519531 149.800781 C 81.273438 149.554688 81.273438 149.15625 81.519531 148.90625 L 89.027344 141.398438 C 89.273438 141.152344 89.273438 140.75 89.027344 140.503906 L 81.519531 132.996094 C 81.273438 132.75 80.871094 132.75 80.625 132.996094 L 73.117188 140.503906 C 72.867188 140.753906 72.46875 140.753906 72.222656 140.503906 L 64.710938 132.996094 C 64.464844 132.75 64.066406 132.75 63.816406 132.996094 L 56.308594 140.503906 C 56.0625 140.75 56.0625 141.152344 56.308594 141.398438 Z M 63.816406 148.90625 " fill-opacity="1" fill-rule="evenodd"/><path fill="#e7e8ff" d="M 305.601562 145.363281 L 308.40625 147.375 L 298.738281 160.835938 L 295.933594 158.820312 Z M 305.601562 145.363281 " fill-opacity="1" fill-rule="nonzero"/><path fill="#ffffff" d="M 323.0625 144.726562 C 319.167969 150.148438 311.617188 151.382812 306.195312 147.492188 C 300.777344 143.597656 299.539062 136.046875 303.433594 130.625 C 307.324219 125.207031 314.875 123.96875 320.296875 127.863281 C 325.714844 131.753906 326.953125 139.304688 323.0625 144.726562 Z M 323.0625 144.726562 " fill-opacity="1" fill-rule="nonzero"/><g clip-path="url(#bb993305d4)"><path fill="#032068" d="M 295.300781 154.96875 C 295.964844 154.039062 297.261719 153.824219 298.191406 154.492188 L 302.117188 157.3125 C 303.046875 157.980469 303.257812 159.273438 302.589844 160.203125 L 291.714844 175.347656 C 291.046875 176.277344 289.75 176.488281 288.820312 175.820312 L 284.894531 173 C 283.96875 172.332031 283.753906 171.039062 284.421875 170.109375 Z M 295.300781 154.96875 " fill-opacity="1" fill-rule="nonzero"/></g><path fill="#5e9af4" d="M 304.585938 149.734375 C 311.246094 154.519531 320.523438 152.996094 325.304688 146.335938 C 330.089844 139.679688 328.566406 130.402344 321.910156 125.617188 C 315.25 120.835938 305.972656 122.355469 301.1875 129.015625 C 296.40625 135.675781 297.925781 144.949219 304.585938 149.734375 Z M 306.601562 146.929688 C 311.710938 150.601562 318.828125 149.433594 322.5 144.324219 C 326.171875 139.210938 325.003906 132.09375 319.894531 128.421875 C 314.785156 124.75 307.664062 125.917969 303.992188 131.027344 C 300.324219 136.140625 301.488281 143.257812 306.601562 146.929688 Z M 306.601562 146.929688 " fill-opacity="1" fill-rule="evenodd"/><g clip-path="url(#ad8ed34764)"><path fill="#ffffff" d="M 214.683594 76.285156 C 214.683594 91.3125 202.507812 103.488281 187.480469 103.488281 C 172.457031 103.488281 160.277344 91.3125 160.277344 76.285156 C 160.277344 61.261719 172.457031 49.082031 187.480469 49.082031 C 202.507812 49.082031 214.683594 61.261719 214.683594 76.285156 Z M 214.683594 76.285156 " fill-opacity="1" fill-rule="nonzero"/></g><g clip-path="url(#d9b51cdb6c)"><path fill="#032068" d="M 187.480469 49.699219 C 172.796875 49.699219 160.894531 61.601562 160.894531 76.285156 C 160.894531 90.972656 172.796875 102.875 187.480469 102.875 C 202.167969 102.875 214.070312 90.972656 214.070312 76.285156 C 214.070312 61.601562 202.167969 49.699219 187.480469 49.699219 Z M 159.664062 76.285156 C 159.664062 60.921875 172.117188 48.46875 187.480469 48.46875 C 202.84375 48.46875 215.300781 60.921875 215.300781 76.285156 C 215.300781 91.648438 202.84375 104.105469 187.480469 104.105469 C 172.117188 104.105469 159.664062 91.648438 159.664062 76.285156 Z M 159.664062 76.285156 " fill-opacity="1" fill-rule="evenodd"/></g><path fill="#5e9af4" d="M 183.640625 84.839844 C 183.640625 82.402344 183.933594 80.460938 184.519531 79.015625 C 185.105469 77.570312 186.175781 76.152344 187.726562 74.757812 C 189.296875 73.347656 190.339844 72.207031 190.859375 71.339844 C 191.375 70.449219 191.636719 69.519531 191.636719 68.542969 C 191.636719 65.601562 190.289062 64.128906 187.597656 64.128906 C 186.320312 64.128906 185.296875 64.53125 184.519531 65.332031 C 183.757812 66.113281 183.363281 67.203125 183.328125 68.597656 L 175.824219 68.597656 C 175.859375 65.269531 176.917969 62.667969 179.007812 60.785156 C 181.113281 58.90625 183.976562 57.964844 187.597656 57.964844 C 191.257812 57.964844 194.09375 58.863281 196.113281 60.65625 C 198.132812 62.433594 199.140625 64.949219 199.140625 68.203125 C 199.140625 69.683594 198.8125 71.085938 198.15625 72.410156 C 197.5 73.714844 196.355469 75.167969 194.714844 76.769531 L 192.617188 78.78125 C 191.308594 80.050781 190.558594 81.539062 190.367188 83.246094 L 190.265625 84.839844 Z M 182.886719 92.859375 C 182.886719 91.691406 183.277344 90.734375 184.054688 89.984375 C 184.847656 89.21875 185.855469 88.835938 187.082031 88.835938 C 188.304688 88.835938 189.304688 89.21875 190.082031 89.984375 C 190.875 90.734375 191.273438 91.691406 191.273438 92.859375 C 191.273438 94.007812 190.886719 94.957031 190.109375 95.703125 C 189.347656 96.453125 188.339844 96.828125 187.082031 96.828125 C 185.820312 96.828125 184.804688 96.453125 184.027344 95.703125 C 183.269531 94.957031 182.886719 94.007812 182.886719 92.859375 Z M 182.886719 92.859375 " fill-opacity="1" fill-rule="nonzero"/></svg>