<svg xmlns="http://www.w3.org/2000/svg" xmlns:xlink="http://www.w3.org/1999/xlink" width="500" zoomAndPan="magnify" viewBox="0 0 375 374.999991" height="500" preserveAspectRatio="xMidYMid meet" version="1.0"><defs><clipPath id="dfd5f45313"><path d="M 42 77 L 327 77 L 327 324.9375 L 42 324.9375 Z M 42 77 " clip-rule="nonzero"/></clipPath><clipPath id="92f9ea2c21"><path d="M 267 219 L 317 219 L 317 324.9375 L 267 324.9375 Z M 267 219 " clip-rule="nonzero"/></clipPath><clipPath id="7e2bab9d5b"><path d="M 128 50.4375 L 282 50.4375 L 282 324.9375 L 128 324.9375 Z M 128 50.4375 " clip-rule="nonzero"/></clipPath><clipPath id="f08928b4ce"><path d="M 300 142 L 337.5 142 L 337.5 198 L 300 198 Z M 300 142 " clip-rule="nonzero"/></clipPath><clipPath id="a1f774d724"><path d="M 59 257 L 154 257 L 154 324.9375 L 59 324.9375 Z M 59 257 " clip-rule="nonzero"/></clipPath></defs><g clip-path="url(#dfd5f45313)"><path fill="#e7e8ff" d="M 111.804688 324.398438 L 235.28125 324.398438 C 260.585938 324.398438 284.253906 311.875 298.519531 290.945312 L 320.015625 259.402344 C 330.542969 243.957031 327.367188 222.988281 312.738281 211.363281 C 299.953125 201.203125 295.699219 183.636719 302.421875 168.742188 L 306.894531 158.835938 C 315.867188 138.953125 310.8125 115.53125 294.441406 101.136719 L 286.210938 93.898438 C 263.402344 73.839844 229.695312 72.484375 205.359375 90.648438 L 181.613281 108.371094 C 167.175781 119.144531 148.71875 122.972656 131.195312 118.824219 C 104.878906 112.589844 77.609375 124.484375 64.230469 148.023438 L 46.082031 179.972656 C 38.316406 193.640625 42.125 210.976562 54.90625 220.113281 L 67.53125 229.140625 C 80.308594 238.273438 78.988281 257.6875 65.097656 265.003906 C 50.65625 272.613281 49.953125 293.066406 63.839844 301.652344 L 91.125 318.519531 C 97.339844 322.363281 104.5 324.398438 111.804688 324.398438 Z M 111.804688 324.398438 " fill-opacity="1" fill-rule="nonzero"/></g><path fill="#032068" d="M 319.757812 264.6875 C 290.550781 279.058594 278.417969 309.929688 276.386719 323.753906 L 287.28125 323.753906 C 311.8125 306.671875 320.738281 280 322.25 266.398438 C 322.402344 265.019531 321 264.074219 319.757812 264.6875 Z M 319.757812 264.6875 " fill-opacity="1" fill-rule="nonzero"/><path fill="#ffffff" d="M 311.871094 221.078125 C 279.132812 236.816406 269.53125 295.488281 268.84375 323.335938 L 283.507812 323.335938 C 317.472656 274.308594 318.40625 236.695312 314.277344 222.128906 C 313.980469 221.097656 312.839844 220.613281 311.871094 221.078125 Z M 311.871094 221.078125 " fill-opacity="1" fill-rule="nonzero"/><g clip-path="url(#92f9ea2c21)"><path fill="#032068" d="M 313.371094 222.386719 C 313.242188 221.941406 312.746094 221.699219 312.28125 221.925781 C 296.273438 229.621094 285.792969 247.902344 279.234375 267.957031 C 272.839844 287.511719 270.246094 308.519531 269.8125 322.394531 L 283.015625 322.394531 C 316.59375 273.726562 317.394531 236.566406 313.371094 222.386719 Z M 311.464844 220.230469 C 312.933594 219.523438 314.71875 220.25 315.179688 221.875 C 319.410156 236.78125 318.355469 274.6875 284.28125 323.871094 L 284 324.277344 L 267.878906 324.277344 L 267.902344 323.3125 C 268.246094 309.316406 270.832031 287.59375 277.445312 267.375 C 284.042969 247.195312 294.734375 228.273438 311.464844 220.230469 Z M 311.464844 220.230469 " fill-opacity="1" fill-rule="evenodd"/></g><path fill="#032068" d="M 309.949219 233.160156 L 296.457031 269.585938 L 304.484375 265.917969 L 305.269531 267.628906 L 295.535156 272.074219 L 283.292969 305.128906 L 290.28125 302.351562 L 290.980469 304.097656 L 282.414062 307.503906 L 276.429688 323.660156 L 274.664062 323.007812 L 286.792969 290.269531 L 280.554688 276.375 L 282.273438 275.605469 L 287.722656 287.75 L 300.933594 252.078125 L 297.691406 241.488281 L 299.492188 240.9375 L 302.011719 249.171875 L 308.183594 232.507812 Z M 309.949219 233.160156 " fill-opacity="1" fill-rule="evenodd"/><path fill="#ffffff" d="M 129.570312 57.820312 C 129.570312 54.355469 132.382812 51.542969 135.847656 51.542969 L 273.832031 51.542969 C 277.300781 51.542969 280.109375 54.355469 280.109375 57.820312 L 280.109375 317.152344 C 280.109375 320.617188 277.300781 323.425781 273.832031 323.425781 L 135.847656 323.425781 C 132.382812 323.425781 129.570312 320.617188 129.570312 317.152344 Z M 129.570312 57.820312 " fill-opacity="1" fill-rule="nonzero"/><g clip-path="url(#7e2bab9d5b)"><path fill="#032068" d="M 128.628906 57.820312 C 128.628906 53.835938 131.863281 50.601562 135.847656 50.601562 L 273.832031 50.601562 C 277.820312 50.601562 281.050781 53.835938 281.050781 57.820312 L 281.050781 317.152344 C 281.050781 321.136719 277.820312 324.367188 273.832031 324.367188 L 135.847656 324.367188 C 131.863281 324.367188 128.628906 321.136719 128.628906 317.152344 Z M 135.847656 52.484375 C 132.902344 52.484375 130.511719 54.875 130.511719 57.820312 L 130.511719 317.152344 C 130.511719 320.097656 132.902344 322.488281 135.847656 322.488281 L 273.832031 322.488281 C 276.78125 322.488281 279.171875 320.097656 279.171875 317.152344 L 279.171875 57.820312 C 279.171875 54.875 276.78125 52.484375 273.832031 52.484375 Z M 135.847656 52.484375 " fill-opacity="1" fill-rule="evenodd"/></g><path fill="#e7e8ff" d="M 149.328125 184.207031 C 149.328125 182.648438 150.59375 181.382812 152.152344 181.382812 L 185.082031 181.382812 C 186.640625 181.382812 187.90625 182.648438 187.90625 184.207031 L 187.90625 214.316406 C 187.90625 215.875 186.640625 217.136719 185.082031 217.136719 L 152.152344 217.136719 C 150.59375 217.136719 149.328125 215.875 149.328125 214.316406 Z M 149.328125 184.207031 " fill-opacity="1" fill-rule="nonzero"/><path fill="#e7e8ff" d="M 149.328125 245.363281 C 149.328125 243.804688 150.59375 242.542969 152.152344 242.542969 L 185.082031 242.542969 C 186.640625 242.542969 187.90625 243.804688 187.90625 245.363281 L 187.90625 275.472656 C 187.90625 277.03125 186.640625 278.292969 185.082031 278.292969 L 152.152344 278.292969 C 150.59375 278.292969 149.328125 277.03125 149.328125 275.472656 Z M 149.328125 245.363281 " fill-opacity="1" fill-rule="nonzero"/><path fill="#e7e8ff" d="M 204.839844 192.203125 C 204.839844 191.425781 205.472656 190.792969 206.253906 190.792969 L 258.941406 190.792969 C 259.71875 190.792969 260.351562 191.425781 260.351562 192.203125 C 260.351562 192.984375 259.71875 193.617188 258.941406 193.617188 L 206.253906 193.617188 C 205.472656 193.617188 204.839844 192.984375 204.839844 192.203125 Z M 204.839844 192.203125 " fill-opacity="1" fill-rule="nonzero"/><path fill="#e7e8ff" d="M 204.839844 254.300781 C 204.839844 253.523438 205.472656 252.890625 206.253906 252.890625 L 258.941406 252.890625 C 259.71875 252.890625 260.351562 253.523438 260.351562 254.300781 C 260.351562 255.082031 259.71875 255.714844 258.941406 255.714844 L 206.253906 255.714844 C 205.472656 255.714844 204.839844 255.082031 204.839844 254.300781 Z M 204.839844 254.300781 " fill-opacity="1" fill-rule="nonzero"/><path fill="#e7e8ff" d="M 204.839844 204.4375 C 204.839844 203.65625 205.472656 203.023438 206.253906 203.023438 L 230.714844 203.023438 C 231.496094 203.023438 232.125 203.65625 232.125 204.4375 C 232.125 205.214844 231.496094 205.847656 230.714844 205.847656 L 206.253906 205.847656 C 205.472656 205.847656 204.839844 205.214844 204.839844 204.4375 Z M 204.839844 204.4375 " fill-opacity="1" fill-rule="nonzero"/><path fill="#e7e8ff" d="M 204.839844 266.535156 C 204.839844 265.753906 205.472656 265.121094 206.253906 265.121094 L 230.714844 265.121094 C 231.496094 265.121094 232.125 265.753906 232.125 266.535156 C 232.125 267.3125 231.496094 267.945312 230.714844 267.945312 L 206.253906 267.945312 C 205.472656 267.945312 204.839844 267.3125 204.839844 266.535156 Z M 204.839844 266.535156 " fill-opacity="1" fill-rule="nonzero"/><path fill="#5e9af4" d="M 147.878906 135.777344 C 147.878906 134.21875 149.144531 132.953125 150.703125 132.953125 L 245.757812 132.953125 C 247.316406 132.953125 248.578125 134.21875 248.578125 135.777344 L 248.578125 135.945312 C 248.578125 137.503906 247.316406 138.769531 245.757812 138.769531 L 150.703125 138.769531 C 149.144531 138.769531 147.878906 137.503906 147.878906 135.945312 Z M 147.878906 135.777344 " fill-opacity="1" fill-rule="nonzero"/><path fill="#5e9af4" d="M 178.496094 296.171875 C 178.496094 294.613281 179.761719 293.347656 181.320312 293.347656 L 229.304688 293.347656 C 230.863281 293.347656 232.125 294.613281 232.125 296.171875 C 232.125 297.730469 230.863281 298.992188 229.304688 298.992188 L 181.320312 298.992188 C 179.761719 298.992188 178.496094 297.730469 178.496094 296.171875 Z M 178.496094 296.171875 " fill-opacity="1" fill-rule="nonzero"/><path fill="#5e9af4" d="M 147.878906 152.25 C 147.878906 150.691406 149.144531 149.429688 150.703125 149.429688 L 179.640625 149.429688 C 181.199219 149.429688 182.464844 150.691406 182.464844 152.25 L 182.464844 152.421875 C 182.464844 153.980469 181.199219 155.242188 179.640625 155.242188 L 150.703125 155.242188 C 149.144531 155.242188 147.878906 153.980469 147.878906 152.421875 Z M 147.878906 152.25 " fill-opacity="1" fill-rule="nonzero"/><path fill="#032068" d="M 129.570312 57.820312 C 129.570312 54.355469 132.382812 51.542969 135.847656 51.542969 L 273.40625 51.542969 C 276.875 51.542969 279.683594 54.355469 279.683594 57.820312 L 279.683594 71.242188 L 129.570312 71.242188 Z M 129.570312 57.820312 " fill-opacity="1" fill-rule="nonzero"/><path fill="#ffffff" d="M 148.542969 61.53125 C 148.542969 63.898438 146.53125 65.8125 144.050781 65.8125 C 141.570312 65.8125 139.558594 63.898438 139.558594 61.53125 C 139.558594 59.167969 141.570312 57.25 144.050781 57.25 C 146.53125 57.25 148.542969 59.167969 148.542969 61.53125 Z M 148.542969 61.53125 " fill-opacity="1" fill-rule="nonzero"/><path fill="#ffffff" d="M 163.523438 61.53125 C 163.523438 63.898438 161.511719 65.8125 159.027344 65.8125 C 156.546875 65.8125 154.535156 63.898438 154.535156 61.53125 C 154.535156 59.167969 156.546875 57.25 159.027344 57.25 C 161.511719 57.25 163.523438 59.167969 163.523438 61.53125 Z M 163.523438 61.53125 " fill-opacity="1" fill-rule="nonzero"/><path fill="#ffffff" d="M 178.5 61.53125 C 178.5 63.898438 176.488281 65.8125 174.007812 65.8125 C 171.523438 65.8125 169.511719 63.898438 169.511719 61.53125 C 169.511719 59.167969 171.523438 57.25 174.007812 57.25 C 176.488281 57.25 178.5 59.167969 178.5 61.53125 Z M 178.5 61.53125 " fill-opacity="1" fill-rule="nonzero"/><path fill="#5e9af4" d="M 129.570312 70.386719 L 151.144531 70.386719 L 151.144531 107.5625 C 151.144531 113.519531 146.316406 118.347656 140.359375 118.347656 C 134.402344 118.347656 129.570312 113.519531 129.570312 107.5625 Z M 129.570312 70.386719 " fill-opacity="1" fill-rule="nonzero"/><path fill="#032068" d="M 151.144531 70.386719 L 172.71875 70.386719 L 172.71875 107.5625 C 172.71875 113.519531 167.886719 118.347656 161.929688 118.347656 C 155.972656 118.347656 151.144531 113.519531 151.144531 107.5625 Z M 151.144531 70.386719 " fill-opacity="1" fill-rule="nonzero"/><path fill="#5e9af4" d="M 172.71875 70.386719 L 194.289062 70.386719 L 194.289062 107.5625 C 194.289062 113.519531 189.460938 118.347656 183.503906 118.347656 C 177.546875 118.347656 172.71875 113.519531 172.71875 107.5625 Z M 172.71875 70.386719 " fill-opacity="1" fill-rule="nonzero"/><path fill="#032068" d="M 194.292969 70.386719 L 214.964844 70.386719 L 214.964844 108.011719 C 214.964844 113.71875 210.335938 118.347656 204.628906 118.347656 C 198.917969 118.347656 194.292969 113.71875 194.292969 108.011719 Z M 194.292969 70.386719 " fill-opacity="1" fill-rule="nonzero"/><path fill="#5e9af4" d="M 214.964844 70.386719 L 236.539062 70.386719 L 236.539062 107.5625 C 236.539062 113.519531 231.710938 118.347656 225.753906 118.347656 C 219.792969 118.347656 214.964844 113.519531 214.964844 107.5625 Z M 214.964844 70.386719 " fill-opacity="1" fill-rule="nonzero"/><path fill="#032068" d="M 236.539062 70.386719 L 258.113281 70.386719 L 258.113281 107.5625 C 258.113281 113.519531 253.28125 118.347656 247.324219 118.347656 C 241.367188 118.347656 236.539062 113.519531 236.539062 107.5625 Z M 236.539062 70.386719 " fill-opacity="1" fill-rule="nonzero"/><path fill="#5e9af4" d="M 258.113281 70.386719 L 279.683594 70.386719 L 279.683594 107.5625 C 279.683594 113.519531 274.855469 118.347656 268.898438 118.347656 C 262.941406 118.347656 258.113281 113.519531 258.113281 107.5625 Z M 258.113281 70.386719 " fill-opacity="1" fill-rule="nonzero"/><path fill="#5e9af4" d="M 51.300781 123.859375 L 47.492188 121.8125 C 46.816406 121.449219 47.003906 120.429688 47.769531 120.328125 L 51.953125 119.792969 C 52.207031 119.757812 52.429688 119.605469 52.546875 119.382812 L 54.734375 115.316406 C 55.085938 114.660156 56.066406 114.808594 56.210938 115.539062 L 57.101562 120.121094 C 57.144531 120.339844 57.285156 120.535156 57.480469 120.648438 L 61.902344 123.246094 C 62.558594 123.632812 62.34375 124.632812 61.585938 124.714844 L 56.808594 125.242188 C 56.578125 125.269531 56.367188 125.398438 56.238281 125.59375 L 53.339844 129.945312 C 52.914062 130.585938 51.917969 130.304688 51.890625 129.535156 L 51.714844 124.527344 C 51.707031 124.246094 51.546875 123.992188 51.300781 123.859375 Z M 51.300781 123.859375 " fill-opacity="1" fill-rule="nonzero"/><path fill="#5e9af4" d="M 94.246094 92.261719 L 93.421875 91.136719 C 92.964844 90.515625 93.574219 89.675781 94.304688 89.914062 L 95.59375 90.335938 C 95.835938 90.414062 96.101562 90.375 96.308594 90.222656 L 97.671875 89.21875 C 98.269531 88.78125 99.089844 89.335938 98.90625 90.054688 L 98.472656 91.742188 C 98.417969 91.960938 98.457031 92.195312 98.585938 92.382812 L 99.679688 93.996094 C 100.105469 94.625 99.484375 95.4375 98.761719 95.1875 L 97.109375 94.613281 C 96.886719 94.535156 96.644531 94.5625 96.441406 94.683594 L 94.75 95.695312 C 94.089844 96.089844 93.3125 95.410156 93.617188 94.703125 L 94.335938 93.042969 C 94.449219 92.785156 94.414062 92.488281 94.246094 92.261719 Z M 94.246094 92.261719 " fill-opacity="1" fill-rule="nonzero"/><g clip-path="url(#f08928b4ce)"><path fill="#5e9af4" d="M 319.15625 197.378906 C 322.570312 197.378906 337.503906 171.046875 337.503906 161 C 337.503906 150.953125 329.289062 142.808594 319.15625 142.808594 C 309.023438 142.808594 300.808594 150.953125 300.808594 161 C 300.808594 171.046875 314.464844 197.378906 319.15625 197.378906 Z M 319.15625 170.539062 C 324.347656 170.539062 328.554688 166.335938 328.554688 161.148438 C 328.554688 155.960938 324.347656 151.753906 319.15625 151.753906 C 313.96875 151.753906 309.761719 155.960938 309.761719 161.148438 C 309.761719 166.335938 313.96875 170.539062 319.15625 170.539062 Z M 319.15625 170.539062 " fill-opacity="1" fill-rule="evenodd"/></g><path fill="#5e9af4" d="M 305.984375 120.226562 C 307.648438 120.226562 314.921875 107.515625 314.921875 102.664062 C 314.921875 97.816406 310.921875 93.882812 305.984375 93.882812 C 301.046875 93.882812 297.046875 97.816406 297.046875 102.664062 C 297.046875 107.515625 303.699219 120.226562 305.984375 120.226562 Z M 305.984375 107.269531 C 308.511719 107.269531 310.5625 105.242188 310.5625 102.738281 C 310.5625 100.230469 308.511719 98.203125 305.984375 98.203125 C 303.457031 98.203125 301.40625 100.230469 301.40625 102.738281 C 301.40625 105.242188 303.457031 107.269531 305.984375 107.269531 Z M 305.984375 107.269531 " fill-opacity="1" fill-rule="evenodd"/><path fill="#efcb96" d="M 97.039062 195.796875 L 95.574219 203.238281 C 96.0625 206.214844 98.792969 212.164062 105.808594 212.164062 C 112.828125 212.164062 115.3125 206.214844 115.679688 203.238281 L 113.851562 195.796875 C 114.894531 195.089844 117.917969 192.007812 118.214844 185.011719 C 119.316406 184.640625 121.453125 183.226562 121.160156 180.546875 C 120.867188 177.867188 118.542969 176.457031 117.417969 176.082031 C 115.953125 169.933594 112.40625 165.667969 105.808594 165.667969 C 99.542969 165.667969 96.199219 171.269531 94.714844 176.828125 C 93.539062 176.953125 91.191406 177.867188 91.191406 180.546875 C 91.191406 183.894531 92.8125 185.011719 93.765625 185.011719 C 93.972656 191.980469 96.109375 194.5 97.039062 195.796875 Z M 97.039062 195.796875 " fill-opacity="1" fill-rule="nonzero"/><path fill="#032068" d="M 94.222656 184.582031 L 94.222656 176.578125 L 92.726562 177.308594 L 91.980469 170.394531 L 120.398438 170.394531 L 119.277344 176.578125 L 118.152344 175.488281 C 117.984375 179.046875 117.863281 180.980469 117.03125 182.761719 C 115.855469 180.671875 115.65625 177.558594 115.164062 172.578125 L 96.464844 172.578125 C 96.425781 177.941406 96.214844 180.796875 94.222656 184.582031 Z M 94.222656 184.582031 " fill-opacity="1" fill-rule="nonzero"/><path fill="#ffffff" d="M 119.609375 169.609375 C 119.019531 154.707031 113.34375 154.5625 106.347656 153.847656 C 94.191406 153.847656 92.226562 163.519531 91.980469 169.609375 Z M 119.609375 169.609375 " fill-opacity="1" fill-rule="nonzero"/><path fill="#032068" d="M 92.703125 168.921875 L 118.886719 168.921875 C 118.523438 162.003906 117.003906 158.667969 114.9375 156.933594 C 112.871094 155.199219 110.128906 154.921875 106.78125 154.582031 C 106.625 154.566406 106.46875 154.550781 106.3125 154.535156 C 100.476562 154.542969 97.179688 156.851562 95.277344 159.816406 C 93.488281 162.601562 92.882812 166.042969 92.703125 168.921875 Z M 94.117188 159.074219 C 96.292969 155.683594 100.046875 153.160156 106.347656 153.160156 L 106.417969 153.160156 C 106.632812 153.183594 106.847656 153.207031 107.0625 153.226562 C 110.261719 153.546875 113.421875 153.863281 115.824219 155.878906 C 118.421875 158.0625 120 162.082031 120.296875 169.582031 L 120.324219 170.296875 L 91.261719 170.296875 L 91.289062 169.582031 C 91.414062 166.496094 91.972656 162.40625 94.117188 159.074219 Z M 94.117188 159.074219 " fill-opacity="1" fill-rule="evenodd"/><path fill="#032068" d="M 120.296875 171.183594 L 91.191406 171.183594 C 91.191406 166.195312 94.285156 156.210938 106.664062 156.210938 C 119.042969 156.210938 120.910156 166.195312 120.296875 171.183594 Z M 120.296875 171.183594 " fill-opacity="1" fill-rule="nonzero"/><path fill="#5e9af4" d="M 105.796875 207.535156 C 112.726562 207.535156 117.347656 202.929688 118.792969 200.625 C 129.710938 201.007812 153.925781 208.601562 163.429688 235.929688 C 175.3125 270.09375 173.472656 298.085938 155.617188 304.730469 C 156.253906 308.402344 157.023438 314.332031 157.179688 319.746094 C 157.242188 321.960938 155.414062 323.710938 153.195312 323.710938 L 59.554688 323.710938 C 57.324219 323.710938 55.492188 321.945312 55.546875 319.71875 C 55.675781 314.308594 56.316406 308.394531 56.839844 304.730469 C 39.601562 294.292969 37.484375 268.195312 50.316406 235.929688 C 60.582031 210.121094 83.203125 201.640625 93.234375 200.625 C 94.53125 202.929688 98.863281 207.535156 105.796875 207.535156 Z M 105.796875 207.535156 " fill-opacity="1" fill-rule="nonzero"/><path fill="#ffffff" d="M 59.824219 260.296875 C 59.824219 259.15625 60.75 258.230469 61.890625 258.230469 L 150.90625 258.230469 C 152.046875 258.230469 152.972656 259.15625 152.972656 260.296875 L 152.972656 321.644531 C 152.972656 322.785156 152.046875 323.707031 150.90625 323.707031 L 61.890625 323.707031 C 60.75 323.707031 59.824219 322.785156 59.824219 321.644531 Z M 59.824219 260.296875 " fill-opacity="1" fill-rule="nonzero"/><g clip-path="url(#a1f774d724)"><path fill="#032068" d="M 59.132812 260.296875 C 59.132812 258.777344 60.367188 257.542969 61.890625 257.542969 L 150.90625 257.542969 C 152.429688 257.542969 153.664062 258.777344 153.664062 260.296875 L 153.664062 321.644531 C 153.664062 323.164062 152.429688 324.398438 150.90625 324.398438 L 61.890625 324.398438 C 60.367188 324.398438 59.132812 323.164062 59.132812 321.644531 Z M 61.890625 258.917969 C 61.128906 258.917969 60.511719 259.535156 60.511719 260.296875 L 60.511719 321.644531 C 60.511719 322.40625 61.128906 323.019531 61.890625 323.019531 L 150.90625 323.019531 C 151.667969 323.019531 152.285156 322.40625 152.285156 321.644531 L 152.285156 260.296875 C 152.285156 259.535156 151.667969 258.917969 150.90625 258.917969 Z M 61.890625 258.917969 " fill-opacity="1" fill-rule="evenodd"/></g><path fill="#5e9af4" d="M 95.941406 258.917969 L 116.855469 258.917969 L 116.855469 273.9375 C 116.855469 275.078125 115.929688 276 114.785156 276 L 98.011719 276 C 96.867188 276 95.941406 275.078125 95.941406 273.9375 Z M 95.941406 258.917969 " fill-opacity="1" fill-rule="nonzero"/><path fill="#efcb96" d="M 52.695312 287.175781 C 52.695312 281.480469 57.445312 279.109375 59.824219 278.632812 L 59.824219 285.277344 C 65.527344 284.800781 66.476562 289.074219 66.476562 292.867188 C 66.476562 296.664062 66 298.5625 59.824219 299.511719 C 53.644531 300.460938 52.695312 294.292969 52.695312 287.175781 Z M 52.695312 287.175781 " fill-opacity="1" fill-rule="nonzero"/><path fill="#efcb96" d="M 160.101562 287.175781 C 160.101562 281.480469 155.351562 279.109375 152.972656 278.632812 L 152.972656 285.277344 C 147.269531 284.800781 146.320312 289.074219 146.320312 292.867188 C 146.320312 296.664062 146.796875 298.5625 152.972656 299.511719 C 159.152344 300.460938 160.101562 294.292969 160.101562 287.175781 Z M 160.101562 287.175781 " fill-opacity="1" fill-rule="nonzero"/><path fill="#032068" d="M 62.675781 243.523438 L 59.347656 260.128906 L 62.675781 258.230469 Z M 62.675781 243.523438 " fill-opacity="1" fill-rule="nonzero"/><path fill="#032068" d="M 150.121094 243.523438 L 153.449219 260.128906 L 150.121094 258.230469 Z M 150.121094 243.523438 " fill-opacity="1" fill-rule="nonzero"/></svg>