<svg xmlns="http://www.w3.org/2000/svg" xmlns:xlink="http://www.w3.org/1999/xlink" width="500" zoomAndPan="magnify" viewBox="0 0 375 374.999991" height="500" preserveAspectRatio="xMidYMid meet" version="1.0"><path fill="#e7e8ff" d="M 126.636719 327.085938 L 229.59375 327.085938 C 247.328125 327.085938 264.429688 320.507812 277.574219 308.625 L 293.8125 293.945312 C 315.839844 274.035156 316.660156 239.78125 295.617188 218.84375 C 287.539062 210.808594 282.339844 200.34375 280.816406 189.066406 L 275.710938 151.277344 C 273.410156 134.242188 265.015625 118.613281 252.074219 107.265625 L 240.121094 96.785156 C 215.304688 75.019531 177.164062 78.953125 157.328125 105.316406 L 156.257812 106.742188 C 146.222656 120.082031 130.480469 127.933594 113.761719 127.933594 C 86.707031 127.933594 63.96875 148.214844 60.957031 175.039062 L 59.859375 184.816406 C 58.285156 198.847656 61.402344 213.003906 68.726562 225.082031 L 79.246094 242.421875 C 85.050781 251.992188 86.90625 263.433594 84.421875 274.339844 C 78.273438 301.363281 98.863281 327.085938 126.636719 327.085938 Z M 126.636719 327.085938 " fill-opacity="1" fill-rule="nonzero"/><path fill="#ffffff" d="M 79.457031 137.515625 L 75.269531 97.210938 L 109.167969 97.210938 C 109.738281 97.210938 110.222656 97.621094 110.304688 98.179688 L 116.011719 136.214844 C 116.117188 136.902344 115.578125 137.515625 114.875 137.515625 Z M 79.457031 137.515625 " fill-opacity="1" fill-rule="nonzero"/><path fill="#032068" d="M 74.628906 96.640625 L 109.164062 96.640625 C 110.023438 96.640625 110.75 97.261719 110.875 98.09375 L 116.582031 136.132812 C 116.738281 137.160156 115.929688 138.082031 114.875 138.082031 L 78.933594 138.082031 Z M 75.90625 97.777344 L 79.976562 136.949219 L 114.875 136.949219 C 115.226562 136.949219 115.496094 136.640625 115.445312 136.296875 L 109.734375 98.261719 C 109.695312 97.984375 109.453125 97.777344 109.164062 97.777344 Z M 75.90625 97.777344 " fill-opacity="1" fill-rule="evenodd"/><path fill="#5e9af4" d="M 88.90625 103.609375 C 88.421875 104.675781 87.152344 105.15625 86.070312 104.679688 C 84.988281 104.207031 84.5 102.957031 84.980469 101.890625 C 85.464844 100.820312 86.734375 100.34375 87.816406 100.816406 C 88.902344 101.292969 89.386719 102.542969 88.90625 103.609375 Z M 88.90625 103.609375 " fill-opacity="1" fill-rule="nonzero"/><path fill="#5e9af4" d="M 101.933594 103.609375 C 101.449219 104.675781 100.179688 105.15625 99.097656 104.679688 C 98.011719 104.207031 97.527344 102.957031 98.007812 101.890625 C 98.492188 100.820312 99.761719 100.34375 100.84375 100.816406 C 101.925781 101.292969 102.414062 102.542969 101.933594 103.609375 Z M 101.933594 103.609375 " fill-opacity="1" fill-rule="nonzero"/><path fill="#032068" d="M 69.101562 137.515625 L 79.457031 137.515625 L 75.269531 97.210938 L 73.050781 97.210938 C 72.460938 97.210938 71.964844 97.648438 71.90625 98.226562 L 67.953125 136.265625 C 67.886719 136.933594 68.417969 137.515625 69.101562 137.515625 Z M 69.101562 137.515625 " fill-opacity="1" fill-rule="nonzero"/><path fill="#032068" d="M 73.050781 97.777344 C 72.757812 97.777344 72.507812 97.996094 72.480469 98.285156 L 68.527344 136.324219 C 68.492188 136.660156 68.757812 136.949219 69.101562 136.949219 L 78.816406 136.949219 L 74.75 97.777344 Z M 71.332031 98.171875 C 71.421875 97.300781 72.167969 96.640625 73.050781 96.640625 L 75.789062 96.640625 L 80.09375 138.082031 L 69.101562 138.082031 C 68.078125 138.082031 67.277344 137.210938 67.382812 136.207031 Z M 71.332031 98.171875 " fill-opacity="1" fill-rule="evenodd"/><path fill="#032068" d="M 93.414062 88.050781 C 90.328125 88.050781 87.828125 90.507812 87.828125 93.546875 L 87.828125 101.789062 C 87.828125 102.296875 87.414062 102.707031 86.898438 102.707031 C 86.386719 102.707031 85.96875 102.296875 85.96875 101.789062 L 85.96875 93.546875 C 85.96875 89.496094 89.300781 86.21875 93.414062 86.21875 C 97.523438 86.21875 100.855469 89.496094 100.855469 93.546875 L 100.855469 101.789062 C 100.855469 102.296875 100.4375 102.707031 99.925781 102.707031 C 99.410156 102.707031 98.996094 102.296875 98.996094 101.789062 L 98.996094 93.546875 C 98.996094 90.507812 96.496094 88.050781 93.414062 88.050781 Z M 93.414062 88.050781 " fill-opacity="1" fill-rule="evenodd"/><path fill="#ffffff" d="M 215.132812 88.378906 C 207.871094 104.683594 188.765625 112.015625 172.457031 104.75 C 156.152344 97.488281 148.824219 78.382812 156.085938 62.074219 C 163.351562 45.769531 182.457031 38.441406 198.761719 45.703125 C 215.066406 52.96875 222.398438 72.074219 215.132812 88.378906 Z M 215.132812 88.378906 " fill-opacity="1" fill-rule="nonzero"/><path fill="#032068" d="M 198.503906 46.285156 C 182.519531 39.164062 163.789062 46.351562 156.667969 62.335938 C 149.546875 78.320312 156.730469 97.050781 172.71875 104.171875 C 188.703125 111.292969 207.433594 104.105469 214.554688 88.121094 C 221.675781 72.136719 214.488281 53.40625 198.503906 46.285156 Z M 155.507812 61.816406 C 162.914062 45.191406 182.394531 37.71875 199.019531 45.125 C 215.648438 52.53125 223.121094 72.011719 215.714844 88.636719 C 208.308594 105.265625 188.824219 112.738281 172.199219 105.332031 C 155.574219 97.925781 148.101562 78.445312 155.507812 61.816406 Z M 155.507812 61.816406 " fill-opacity="1" fill-rule="evenodd"/><path fill="#5e9af4" d="M 190.238281 84.765625 C 190.238281 83.367188 189.902344 82.273438 189.226562 81.476562 C 188.550781 80.679688 187.367188 79.929688 185.671875 79.222656 C 183.976562 78.515625 182.410156 77.796875 180.972656 77.074219 C 179.535156 76.347656 178.300781 75.507812 177.261719 74.550781 C 176.222656 73.597656 175.425781 72.492188 174.875 71.238281 C 174.320312 69.980469 174.042969 68.460938 174.042969 66.671875 C 174.042969 63.683594 175.027344 61.226562 177 59.296875 C 178.738281 57.585938 180.988281 56.5 183.746094 56.050781 C 184.394531 55.945312 184.890625 55.402344 184.890625 54.75 L 184.890625 51.578125 C 184.890625 50.875 185.460938 50.304688 186.164062 50.304688 L 187.746094 50.304688 C 188.449219 50.304688 189.019531 50.875 189.019531 51.578125 L 189.019531 54.914062 C 189.019531 55.542969 189.480469 56.070312 190.09375 56.210938 C 192.753906 56.808594 194.878906 58.078125 196.46875 60.015625 C 198.050781 61.910156 198.945312 64.253906 199.148438 67.046875 C 199.199219 67.746094 198.625 68.316406 197.921875 68.316406 L 191.691406 68.316406 C 190.988281 68.316406 190.429688 67.746094 190.359375 67.046875 C 190.230469 65.8125 189.90625 64.824219 189.382812 64.074219 C 188.691406 63.082031 187.703125 62.589844 186.421875 62.589844 C 185.28125 62.589844 184.390625 62.960938 183.75 63.703125 C 183.128906 64.425781 182.816406 65.433594 182.816406 66.726562 C 182.816406 68.035156 183.179688 69.078125 183.90625 69.855469 C 184.632812 70.617188 185.800781 71.351562 187.410156 72.058594 C 189.019531 72.75 190.53125 73.472656 191.953125 74.234375 C 193.386719 74.976562 194.625 75.824219 195.664062 76.78125 C 196.703125 77.734375 197.515625 78.851562 198.101562 80.125 C 198.691406 81.398438 198.984375 82.925781 198.984375 84.714844 C 198.984375 87.738281 198.042969 90.203125 196.15625 92.113281 C 194.511719 93.792969 192.34375 94.859375 189.640625 95.308594 C 188.996094 95.414062 188.5 95.957031 188.5 96.609375 L 188.5 99.519531 C 188.5 100.21875 187.929688 100.789062 187.226562 100.789062 L 185.644531 100.789062 C 184.941406 100.789062 184.371094 100.21875 184.371094 99.519531 L 184.371094 96.574219 C 184.371094 95.921875 183.882812 95.382812 183.242188 95.277344 C 180.015625 94.746094 177.496094 93.476562 175.679688 91.476562 C 173.910156 89.5 172.917969 86.96875 172.710938 83.886719 C 172.660156 83.1875 173.238281 82.617188 173.9375 82.617188 L 180.140625 82.617188 C 180.84375 82.617188 181.402344 83.1875 181.476562 83.886719 C 181.625 85.292969 182.039062 86.40625 182.710938 87.234375 C 183.59375 88.277344 184.839844 88.796875 186.449219 88.796875 C 187.625 88.796875 188.550781 88.445312 189.226562 87.738281 C 189.902344 87.011719 190.238281 86.023438 190.238281 84.765625 Z M 190.238281 84.765625 " fill-opacity="1" fill-rule="nonzero"/><path fill="#032068" d="M 258.953125 123.445312 C 259.53125 122.472656 259.75 121.574219 259.609375 120.742188 C 259.472656 119.914062 258.960938 118.90625 258.082031 117.71875 C 257.199219 116.53125 256.414062 115.390625 255.71875 114.300781 C 255.027344 113.207031 254.515625 112.117188 254.191406 111.027344 C 253.867188 109.9375 253.773438 108.84375 253.910156 107.742188 C 254.042969 106.644531 254.476562 105.472656 255.214844 104.230469 C 256.445312 102.152344 258.140625 100.847656 260.296875 100.3125 C 262.234375 99.824219 264.269531 100.007812 266.394531 100.855469 C 266.828125 101.027344 267.332031 100.875 267.570312 100.476562 L 268.996094 98.070312 C 269.25 97.640625 269.808594 97.496094 270.238281 97.753906 L 271.53125 98.515625 C 271.960938 98.773438 272.101562 99.328125 271.847656 99.757812 L 270.355469 102.277344 C 270.128906 102.660156 270.21875 103.152344 270.546875 103.457031 C 272.183594 104.976562 273.152344 106.753906 273.457031 108.78125 C 273.777344 110.785156 273.410156 112.816406 272.359375 114.878906 C 272.128906 115.324219 271.570312 115.464844 271.140625 115.210938 L 266.636719 112.542969 C 266.207031 112.289062 266.070312 111.734375 266.285156 111.28125 C 266.742188 110.328125 266.945312 109.46875 266.886719 108.703125 C 266.816406 107.730469 266.339844 106.984375 265.453125 106.457031 C 264.664062 105.992188 263.894531 105.882812 263.148438 106.140625 C 262.417969 106.386719 261.789062 106.960938 261.257812 107.859375 C 260.714844 108.769531 260.539062 109.644531 260.71875 110.484375 C 260.910156 111.308594 261.414062 112.296875 262.234375 113.449219 C 263.0625 114.585938 263.808594 115.710938 264.476562 116.820312 C 265.164062 117.925781 265.667969 119.023438 265.992188 120.113281 C 266.316406 121.203125 266.421875 122.308594 266.304688 123.4375 C 266.183594 124.5625 265.757812 125.746094 265.023438 126.988281 C 263.777344 129.09375 262.109375 130.421875 260.015625 130.976562 C 258.160156 131.480469 256.1875 131.320312 254.101562 130.492188 C 253.667969 130.320312 253.167969 130.472656 252.929688 130.875 L 251.613281 133.097656 C 251.355469 133.527344 250.800781 133.667969 250.371094 133.414062 L 249.078125 132.648438 C 248.648438 132.394531 248.503906 131.835938 248.761719 131.40625 L 250.089844 129.160156 C 250.328125 128.761719 250.222656 128.25 249.867188 127.957031 C 247.808594 126.25 246.5625 124.3125 246.125 122.148438 C 245.710938 120.015625 246.085938 117.8125 247.253906 115.546875 C 247.484375 115.101562 248.042969 114.960938 248.472656 115.21875 L 252.960938 117.875 C 253.390625 118.128906 253.527344 118.683594 253.3125 119.136719 C 252.796875 120.21875 252.605469 121.199219 252.734375 122.078125 C 252.914062 123.164062 253.5625 124.039062 254.671875 124.699219 C 255.488281 125.179688 256.273438 125.3125 257.03125 125.097656 C 257.796875 124.867188 258.4375 124.320312 258.953125 123.445312 Z M 258.953125 123.445312 " fill-opacity="1" fill-rule="nonzero"/><path fill="#032068" d="M 97.347656 168.25 C 101.253906 180.316406 110.335938 214.128906 114.390625 229.53125 C 105.003906 232.53125 88.476562 235.300781 81.386719 236.308594 C 76.722656 210.101562 67.339844 185.28125 63.230469 176.148438 C 66.652344 173.660156 87.398438 169.84375 97.347656 168.25 Z M 97.347656 168.25 " fill-opacity="1" fill-rule="nonzero"/><path fill="#5e9af4" d="M 105.859375 166.984375 C 107.257812 179.589844 109.359375 214.542969 110.234375 230.445312 C 100.433594 231.496094 83.6875 230.882812 76.542969 230.445312 C 77.242188 203.835938 73.042969 177.636719 70.851562 167.859375 C 74.703125 166.109375 95.796875 166.546875 105.859375 166.984375 Z M 105.859375 166.984375 " fill-opacity="1" fill-rule="nonzero"/><path fill="#efcb96" d="M 107.328125 232.3125 C 108.78125 233.511719 113.246094 242.542969 115.296875 246.910156 C 124.722656 244.085938 142.683594 237.535156 139.105469 233.90625 C 134.632812 229.367188 126.316406 215.957031 123.378906 205.097656 C 121.03125 196.40625 111.804688 189.976562 107.484375 187.847656 C 108.484375 202.871094 109.359375 216.4375 109.796875 219.503906 C 108.609375 219.152344 95.792969 211.183594 93.628906 210.871094 C 91.464844 210.558594 89.894531 215.902344 93.808594 221.246094 C 97.722656 226.585938 105.511719 230.808594 107.328125 232.3125 Z M 107.328125 232.3125 " fill-opacity="1" fill-rule="nonzero"/><path fill="#5e9af4" d="M 147.875 330.335938 C 154.082031 337.320312 168.875 329.839844 175.496094 325.226562 C 183.863281 320.460938 196.09375 309.988281 194.730469 304.75 C 193.367188 299.511719 147.695312 233.203125 141.167969 231.285156 C 134.636719 229.367188 112.082031 244.675781 110.058594 248.273438 C 108.035156 251.871094 140.121094 321.609375 147.875 330.335938 Z M 147.875 330.335938 " fill-opacity="1" fill-rule="nonzero"/><path fill="#032068" d="M 99.605469 200.359375 C 97.769531 204.480469 92.941406 206.332031 88.820312 204.496094 C 84.695312 202.660156 82.84375 197.828125 84.679688 193.707031 C 86.515625 189.585938 91.347656 187.730469 95.46875 189.566406 C 99.589844 191.402344 101.441406 196.234375 99.605469 200.359375 Z M 99.605469 200.359375 " fill-opacity="1" fill-rule="nonzero"/><path fill="#ffffff" d="M 285.296875 158.984375 C 286.734375 158.085938 288.628906 158.523438 289.527344 159.964844 L 305.738281 185.9375 C 306.636719 187.378906 306.199219 189.273438 304.757812 190.167969 L 251.320312 223.53125 C 249.878906 224.429688 247.988281 223.988281 247.089844 222.550781 L 230.878906 196.574219 C 229.980469 195.136719 230.417969 193.242188 231.859375 192.34375 Z M 285.296875 158.984375 " fill-opacity="1" fill-rule="nonzero"/><path fill="#032068" d="M 284.757812 158.117188 C 286.675781 156.917969 289.199219 157.503906 290.398438 159.421875 L 306.605469 185.394531 C 307.804688 187.316406 307.21875 189.839844 305.300781 191.039062 L 251.863281 224.398438 C 249.941406 225.597656 247.417969 225.011719 246.21875 223.09375 L 230.011719 197.117188 C 228.8125 195.199219 229.398438 192.671875 231.316406 191.476562 Z M 288.660156 160.503906 C 288.0625 159.546875 286.796875 159.253906 285.839844 159.851562 L 232.402344 193.210938 C 231.441406 193.8125 231.148438 195.074219 231.746094 196.035156 L 247.957031 222.007812 C 248.554688 222.96875 249.820312 223.261719 250.777344 222.660156 L 304.21875 189.300781 C 305.175781 188.703125 305.46875 187.441406 304.871094 186.480469 Z M 288.660156 160.503906 " fill-opacity="1" fill-rule="evenodd"/><path fill="#e7e8ff" d="M 273.09375 201.683594 L 261.507812 183.121094 L 263.246094 182.035156 L 274.828125 200.597656 Z M 266.410156 205.855469 L 254.828125 187.292969 L 256.5625 186.207031 L 268.148438 204.769531 Z M 260.101562 209.792969 L 248.515625 191.230469 L 250.253906 190.144531 L 261.835938 208.710938 Z M 253.046875 214.195312 L 241.464844 195.632812 L 243.199219 194.550781 L 254.785156 213.113281 Z M 253.046875 214.195312 " fill-opacity="1" fill-rule="evenodd"/><path fill="#efcb96" d="M 249.222656 220.652344 C 248.835938 222.496094 242.933594 230.660156 240.03125 234.511719 C 246.925781 241.535156 261.101562 254.367188 262.640625 249.507812 C 264.570312 243.433594 272.542969 229.816406 280.777344 222.148438 C 287.363281 216.015625 288.746094 204.855469 288.613281 200.039062 C 279.726562 206.050781 261.90625 217.828125 261.710938 216.855469 C 261.464844 215.644531 262.519531 200.589844 261.785156 198.527344 C 261.054688 196.46875 255.59375 197.574219 252.699219 203.527344 C 249.800781 209.484375 249.699219 218.34375 249.222656 220.652344 Z M 249.222656 220.652344 " fill-opacity="1" fill-rule="nonzero"/><path fill="#5e9af4" d="M 181.464844 302.265625 C 178.183594 311.015625 191.703125 320.609375 198.871094 324.316406 C 206.988281 329.492188 221.960938 335.425781 225.953125 331.773438 C 229.949219 328.121094 267.273438 256.777344 265.921875 250.105469 C 264.570312 243.433594 240.507812 230.625 236.382812 230.515625 C 232.253906 230.402344 185.5625 291.332031 181.464844 302.265625 Z M 181.464844 302.265625 " fill-opacity="1" fill-rule="nonzero"/><path fill="#032068" d="M 291.742188 170.953125 L 293.925781 167.011719 L 301.804688 179.632812 L 297.304688 179.863281 Z M 291.742188 170.953125 " fill-opacity="1" fill-rule="nonzero"/><path fill="#5e9af4" d="M 279.074219 172.15625 C 280.511719 171.257812 282.40625 171.695312 283.304688 173.132812 L 291.636719 186.488281 C 292.535156 187.925781 292.097656 189.820312 290.660156 190.71875 L 283.25 195.34375 C 281.808594 196.242188 279.914062 195.804688 279.015625 194.363281 L 270.683594 181.011719 C 269.785156 179.574219 270.226562 177.679688 271.664062 176.78125 Z M 279.074219 172.15625 " fill-opacity="1" fill-rule="nonzero"/><path fill="#5e9af4" d="M 166.886719 145.285156 C 167.574219 143.734375 169.390625 143.039062 170.941406 143.726562 L 199.226562 156.332031 C 200.773438 157.019531 201.472656 158.835938 200.78125 160.386719 L 181.261719 204.214844 C 180.570312 205.761719 178.753906 206.460938 177.207031 205.769531 L 148.921875 193.167969 C 147.371094 192.476562 146.675781 190.660156 147.363281 189.113281 Z M 166.886719 145.285156 " fill-opacity="1" fill-rule="nonzero"/><path fill="#032068" d="M 173.078125 144.679688 L 180.140625 147.828125 L 158.121094 197.265625 L 151.058594 194.121094 Z M 173.078125 144.679688 " fill-opacity="1" fill-rule="nonzero"/><path fill="#ffffff" d="M 191.738281 167.382812 C 190.699219 169.726562 187.957031 170.777344 185.617188 169.734375 C 183.277344 168.691406 182.222656 165.949219 183.265625 163.609375 C 184.308594 161.269531 187.050781 160.214844 189.390625 161.257812 C 191.730469 162.300781 192.78125 165.042969 191.738281 167.382812 Z M 191.738281 167.382812 " fill-opacity="1" fill-rule="nonzero"/><path fill="#ffffff" d="M 183.023438 173.65625 C 183.195312 173.265625 183.652344 173.09375 184.042969 173.265625 C 184.433594 173.441406 184.605469 173.898438 184.433594 174.285156 L 173.738281 198.300781 C 173.566406 198.691406 173.109375 198.867188 172.71875 198.691406 C 172.328125 198.519531 172.152344 198.0625 172.324219 197.671875 Z M 183.023438 173.65625 " fill-opacity="1" fill-rule="nonzero"/><path fill="#032068" d="M 193.628906 163.148438 C 192.585938 165.488281 189.84375 166.539062 187.503906 165.496094 C 185.164062 164.453125 184.109375 161.710938 185.152344 159.371094 C 186.195312 157.03125 188.9375 155.980469 191.277344 157.019531 C 193.617188 158.0625 194.667969 160.808594 193.628906 163.148438 Z M 193.628906 163.148438 " fill-opacity="1" fill-rule="nonzero"/><path fill="#efcb96" d="M 174.121094 211.625 C 174.820312 213.375 174.410156 223.441406 174.121094 228.257812 C 183.746094 230.296875 202.648438 233.15625 201.25 228.257812 C 199.5 222.128906 198.625 206.375 201.25 195.433594 C 203.347656 186.679688 197.894531 177.050781 195.121094 173.113281 C 190.308594 183.617188 185.058594 195.871094 182.433594 201.558594 C 181.558594 200.683594 174.121094 187.554688 172.371094 186.242188 C 170.621094 184.929688 166.679688 188.867188 167.554688 195.433594 C 168.429688 201.996094 173.246094 209.4375 174.121094 211.625 Z M 174.121094 211.625 " fill-opacity="1" fill-rule="nonzero"/><path fill="#5e9af4" d="M 162.742188 317.097656 C 164.84375 326.199219 181.414062 326.726562 189.433594 325.851562 C 199.0625 325.679688 214.8125 322.347656 216.125 317.097656 C 217.4375 311.847656 209.125 231.757812 204.3125 226.941406 C 199.5 222.128906 172.367188 224.753906 168.867188 226.941406 C 165.367188 229.132812 160.117188 305.71875 162.742188 317.097656 Z M 162.742188 317.097656 " fill-opacity="1" fill-rule="nonzero"/></svg>