<svg xmlns="http://www.w3.org/2000/svg" xmlns:xlink="http://www.w3.org/1999/xlink" width="500" zoomAndPan="magnify" viewBox="0 0 375 374.999991" height="500" preserveAspectRatio="xMidYMid meet" version="1.0"><defs><clipPath id="06ef0009c7"><path d="M 46 59 L 331 59 L 331 322.6875 L 46 322.6875 Z M 46 59 " clip-rule="nonzero"/></clipPath></defs><g clip-path="url(#06ef0009c7)"><path fill="#e7e8ff" d="M 126.464844 322.285156 L 258.875 322.285156 C 274.144531 322.285156 288.890625 316.703125 300.332031 306.589844 L 314.007812 294.503906 C 337.242188 273.972656 335.300781 237.140625 310.03125 219.167969 C 289.691406 204.703125 283.773438 177.089844 296.402344 155.554688 L 297.828125 153.125 C 309.242188 133.660156 306.582031 109.019531 291.277344 92.441406 L 272.824219 72.449219 C 254.578125 52.683594 222.636719 55.257812 207.792969 77.695312 C 196.503906 94.753906 174.464844 101.03125 155.886719 92.476562 L 147.820312 88.761719 C 124.640625 78.09375 97.148438 85.886719 83.015625 107.132812 L 73.953125 120.753906 C 64.988281 134.230469 63.890625 151.46875 71.074219 165.972656 C 79.332031 182.648438 76.558594 202.679688 64.082031 216.480469 L 60.445312 220.503906 C 37.730469 245.621094 43.910156 285.289062 73.1875 302.304688 L 91.222656 312.785156 C 101.925781 319.007812 114.085938 322.285156 126.464844 322.285156 Z M 126.464844 322.285156 " fill-opacity="1" fill-rule="nonzero"/></g><path fill="#032068" d="M 322.378906 283.574219 C 322.601562 300.5625 311.042969 314.902344 305.171875 319.925781 L 296.171875 319.925781 C 302.863281 297.261719 313.921875 285.992188 320.117188 282.242188 C 321.148438 281.617188 322.363281 282.367188 322.378906 283.574219 Z M 322.378906 283.574219 " fill-opacity="1" fill-rule="nonzero"/><path fill="#ffffff" d="M 323.328125 227.839844 C 332.546875 262.574219 309.3125 303.710938 299.320312 319.023438 L 279.078125 319.023438 C 287.773438 253.488281 302.351562 237.5625 320.78125 226.796875 C 321.773438 226.21875 323.035156 226.730469 323.328125 227.839844 Z M 323.328125 227.839844 " fill-opacity="1" fill-rule="nonzero"/><path fill="#032068" d="M 321.234375 227.578125 C 321.722656 227.292969 322.320312 227.546875 322.460938 228.070312 C 327 245.183594 323.558594 263.945312 317.679688 280.410156 C 311.910156 296.570312 303.832031 310.414062 298.835938 318.125 L 280.105469 318.125 C 284.433594 285.992188 290.1875 266.03125 297.078125 252.789062 C 304.015625 239.453125 312.128906 232.894531 321.234375 227.578125 Z M 324.199219 227.609375 C 323.75 225.910156 321.820312 225.148438 320.328125 226.019531 C 311.003906 231.464844 302.613281 238.25 295.480469 251.953125 C 288.375 265.609375 282.539062 286.097656 278.1875 318.90625 L 278.050781 319.925781 L 299.808594 319.925781 L 300.074219 319.519531 C 305.09375 311.828125 313.4375 297.648438 319.375 281.019531 C 325.308594 264.402344 328.875 245.230469 324.199219 227.609375 Z M 324.199219 227.609375 " fill-opacity="1" fill-rule="evenodd"/><path fill="#032068" d="M 290.6875 249.207031 C 298.648438 278.316406 289.535156 308.566406 283.578125 319.925781 L 268.730469 319.925781 C 265.394531 284.453125 278.964844 258.65625 287.886719 248.511719 C 288.769531 247.511719 290.335938 247.921875 290.6875 249.207031 Z M 290.6875 249.207031 " fill-opacity="1" fill-rule="nonzero"/><path fill="#032068" d="M 310.726562 252.554688 L 315.570312 238.917969 L 317.265625 239.523438 L 306.171875 270.757812 L 313.457031 268.566406 L 313.976562 270.292969 L 305.421875 272.867188 L 295.335938 301.273438 L 304.414062 297.890625 L 305.042969 299.582031 L 294.546875 303.492188 L 288.921875 319.328125 L 287.226562 318.722656 L 298.648438 286.5625 L 294.425781 274.691406 L 296.121094 274.085938 L 299.601562 283.875 L 309.707031 255.425781 L 306.558594 244.890625 L 308.28125 244.371094 Z M 310.726562 252.554688 " fill-opacity="1" fill-rule="evenodd"/><path fill="#ffffff" d="M 283.09375 272.449219 L 285.390625 259.800781 L 287.160156 260.121094 L 282.503906 285.804688 L 288.554688 282.609375 L 289.394531 284.203125 L 282.09375 288.058594 L 278.097656 310.082031 L 283.101562 306.140625 L 284.214844 307.558594 L 277.613281 312.757812 L 276.363281 319.636719 L 274.59375 319.3125 L 277.792969 301.671875 L 272.515625 294.777344 L 273.945312 293.679688 L 278.230469 299.277344 L 282.691406 274.671875 L 278.417969 270.042969 L 279.738281 268.816406 Z M 283.09375 272.449219 " fill-opacity="1" fill-rule="evenodd"/><path fill="#ffffff" d="M 124.265625 106.832031 L 127.726562 107.667969 C 128.339844 107.820312 128.402344 108.671875 127.816406 108.910156 L 124.589844 110.210938 C 124.394531 110.289062 124.25 110.457031 124.203125 110.660156 L 123.304688 114.359375 C 123.160156 114.957031 122.347656 115.042969 122.082031 114.488281 L 120.417969 111.023438 C 120.335938 110.851562 120.183594 110.726562 120.007812 110.675781 L 115.9375 109.527344 C 115.335938 109.359375 115.296875 108.515625 115.882812 108.292969 L 119.582031 106.875 C 119.761719 106.804688 119.902344 106.660156 119.964844 106.476562 L 121.367188 102.402344 C 121.574219 101.800781 122.429688 101.820312 122.609375 102.429688 L 123.792969 106.382812 C 123.859375 106.605469 124.039062 106.777344 124.265625 106.832031 Z M 124.265625 106.832031 " fill-opacity="1" fill-rule="nonzero"/><path fill="#ffffff" d="M 96.601562 140.976562 L 97.496094 141.699219 C 97.988281 142.101562 97.679688 142.894531 97.046875 142.855469 L 95.929688 142.789062 C 95.722656 142.777344 95.519531 142.867188 95.386719 143.03125 L 94.507812 144.113281 C 94.121094 144.589844 93.351562 144.316406 93.347656 143.703125 L 93.34375 142.269531 C 93.339844 142.082031 93.261719 141.902344 93.121094 141.78125 L 91.910156 140.722656 C 91.441406 140.308594 91.765625 139.53125 92.390625 139.582031 L 93.832031 139.695312 C 94.023438 139.710938 94.214844 139.640625 94.347656 139.5 L 95.488281 138.339844 C 95.929688 137.886719 96.695312 138.269531 96.597656 138.898438 L 96.371094 140.371094 C 96.332031 140.597656 96.421875 140.828125 96.601562 140.976562 Z M 96.601562 140.976562 " fill-opacity="1" fill-rule="nonzero"/><path fill="#5e9af4" d="M 312.546875 193.894531 L 309.957031 197.410156 C 309.796875 197.625 309.539062 197.726562 309.289062 197.679688 L 306.085938 197.042969 C 305.398438 196.90625 304.980469 197.824219 305.511719 198.308594 L 308.03125 200.597656 C 308.214844 200.765625 308.300781 201.023438 308.257812 201.277344 L 307.628906 205.054688 C 307.507812 205.765625 308.332031 206.203125 308.800781 205.679688 L 311.386719 202.777344 C 311.539062 202.605469 311.757812 202.523438 311.976562 202.554688 L 314.972656 202.988281 C 315.644531 203.085938 316.027344 202.195312 315.515625 201.71875 L 313.289062 199.660156 C 313.109375 199.496094 313.023438 199.246094 313.0625 198.996094 L 313.765625 194.457031 C 313.878906 193.714844 312.984375 193.300781 312.546875 193.894531 Z M 312.546875 193.894531 " fill-opacity="1" fill-rule="nonzero"/><path fill="#ffffff" d="M 155.875 100.761719 C 155.875 95.554688 160.097656 91.335938 165.300781 91.335938 L 272.550781 91.335938 C 277.757812 91.335938 281.976562 95.554688 281.976562 100.761719 L 281.976562 310.46875 C 281.976562 315.675781 277.757812 319.894531 272.550781 319.894531 L 165.300781 319.894531 C 160.097656 319.894531 155.875 315.675781 155.875 310.46875 Z M 155.875 100.761719 " fill-opacity="1" fill-rule="nonzero"/><path fill="#032068" d="M 155.089844 100.761719 C 155.089844 95.121094 159.664062 90.546875 165.304688 90.546875 L 272.550781 90.546875 C 278.191406 90.546875 282.765625 95.121094 282.765625 100.761719 L 282.765625 310.46875 C 282.765625 316.109375 278.191406 320.679688 272.550781 320.679688 L 165.304688 320.679688 C 159.664062 320.679688 155.089844 316.109375 155.089844 310.46875 Z M 165.304688 92.121094 C 160.53125 92.121094 156.660156 95.988281 156.660156 100.761719 L 156.660156 310.46875 C 156.660156 315.242188 160.53125 319.109375 165.304688 319.109375 L 272.550781 319.109375 C 277.324219 319.109375 281.191406 315.242188 281.191406 310.46875 L 281.191406 100.761719 C 281.191406 95.988281 277.324219 92.121094 272.550781 92.121094 Z M 165.304688 92.121094 " fill-opacity="1" fill-rule="evenodd"/><path fill="#e7e8ff" d="M 255.644531 175.378906 C 255.644531 195.769531 239.113281 212.300781 218.722656 212.300781 C 198.332031 212.300781 181.800781 195.769531 181.800781 175.378906 C 181.800781 154.984375 198.332031 138.457031 218.722656 138.457031 C 239.113281 138.457031 255.644531 154.984375 255.644531 175.378906 Z M 255.644531 175.378906 " fill-opacity="1" fill-rule="nonzero"/><path fill="#032068" d="M 193.851562 98.996094 L 189.765625 91.332031 L 248.089844 91.332031 L 243.285156 99.34375 C 241.863281 101.707031 239.308594 103.15625 236.546875 103.15625 L 200.785156 103.15625 C 197.882812 103.15625 195.21875 101.558594 193.851562 98.996094 Z M 193.851562 98.996094 " fill-opacity="1" fill-rule="nonzero"/><path fill="#032068" d="M 280.433594 96.0625 L 156.617188 96.0625 C 160.714844 91.964844 164.628906 91.203125 166.074219 91.332031 L 270.972656 91.332031 C 276.019531 91.332031 279.382812 94.484375 280.433594 96.0625 Z M 280.433594 96.0625 " fill-opacity="1" fill-rule="nonzero"/><path fill="#032068" d="M 280.335938 315.414062 L 157.445312 315.414062 C 161.707031 319.578125 164.167969 320.351562 165.667969 320.21875 L 272.113281 320.21875 C 277.355469 320.21875 279.246094 317.015625 280.335938 315.414062 Z M 280.335938 315.414062 " fill-opacity="1" fill-rule="nonzero"/><path fill="#5e9af4" d="M 173.945312 121.171875 C 173.945312 120.304688 174.648438 119.601562 175.515625 119.601562 L 217.351562 119.601562 C 218.21875 119.601562 218.921875 120.304688 218.921875 121.171875 L 218.921875 122.847656 C 218.921875 123.71875 218.21875 124.421875 217.351562 124.421875 L 175.515625 124.421875 C 174.648438 124.421875 173.945312 123.71875 173.945312 122.847656 Z M 173.945312 121.171875 " fill-opacity="1" fill-rule="nonzero"/><path fill="#032068" d="M 173.945312 227.226562 C 173.945312 226.359375 174.648438 225.65625 175.515625 225.65625 L 217.351562 225.65625 C 218.21875 225.65625 218.921875 226.359375 218.921875 227.226562 L 218.921875 228.902344 C 218.921875 229.769531 218.21875 230.476562 217.351562 230.476562 L 175.515625 230.476562 C 174.648438 230.476562 173.945312 229.769531 173.945312 228.902344 Z M 173.945312 227.226562 " fill-opacity="1" fill-rule="nonzero"/><path fill="#032068" d="M 173.945312 268.863281 C 173.945312 267.996094 174.648438 267.292969 175.515625 267.292969 L 200.652344 267.292969 C 201.519531 267.292969 202.222656 267.996094 202.222656 268.863281 L 202.222656 270.433594 C 202.222656 271.300781 201.519531 272.003906 200.652344 272.003906 L 175.515625 272.003906 C 174.648438 272.003906 173.945312 271.300781 173.945312 270.433594 Z M 173.945312 268.863281 " fill-opacity="1" fill-rule="nonzero"/><path fill="#e7e8ff" d="M 173.945312 239.011719 C 173.945312 238.144531 174.648438 237.441406 175.515625 237.441406 L 259.574219 237.441406 C 260.441406 237.441406 261.144531 238.144531 261.144531 239.011719 L 261.144531 254.722656 C 261.144531 255.589844 260.441406 256.292969 259.574219 256.292969 L 175.515625 256.292969 C 174.648438 256.292969 173.945312 255.589844 173.945312 254.722656 Z M 173.945312 239.011719 " fill-opacity="1" fill-rule="nonzero"/><path fill="#e7e8ff" d="M 173.945312 279.863281 C 173.945312 278.992188 174.648438 278.289062 175.515625 278.289062 L 259.574219 278.289062 C 260.441406 278.289062 261.144531 278.992188 261.144531 279.863281 L 261.144531 295.574219 C 261.144531 296.441406 260.441406 297.144531 259.574219 297.144531 L 175.515625 297.144531 C 174.648438 297.144531 173.945312 296.441406 173.945312 295.574219 Z M 173.945312 279.863281 " fill-opacity="1" fill-rule="nonzero"/><path fill="#032068" d="M 271.554688 102.566406 L 273.125 102.566406 L 273.125 108.992188 L 271.554688 108.992188 Z M 271.554688 102.566406 " fill-opacity="1" fill-rule="evenodd"/><path fill="#032068" d="M 267.539062 103.367188 L 269.109375 103.367188 L 269.109375 108.992188 L 267.539062 108.992188 Z M 267.539062 103.367188 " fill-opacity="1" fill-rule="evenodd"/><path fill="#032068" d="M 263.523438 104.972656 L 265.09375 104.972656 L 265.09375 108.988281 L 263.523438 108.988281 Z M 263.523438 104.972656 " fill-opacity="1" fill-rule="evenodd"/><path fill="#032068" d="M 259.507812 106.582031 L 261.078125 106.582031 L 261.078125 108.992188 L 259.507812 108.992188 Z M 259.507812 106.582031 " fill-opacity="1" fill-rule="evenodd"/><path fill="#ffffff" d="M 219.078125 175.824219 C 208.683594 175.824219 200.121094 183.773438 198.972656 194.007812 C 198.824219 195.300781 199.894531 196.363281 201.195312 196.363281 L 236.957031 196.363281 C 238.257812 196.363281 239.328125 195.300781 239.183594 194.007812 C 238.03125 183.773438 229.46875 175.824219 219.078125 175.824219 Z M 219.078125 175.824219 " fill-opacity="1" fill-rule="nonzero"/><path fill="#ffffff" d="M 229.042969 163.742188 C 229.042969 169.078125 224.714844 173.40625 219.378906 173.40625 C 214.039062 173.40625 209.710938 169.078125 209.710938 163.742188 C 209.710938 158.402344 214.039062 154.078125 219.378906 154.078125 C 224.714844 154.078125 229.042969 158.402344 229.042969 163.742188 Z M 229.042969 163.742188 " fill-opacity="1" fill-rule="nonzero"/><path fill="#efcb96" d="M 137.089844 195.046875 L 140.28125 204.921875 C 141.558594 209.558594 137.089844 214.445312 126.449219 214.445312 C 117.9375 214.445312 116.238281 209.585938 116.664062 205.648438 L 119.214844 192.09375 C 117.085938 189.988281 115.386719 188.722656 115.386719 178.601562 C 115.386719 165.949219 122.195312 161.308594 130.28125 161.308594 C 138.367188 161.308594 145.175781 168.050781 145.175781 180.285156 C 145.175781 190.832031 139.5 194.203125 137.089844 195.046875 Z M 137.089844 195.046875 " fill-opacity="1" fill-rule="nonzero"/><path fill="#032068" d="M 157.28125 185.796875 C 163.613281 192.402344 162.765625 208.660156 161.792969 213.613281 C 151.539062 206.007812 144.601562 203.492188 141.007812 203.203125 C 140.429688 203.15625 140.324219 204.5 139.917969 204.558594 L 136.871094 194.464844 C 141.453125 193.226562 144.367188 189.101562 144.785156 179.609375 C 145.117188 172.011719 141.3125 166.8125 139.371094 165.160156 C 132.703125 164.75 129.371094 173.003906 127.289062 176.304688 C 125.621094 178.945312 124.371094 178.507812 123.957031 177.957031 C 121.871094 173.003906 118.125 172.589844 117.289062 177.957031 C 116.625 182.25 119.789062 184.421875 121.457031 184.972656 L 116.664062 206.015625 C 116.105469 206.046875 115.574219 204.191406 115.574219 203.367188 C 106.671875 204.355469 96.890625 209.0625 93.972656 211.015625 C 92.722656 197.808594 104.792969 187.863281 108.125 179.609375 C 111.457031 171.351562 106.875 167.226562 110.207031 161.859375 C 112.679688 157.882812 117.289062 157.320312 120.207031 156.496094 C 123.121094 155.667969 124.789062 152.367188 128.121094 150.714844 C 133.953125 148.652344 139.507812 153.742188 141.035156 157.320312 C 142.007812 157.183594 144.785156 157.566406 148.117188 160.207031 C 157.699219 166.8125 149.367188 177.542969 157.28125 185.796875 Z M 157.28125 185.796875 " fill-opacity="1" fill-rule="nonzero"/><path fill="#032068" d="M 128.625 194.519531 C 133.589844 195.683594 136.484375 195.246094 137.3125 194.882812 L 138.554688 198.878906 C 133.257812 199.460938 129.726562 196.214844 128.625 194.519531 Z M 128.625 194.519531 " fill-opacity="1" fill-rule="nonzero"/><path fill="#5e9af4" d="M 127.511719 210.625 C 135.867188 210.625 139.789062 205.480469 140.707031 202.902344 C 156.648438 202.902344 169.84375 213.9375 175.890625 221.660156 C 181.9375 229.382812 204.480469 270.199219 198.980469 286.746094 C 194.582031 299.984375 183.953125 302.007812 178.089844 301.089844 L 179.0625 318.636719 C 179.132812 319.890625 178.136719 320.945312 176.886719 320.945312 L 96.175781 320.945312 C 87.746094 321.496094 69.347656 321.71875 63.191406 318.1875 C 55.492188 313.773438 48.347656 291.160156 63.191406 246.480469 C 75.066406 210.738281 102.957031 202.535156 115.417969 202.902344 C 115.96875 205.480469 119.15625 210.625 127.511719 210.625 Z M 127.511719 210.625 " fill-opacity="1" fill-rule="nonzero"/><path fill="#032068" d="M 87.476562 320.980469 C 74.222656 304.769531 60.210938 298.988281 54.859375 298.121094 C 54.859375 303.316406 57.449219 313.1875 62.109375 317.863281 C 65.835938 321.601562 80.574219 321.5 87.476562 320.980469 Z M 87.476562 320.980469 " fill-opacity="1" fill-rule="nonzero"/><path fill="#032068" d="M 189.988281 299.160156 C 198.683594 295.835938 200.167969 283.925781 199.824219 278.382812 C 191.953125 282.125 181.359375 294.832031 177.042969 300.71875 C 177.734375 301.585938 181.289062 302.484375 189.988281 299.160156 Z M 189.988281 299.160156 " fill-opacity="1" fill-rule="nonzero"/><path fill="#032068" d="M 126.414062 261.375 C 122.566406 263.027344 93.976562 276.449219 80.78125 282.886719 C 82.433594 280.128906 89.03125 275.714844 90.679688 274.0625 C 92.328125 272.40625 98.375 253.101562 98.375 255.859375 C 98.375 258.617188 95.078125 271.304688 96.726562 271.304688 C 98.375 271.304688 121.464844 261.375 126.414062 261.375 Z M 126.414062 261.375 " fill-opacity="1" fill-rule="nonzero"/><path fill="#032068" d="M 137.957031 277.371094 C 114.648438 308.699219 95.625 319.84375 89.03125 321.496094 L 100.574219 321.496094 C 120.367188 306.054688 133.742188 285.644531 137.957031 277.371094 Z M 137.957031 277.371094 " fill-opacity="1" fill-rule="nonzero"/><path fill="#032068" d="M 166.546875 271.855469 C 167.425781 282.445312 174.976562 295.757812 178.640625 301.089844 L 178.640625 306.054688 C 170.285156 296.785156 167.09375 279.394531 166.546875 271.855469 Z M 166.546875 271.855469 " fill-opacity="1" fill-rule="nonzero"/><path fill="#032068" d="M 176.992188 256.960938 C 180.070312 258.726562 185.605469 262.84375 187.984375 264.683594 L 179.191406 254.203125 C 178.75 255.96875 177.539062 256.777344 176.992188 256.960938 Z M 176.992188 256.960938 " fill-opacity="1" fill-rule="nonzero"/><path fill="#ffffff" d="M 144.492188 236.609375 L 140.253906 278.0625 C 140.207031 278.542969 140.632812 278.9375 141.105469 278.855469 L 161.082031 275.257812 C 161.390625 275.199219 161.628906 274.957031 161.675781 274.644531 L 167.511719 235.246094 C 167.578125 234.785156 167.207031 234.378906 166.742188 234.410156 L 145.164062 235.957031 C 144.8125 235.980469 144.527344 236.257812 144.492188 236.609375 Z M 144.492188 236.609375 " fill-opacity="1" fill-rule="nonzero"/><path fill="#032068" d="M 166.6875 233.683594 C 167.617188 233.617188 168.367188 234.429688 168.230469 235.351562 L 162.390625 274.753906 C 162.300781 275.371094 161.824219 275.863281 161.210938 275.972656 L 141.234375 279.570312 C 140.28125 279.742188 139.433594 278.953125 139.53125 277.988281 L 143.769531 236.535156 C 143.839844 235.832031 144.40625 235.28125 145.113281 235.230469 Z M 166.792969 235.136719 L 145.214844 236.683594 L 140.976562 278.136719 L 160.953125 274.539062 Z M 166.792969 235.136719 " fill-opacity="1" fill-rule="evenodd"/><path fill="#efcb96" d="M 173.140625 256.960938 L 166.546875 266.890625 C 157.75 267.441406 156.101562 262.476562 157.75 254.753906 C 159.070312 248.578125 163.980469 248.503906 165.996094 249.238281 L 167.09375 244.828125 C 173.140625 249.789062 173.140625 254.570312 173.140625 256.960938 Z M 173.140625 256.960938 " fill-opacity="1" fill-rule="nonzero"/><path fill="#efcb96" d="M 134.660156 255.859375 C 133.339844 259.390625 130.8125 261.742188 129.710938 262.476562 L 136.859375 273.507812 C 139.058594 271.304688 141.804688 271.304688 147.851562 268.546875 C 153.902344 265.789062 155.550781 255.859375 153.902344 250.34375 C 152.582031 245.929688 144.921875 249.238281 141.804688 251.445312 L 142.355469 245.378906 C 138.507812 247.03125 136.308594 251.445312 134.660156 255.859375 Z M 134.660156 255.859375 " fill-opacity="1" fill-rule="nonzero"/><path fill="#ffffff" d="M 326.347656 152.597656 C 326.347656 167.347656 314.390625 179.304688 299.636719 179.304688 C 284.886719 179.304688 272.929688 167.347656 272.929688 152.597656 C 272.929688 137.84375 284.886719 125.886719 299.636719 125.886719 C 314.390625 125.886719 326.347656 137.84375 326.347656 152.597656 Z M 326.347656 152.597656 " fill-opacity="1" fill-rule="nonzero"/><path fill="#032068" d="M 299.636719 126.542969 C 285.25 126.542969 273.585938 138.207031 273.585938 152.597656 C 273.585938 166.984375 285.25 178.648438 299.636719 178.648438 C 314.027344 178.648438 325.691406 166.984375 325.691406 152.597656 C 325.691406 138.207031 314.027344 126.542969 299.636719 126.542969 Z M 272.269531 152.597656 C 272.269531 137.480469 284.523438 125.230469 299.636719 125.230469 C 314.75 125.230469 327.003906 137.480469 327.003906 152.597656 C 327.003906 167.710938 314.75 179.964844 299.636719 179.964844 C 284.523438 179.964844 272.269531 167.710938 272.269531 152.597656 Z M 272.269531 152.597656 " fill-opacity="1" fill-rule="evenodd"/><path fill="#032068" d="M 299.953125 136.0625 C 294.859375 136.0625 290.734375 140.257812 290.734375 145.433594 L 290.734375 151.851562 C 290.734375 152.613281 291.351562 153.230469 292.113281 153.230469 C 292.871094 153.230469 293.492188 152.613281 293.492188 151.851562 L 293.492188 145.261719 C 293.492188 141.632812 296.382812 138.6875 299.953125 138.6875 C 303.523438 138.6875 306.417969 141.632812 306.417969 145.261719 L 306.417969 151.507812 C 306.417969 152.269531 307.035156 152.886719 307.796875 152.886719 C 308.558594 152.886719 309.175781 152.269531 309.175781 151.507812 L 309.175781 145.433594 C 309.175781 140.257812 305.046875 136.0625 299.953125 136.0625 Z M 299.953125 136.0625 " fill-opacity="1" fill-rule="evenodd"/><path fill="#5e9af4" d="M 288.1875 152.023438 C 288.1875 150.933594 289.070312 150.050781 290.160156 150.050781 L 309.75 150.050781 C 310.835938 150.050781 311.71875 150.933594 311.71875 152.023438 L 311.71875 166.523438 C 311.71875 167.613281 310.835938 168.496094 309.75 168.496094 L 290.160156 168.496094 C 289.070312 168.496094 288.1875 167.613281 288.1875 166.523438 Z M 288.1875 152.023438 " fill-opacity="1" fill-rule="nonzero"/><path fill="#ffffff" d="M 301.453125 160.035156 C 302 159.597656 302.347656 158.925781 302.347656 158.171875 C 302.347656 156.847656 301.273438 155.777344 299.953125 155.777344 C 298.628906 155.777344 297.558594 156.847656 297.558594 158.171875 C 297.558594 158.992188 297.972656 159.71875 298.601562 160.148438 L 298.070312 162.390625 C 297.988281 162.726562 298.242188 163.046875 298.585938 163.046875 L 301.496094 163.046875 C 301.839844 163.046875 302.09375 162.726562 302.015625 162.390625 Z M 301.453125 160.035156 " fill-opacity="1" fill-rule="evenodd"/></svg>