<svg xmlns="http://www.w3.org/2000/svg" xmlns:xlink="http://www.w3.org/1999/xlink" width="500" zoomAndPan="magnify" viewBox="0 0 375 374.999991" height="500" preserveAspectRatio="xMidYMid meet" version="1.0"><defs><clipPath id="4e6750c945"><path d="M 44 81 L 307 81 L 307 303.5625 L 44 303.5625 Z M 44 81 " clip-rule="nonzero"/></clipPath><clipPath id="1e7a7ca643"><path d="M 201 288 L 284 288 L 284 303.5625 L 201 303.5625 Z M 201 288 " clip-rule="nonzero"/></clipPath><clipPath id="ce76d8e6f5"><path d="M 262 105 L 337.5 105 L 337.5 181 L 262 181 Z M 262 105 " clip-rule="nonzero"/></clipPath></defs><g clip-path="url(#4e6750c945)"><path fill="#e7e8ff" d="M 124.941406 303.128906 L 255.867188 303.128906 C 267.789062 303.128906 279.304688 298.820312 288.296875 291 L 289.988281 289.527344 C 311.875 270.484375 311.667969 236.449219 289.546875 217.675781 L 288.046875 216.402344 C 279.289062 208.972656 273.894531 198.335938 273.078125 186.886719 L 268.78125 126.609375 C 267.785156 112.632812 250.640625 106.507812 240.996094 116.675781 C 234.828125 123.175781 224.542969 123.40625 218.09375 117.1875 L 193.25 93.238281 C 171.117188 71.898438 134.339844 80.179688 123.515625 108.945312 C 121.109375 115.34375 117.199219 121.070312 112.117188 125.648438 L 64.242188 168.746094 C 41.386719 189.320312 37.488281 223.695312 55.160156 248.855469 L 75.101562 277.242188 C 86.5 293.46875 105.097656 303.128906 124.941406 303.128906 Z M 124.941406 303.128906 " fill-opacity="1" fill-rule="nonzero"/></g><path fill="#032068" d="M 48.5625 267.980469 C 48.359375 283.460938 58.917969 296.53125 64.28125 301.109375 L 72.5 301.109375 C 66.390625 280.453125 56.289062 270.183594 50.628906 266.765625 C 49.6875 266.195312 48.578125 266.878906 48.5625 267.980469 Z M 48.5625 267.980469 " fill-opacity="1" fill-rule="nonzero"/><path fill="#ffffff" d="M 47.695312 217.1875 C 39.273438 248.839844 60.496094 286.332031 69.621094 300.289062 L 88.113281 300.289062 C 80.167969 240.5625 66.855469 226.046875 50.019531 216.238281 C 49.117188 215.710938 47.964844 216.175781 47.695312 217.1875 Z M 47.695312 217.1875 " fill-opacity="1" fill-rule="nonzero"/><path fill="#032068" d="M 49.605469 216.945312 C 49.164062 216.6875 48.617188 216.921875 48.488281 217.398438 C 44.339844 232.992188 47.484375 250.089844 52.851562 265.097656 C 58.121094 279.824219 65.503906 292.441406 70.066406 299.464844 L 87.171875 299.464844 C 83.21875 270.183594 77.964844 251.992188 71.671875 239.921875 C 65.332031 227.769531 57.921875 221.792969 49.605469 216.945312 Z M 46.898438 216.972656 C 47.3125 215.429688 49.070312 214.734375 50.433594 215.527344 C 58.953125 220.488281 66.617188 226.675781 73.128906 239.164062 C 79.621094 251.609375 84.949219 270.28125 88.925781 300.179688 L 89.050781 301.109375 L 69.175781 301.109375 L 68.933594 300.738281 C 64.351562 293.730469 56.726562 280.808594 51.304688 265.652344 C 45.886719 250.507812 42.628906 233.035156 46.898438 216.972656 Z M 46.898438 216.972656 " fill-opacity="1" fill-rule="evenodd"/><path fill="#032068" d="M 77.507812 236.660156 C 70.238281 263.1875 78.5625 290.753906 84.003906 301.109375 L 97.5625 301.109375 C 100.613281 268.78125 88.214844 245.269531 80.066406 236.027344 C 79.261719 235.117188 77.832031 235.488281 77.507812 236.660156 Z M 77.507812 236.660156 " fill-opacity="1" fill-rule="nonzero"/><path fill="#032068" d="M 59.203125 239.710938 L 54.78125 227.28125 L 53.234375 227.832031 L 63.363281 256.300781 L 56.707031 254.300781 L 56.234375 255.875 L 64.050781 258.222656 L 73.265625 284.109375 L 64.96875 281.027344 L 64.398438 282.566406 L 73.984375 286.132812 L 79.121094 300.5625 L 80.667969 300.011719 L 70.234375 270.703125 L 74.09375 259.882812 L 72.546875 259.332031 L 69.363281 268.253906 L 60.136719 242.328125 L 63.011719 232.726562 L 61.4375 232.253906 Z M 59.203125 239.710938 " fill-opacity="1" fill-rule="evenodd"/><path fill="#ffffff" d="M 84.441406 257.84375 L 82.347656 246.3125 L 80.730469 246.605469 L 84.984375 270.011719 L 79.457031 267.097656 L 78.691406 268.554688 L 85.359375 272.066406 L 89.007812 292.140625 L 84.4375 288.546875 L 83.421875 289.839844 L 89.453125 294.578125 L 90.589844 300.847656 L 92.207031 300.550781 L 89.285156 284.472656 L 94.105469 278.1875 L 92.800781 277.1875 L 88.886719 282.289062 L 84.808594 259.867188 L 88.714844 255.648438 L 87.507812 254.53125 Z M 84.441406 257.84375 " fill-opacity="1" fill-rule="evenodd"/><path fill="#ffffff" d="M 53.976562 99.050781 C 53.976562 96.023438 56.429688 93.570312 59.460938 93.570312 L 202.171875 93.570312 C 205.199219 93.570312 207.65625 96.023438 207.65625 99.050781 L 207.65625 260.664062 C 207.65625 263.695312 205.199219 266.148438 202.171875 266.148438 L 59.460938 266.148438 C 56.429688 266.148438 53.976562 263.695312 53.976562 260.664062 Z M 53.976562 99.050781 " fill-opacity="1" fill-rule="nonzero"/><path fill="#032068" d="M 53.15625 99.050781 C 53.15625 95.570312 55.976562 92.746094 59.460938 92.746094 L 202.171875 92.746094 C 205.652344 92.746094 208.476562 95.570312 208.476562 99.050781 L 208.476562 260.664062 C 208.476562 264.148438 205.652344 266.96875 202.171875 266.96875 L 59.460938 266.96875 C 55.976562 266.96875 53.15625 264.148438 53.15625 260.664062 Z M 59.460938 94.390625 C 56.886719 94.390625 54.796875 96.476562 54.796875 99.050781 L 54.796875 260.664062 C 54.796875 263.238281 56.886719 265.328125 59.460938 265.328125 L 202.171875 265.328125 C 204.746094 265.328125 206.832031 263.238281 206.832031 260.664062 L 206.832031 99.050781 C 206.832031 96.476562 204.746094 94.390625 202.171875 94.390625 Z M 59.460938 94.390625 " fill-opacity="1" fill-rule="evenodd"/><path fill="#5e9af4" d="M 71.234375 131.371094 C 71.234375 130.011719 72.339844 128.90625 73.699219 128.90625 L 114.789062 128.90625 C 116.152344 128.90625 117.257812 130.011719 117.257812 131.371094 C 117.257812 132.734375 116.152344 133.835938 114.789062 133.835938 L 73.699219 133.835938 C 72.339844 133.835938 71.234375 132.734375 71.234375 131.371094 Z M 71.234375 131.371094 " fill-opacity="1" fill-rule="nonzero"/><path fill="#032068" d="M 53.976562 99.050781 C 53.976562 96.023438 56.429688 93.570312 59.460938 93.570312 L 202.171875 93.570312 C 205.199219 93.570312 207.65625 96.023438 207.65625 99.050781 L 207.65625 112.46875 L 53.976562 112.46875 Z M 53.976562 99.050781 " fill-opacity="1" fill-rule="nonzero"/><path fill="#ffffff" d="M 71.324219 103.152344 C 71.324219 105.421875 69.484375 107.261719 67.214844 107.261719 C 64.945312 107.261719 63.105469 105.421875 63.105469 103.152344 C 63.105469 100.886719 64.945312 99.046875 67.214844 99.046875 C 69.484375 99.046875 71.324219 100.886719 71.324219 103.152344 Z M 71.324219 103.152344 " fill-opacity="1" fill-rule="nonzero"/><path fill="#ffffff" d="M 85.015625 103.152344 C 85.015625 105.421875 83.175781 107.261719 80.910156 107.261719 C 78.640625 107.261719 76.800781 105.421875 76.800781 103.152344 C 76.800781 100.886719 78.640625 99.046875 80.910156 99.046875 C 83.175781 99.046875 85.015625 100.886719 85.015625 103.152344 Z M 85.015625 103.152344 " fill-opacity="1" fill-rule="nonzero"/><path fill="#ffffff" d="M 98.710938 103.152344 C 98.710938 105.421875 96.871094 107.261719 94.601562 107.261719 C 92.332031 107.261719 90.492188 105.421875 90.492188 103.152344 C 90.492188 100.886719 92.332031 99.046875 94.601562 99.046875 C 96.871094 99.046875 98.710938 100.886719 98.710938 103.152344 Z M 98.710938 103.152344 " fill-opacity="1" fill-rule="nonzero"/><path fill="#e7e8ff" d="M 72.878906 150.273438 C 72.878906 148.910156 73.980469 147.808594 75.34375 147.808594 L 118.078125 147.808594 C 119.441406 147.808594 120.542969 148.910156 120.542969 150.273438 L 120.542969 188.898438 C 120.542969 190.261719 119.441406 191.363281 118.078125 191.363281 L 75.34375 191.363281 C 73.980469 191.363281 72.878906 190.261719 72.878906 188.898438 Z M 72.878906 150.273438 " fill-opacity="1" fill-rule="nonzero"/><path fill="#e7e8ff" d="M 72.878906 206.976562 C 72.878906 205.617188 73.980469 204.511719 75.34375 204.511719 L 118.078125 204.511719 C 119.441406 204.511719 120.542969 205.617188 120.542969 206.976562 L 120.542969 245.601562 C 120.542969 246.964844 119.441406 248.070312 118.078125 248.070312 L 75.34375 248.070312 C 73.980469 248.070312 72.878906 246.964844 72.878906 245.601562 Z M 72.878906 206.976562 " fill-opacity="1" fill-rule="nonzero"/><path fill="#e7e8ff" d="M 142.730469 163.011719 C 142.730469 162.332031 143.285156 161.777344 143.964844 161.777344 L 181.769531 161.777344 C 182.449219 161.777344 183 162.332031 183 163.011719 C 183 163.691406 182.449219 164.246094 181.769531 164.246094 L 143.964844 164.246094 C 143.285156 164.246094 142.730469 163.691406 142.730469 163.011719 Z M 142.730469 163.011719 " fill-opacity="1" fill-rule="nonzero"/><path fill="#e7e8ff" d="M 142.730469 218.894531 C 142.730469 218.214844 143.285156 217.660156 143.964844 217.660156 L 181.769531 217.660156 C 182.449219 217.660156 183 218.214844 183 218.894531 C 183 219.574219 182.449219 220.128906 181.769531 220.128906 L 143.964844 220.128906 C 143.285156 220.128906 142.730469 219.574219 142.730469 218.894531 Z M 142.730469 218.894531 " fill-opacity="1" fill-rule="nonzero"/><path fill="#e7e8ff" d="M 142.730469 176.980469 C 142.730469 176.300781 143.285156 175.75 143.964844 175.75 L 163.6875 175.75 C 164.367188 175.75 164.921875 176.300781 164.921875 176.980469 C 164.921875 177.664062 164.367188 178.214844 163.6875 178.214844 L 143.964844 178.214844 C 143.285156 178.214844 142.730469 177.664062 142.730469 176.980469 Z M 142.730469 176.980469 " fill-opacity="1" fill-rule="nonzero"/><path fill="#e7e8ff" d="M 142.730469 232.863281 C 142.730469 232.183594 143.285156 231.632812 143.964844 231.632812 L 163.6875 231.632812 C 164.367188 231.632812 164.921875 232.183594 164.921875 232.863281 C 164.921875 233.546875 164.367188 234.097656 163.6875 234.097656 L 143.964844 234.097656 C 143.285156 234.097656 142.730469 233.546875 142.730469 232.863281 Z M 142.730469 232.863281 " fill-opacity="1" fill-rule="nonzero"/><path fill="#efcb96" d="M 234.566406 182.253906 L 233.75 187.972656 C 234.429688 190.558594 237.179688 195.730469 242.734375 195.730469 C 248.289062 195.730469 250.496094 190.558594 250.90625 187.972656 L 248.863281 179.804688 C 249.542969 179.804688 251.070312 177.597656 251.722656 168.777344 C 252.539062 157.753906 247.230469 152.035156 238.652344 152.851562 C 230.074219 153.667969 228.4375 161.835938 228.4375 171.226562 C 228.4375 178.742188 232.523438 181.710938 234.566406 182.253906 Z M 234.566406 182.253906 " fill-opacity="1" fill-rule="nonzero"/><g clip-path="url(#1e7a7ca643)"><path fill="#032068" d="M 201.070312 303.128906 L 202.296875 291.289062 L 283.992188 288.019531 L 283.992188 303.128906 Z M 201.070312 303.128906 " fill-opacity="1" fill-rule="nonzero"/></g><path fill="#efcb96" d="M 206.382812 158.160156 C 204.75 162.40625 202.433594 166.738281 201.480469 168.371094 L 210.058594 172.046875 C 211.828125 170.277344 216.023438 166.410156 218.636719 165.101562 C 221.902344 163.46875 221.496094 161.019531 220.679688 160.613281 C 220.023438 160.285156 217.957031 160.476562 217.003906 160.613281 C 218.910156 157.753906 221.902344 153.097656 221.902344 152.445312 C 221.902344 151.628906 219.863281 149.992188 215.777344 149.992188 C 211.691406 149.992188 208.425781 152.851562 206.382812 158.160156 Z M 206.382812 158.160156 " fill-opacity="1" fill-rule="nonzero"/><path fill="#5e9af4" d="M 242.734375 192.054688 C 248.292969 192.054688 251.042969 188.515625 251.722656 186.746094 C 273.371094 186.898438 289.300781 205.121094 291.34375 221.867188 C 292.976562 235.261719 293.542969 256.285156 287.667969 266.785156 C 288.074219 273.457031 288.320312 287.613281 286.035156 290.878906 C 283.175781 294.960938 256.625 296.1875 242.328125 296.1875 C 228.03125 296.1875 202.707031 295.371094 199.03125 290.878906 C 196.089844 287.285156 200.253906 248.546875 202.707031 229.625 C 202.296875 230.03125 199.273438 231.175781 190.453125 232.484375 C 179.421875 234.117188 169.210938 229.625 170.847656 212.882812 C 172.480469 196.136719 196.171875 168.371094 199.4375 167.554688 C 202.707031 166.738281 212.917969 170.820312 212.101562 174.496094 C 211.285156 178.171875 203.113281 194.097656 203.933594 194.097656 C 204.585938 194.097656 210.195312 191.648438 212.917969 190.421875 C 221.414062 186.5 229.527344 186.339844 232.523438 186.746094 C 233.613281 188.515625 237.179688 192.054688 242.734375 192.054688 Z M 242.734375 192.054688 " fill-opacity="1" fill-rule="nonzero"/><path fill="#032068" d="M 246.003906 172.863281 L 248.863281 180.210938 C 249.679688 179.941406 252.292969 177.109375 256.214844 167.960938 C 260.136719 158.8125 256.214844 153.804688 253.765625 152.445312 C 253.355469 148.359375 243.550781 141.417969 232.117188 143.050781 C 220.679688 144.683594 217.820312 155.710938 223.945312 159.386719 C 228.847656 162.328125 237.425781 161.15625 241.101562 160.203125 C 241.917969 161.835938 241.511719 169.59375 243.550781 166.328125 C 245.59375 163.0625 248.453125 164.695312 248.863281 167.960938 C 249.1875 170.574219 247.09375 172.316406 246.003906 172.863281 Z M 246.003906 172.863281 " fill-opacity="1" fill-rule="nonzero"/><path fill="#032068" d="M 241.511719 232.074219 C 245.1875 246.367188 254.777344 279.816406 274.851562 278.777344 L 266.425781 275.359375 C 254.007812 266.867188 244.640625 242.964844 241.511719 232.074219 Z M 241.511719 232.074219 " fill-opacity="1" fill-rule="nonzero"/><path fill="#032068" d="M 275.003906 240.242188 C 269.605469 234.84375 258.222656 223.921875 254.523438 222.027344 C 254.402344 221.972656 254.285156 221.917969 254.171875 221.867188 C 254.28125 221.910156 254.398438 221.960938 254.523438 222.027344 C 257.929688 223.605469 264.71875 227.007812 267.242188 229.214844 L 268.46875 222.683594 L 270.511719 232.074219 Z M 275.003906 240.242188 " fill-opacity="1" fill-rule="nonzero"/><path fill="#032068" d="M 186.777344 201.449219 L 205.566406 194.097656 C 202.949219 195.078125 204.476562 191.78125 205.566406 190.011719 Z M 186.777344 201.449219 " fill-opacity="1" fill-rule="nonzero"/><path fill="#032068" d="M 188.410156 232.484375 C 184.488281 220.070312 175.066406 213.972656 170.84375 212.472656 C 170.4375 215.332031 170.519531 222.4375 174.113281 227.992188 C 177.707031 233.542969 185.140625 233.300781 188.410156 232.484375 Z M 188.410156 232.484375 " fill-opacity="1" fill-rule="nonzero"/><path fill="#032068" d="M 261.933594 271.6875 C 270.757812 265.480469 282.765625 265.832031 287.667969 266.785156 C 286.441406 270.1875 282.519531 277.320312 276.640625 278.628906 C 270.757812 279.933594 264.382812 274.542969 261.933594 271.6875 Z M 261.933594 271.6875 " fill-opacity="1" fill-rule="nonzero"/><path fill="#032068" d="M 284.808594 154.535156 C 285.539062 153.652344 286.847656 153.527344 287.730469 154.261719 L 291.699219 157.542969 C 292.582031 158.277344 292.703125 159.585938 291.972656 160.46875 L 232.398438 232.375 C 231.664062 233.257812 230.355469 233.382812 229.472656 232.652344 L 225.507812 229.367188 C 224.625 228.636719 224.5 227.328125 225.234375 226.445312 Z M 284.808594 154.535156 " fill-opacity="1" fill-rule="nonzero"/><g clip-path="url(#ce76d8e6f5)"><path fill="#032068" d="M 337.5 142.644531 C 337.5 163.390625 320.675781 180.210938 299.921875 180.210938 C 279.167969 180.210938 262.34375 163.390625 262.34375 142.644531 C 262.34375 121.894531 279.167969 105.074219 299.921875 105.074219 C 320.675781 105.074219 337.5 121.894531 337.5 142.644531 Z M 337.5 142.644531 " fill-opacity="1" fill-rule="nonzero"/></g><path fill="#ffffff" d="M 329.332031 142.644531 C 329.332031 158.882812 316.164062 172.046875 299.921875 172.046875 C 283.679688 172.046875 270.511719 158.882812 270.511719 142.644531 C 270.511719 126.40625 283.679688 113.242188 299.921875 113.242188 C 316.164062 113.242188 329.332031 126.40625 329.332031 142.644531 Z M 329.332031 142.644531 " fill-opacity="1" fill-rule="nonzero"/><path fill="#e7e8ff" d="M 316.40625 137.710938 C 315.695312 135.03125 314.535156 132.726562 313.234375 131.027344 C 312.277344 129.773438 312.03125 127.96875 312.992188 126.71875 C 313.953125 125.464844 315.765625 125.226562 316.820312 126.398438 C 319.117188 128.953125 320.929688 132.453125 321.933594 136.25 C 323.238281 141.1875 323.269531 146.964844 320.925781 152.359375 C 316.785156 161.878906 307.917969 165.238281 300.972656 164.96875 C 299.394531 164.90625 298.386719 163.382812 298.695312 161.835938 C 299.003906 160.289062 300.519531 159.304688 302.097656 159.269531 C 306.9375 159.167969 312.832031 156.625 315.679688 150.078125 C 317.417969 146.085938 317.449219 141.65625 316.40625 137.710938 Z M 316.40625 137.710938 " fill-opacity="1" fill-rule="evenodd"/><path fill="#032068" d="M 203.929688 223.089844 L 202.707031 229.625 C 199.4375 230.605469 194.265625 231.667969 192.085938 232.074219 C 199.929688 229.460938 203.25 224.996094 203.929688 223.089844 Z M 203.929688 223.089844 " fill-opacity="1" fill-rule="nonzero"/><path fill="#efcb96" d="M 243.550781 228.808594 L 250.90625 222.683594 C 250.90625 221.457031 248.863281 220.230469 250.496094 216.148438 C 251.804688 212.882812 250.769531 211.25 250.089844 210.839844 C 248.046875 212.882812 246.820312 215.25 245.1875 213.289062 C 243.144531 210.839844 242.328125 205.53125 240.285156 205.53125 C 238.242188 205.53125 234.976562 211.25 234.566406 212.882812 C 234.15625 214.515625 236.199219 220.640625 238.242188 222.273438 C 239.875 223.582031 242.464844 227.175781 243.550781 228.808594 Z M 243.550781 228.808594 " fill-opacity="1" fill-rule="nonzero"/></svg>