<svg xmlns="http://www.w3.org/2000/svg" xmlns:xlink="http://www.w3.org/1999/xlink" width="500" zoomAndPan="magnify" viewBox="0 0 375 374.999991" height="500" preserveAspectRatio="xMidYMid meet" version="1.0"><defs><clipPath id="7a8831ca0b"><path d="M 56 100 L 312 100 L 312 300.9375 L 56 300.9375 Z M 56 100 " clip-rule="nonzero"/></clipPath><clipPath id="d9e50e8248"><path d="M 147 177 L 235 177 L 235 300.9375 L 147 300.9375 Z M 147 177 " clip-rule="nonzero"/></clipPath><clipPath id="b2829e40cd"><path d="M 121 252 L 163 252 L 163 300.9375 L 121 300.9375 Z M 121 252 " clip-rule="nonzero"/></clipPath><clipPath id="98accaed61"><path d="M 155 230 L 194 230 L 194 300.9375 L 155 300.9375 Z M 155 230 " clip-rule="nonzero"/></clipPath><clipPath id="1c65582574"><path d="M 164 270 L 204 270 L 204 300.9375 L 164 300.9375 Z M 164 270 " clip-rule="nonzero"/></clipPath><clipPath id="ea58fa2223"><path d="M 233 212 L 295 212 L 295 300.9375 L 233 300.9375 Z M 233 212 " clip-rule="nonzero"/></clipPath><clipPath id="74cfea2e98"><path d="M 262 212 L 336 212 L 336 300.9375 L 262 300.9375 Z M 262 212 " clip-rule="nonzero"/></clipPath><clipPath id="3de7eafb06"><path d="M 319 278 L 336 278 L 336 300.9375 L 319 300.9375 Z M 319 278 " clip-rule="nonzero"/></clipPath><clipPath id="c2a6367283"><path d="M 192 212 L 269 212 L 269 300.9375 L 192 300.9375 Z M 192 212 " clip-rule="nonzero"/></clipPath><clipPath id="d2f5002a81"><path d="M 230 250 L 244 250 L 244 300.9375 L 230 300.9375 Z M 230 250 " clip-rule="nonzero"/></clipPath><clipPath id="bcfe5e7a0b"><path d="M 239 286 L 268 286 L 268 300.9375 L 239 300.9375 Z M 239 286 " clip-rule="nonzero"/></clipPath><clipPath id="7c42bda69c"><path d="M 64 266 L 150 266 L 150 300.9375 L 64 300.9375 Z M 64 266 " clip-rule="nonzero"/></clipPath><clipPath id="638ac3b7cc"><path d="M 104 290 L 108 290 L 108 300.9375 L 104 300.9375 Z M 104 290 " clip-rule="nonzero"/></clipPath></defs><path fill="#e7e8ff" d="M 152.085938 118.527344 C 143.097656 126.121094 125.585938 124.855469 117.949219 123.273438 C 108.878906 122.164062 119.246094 115.507812 138.257812 109.46875 C 157.269531 103.425781 165.480469 94.796875 166.777344 100.40625 C 168.070312 106.015625 163.320312 109.035156 152.085938 118.527344 Z M 152.085938 118.527344 " fill-opacity="1" fill-rule="nonzero"/><g clip-path="url(#7a8831ca0b)"><path fill="#e7e8ff" d="M 272.507812 162.09375 C 276.292969 196.078125 281.761719 200.691406 304.050781 226.703125 C 321.730469 247.332031 304.492188 283.800781 293.402344 300.105469 L 129.703125 300.105469 C 120.121094 300.105469 88.878906 272.050781 82.648438 264.78125 C 80.523438 262.300781 78.074219 259.679688 75.261719 256.910156 C 40.777344 222.925781 60.542969 154.542969 84.9375 141.117188 C 109.328125 127.691406 137.085938 153.285156 180.824219 113.847656 C 224.5625 74.410156 269.003906 130.628906 272.507812 162.09375 Z M 272.507812 162.09375 " fill-opacity="1" fill-rule="nonzero"/></g><g clip-path="url(#d9e50e8248)"><path fill="#ffffff" d="M 149.179688 241.582031 C 140.554688 250.941406 171.613281 276.6875 171.613281 300.527344 L 216.910156 300.527344 C 214.609375 299.082031 210.699219 294.371094 213.460938 287.089844 C 216.910156 277.988281 238.046875 274.519531 233.734375 264.984375 C 229.421875 255.449219 219.5 264.984375 210.007812 259.351562 C 200.515625 253.714844 210.871094 248.515625 223.382812 235.945312 C 235.890625 223.378906 213.460938 224.675781 203.96875 229.445312 C 194.476562 234.210938 194.910156 225.542969 196.203125 207.339844 C 197.496094 189.136719 189.730469 174.402344 183.261719 177.867188 C 176.789062 181.335938 187.574219 221.210938 180.671875 216.875 C 173.769531 212.542969 166.867188 196.9375 164.710938 211.675781 C 162.554688 226.410156 178.515625 249.382812 171.613281 251.117188 C 164.710938 252.847656 159.964844 229.878906 149.179688 241.582031 Z M 149.179688 241.582031 " fill-opacity="1" fill-rule="nonzero"/></g><path fill="#ffffff" d="M 122.761719 255.515625 C 126.421875 280.367188 145.355469 294.726562 155.1875 299.144531 C 155.503906 299.285156 155.835938 299.351562 156.183594 299.351562 L 158.953125 299.351562 C 160.601562 299.351562 161.816406 297.808594 161.371094 296.222656 C 153.792969 269.273438 136.222656 256.910156 125.691406 253.054688 C 124.070312 252.460938 122.511719 253.8125 122.761719 255.515625 Z M 122.761719 255.515625 " fill-opacity="1" fill-rule="nonzero"/><g clip-path="url(#b2829e40cd)"><path fill="#032068" d="M 125.398438 253.847656 C 124.429688 253.492188 123.4375 254.273438 123.601562 255.394531 C 127.203125 279.863281 145.871094 294.027344 155.535156 298.371094 C 155.734375 298.460938 155.945312 298.503906 156.183594 298.503906 L 158.953125 298.503906 C 160.0625 298.503906 160.839844 297.476562 160.554688 296.453125 C 153.054688 269.785156 135.695312 257.621094 125.398438 253.847656 Z M 121.921875 255.640625 C 121.585938 253.347656 123.714844 251.425781 125.984375 252.257812 C 136.746094 256.199219 154.53125 268.761719 162.1875 295.992188 C 162.789062 298.140625 161.140625 300.199219 158.953125 300.199219 L 156.183594 300.199219 C 155.726562 300.199219 155.273438 300.113281 154.839844 299.917969 C 144.839844 295.425781 125.636719 280.867188 121.921875 255.640625 Z M 121.921875 255.640625 " fill-opacity="1" fill-rule="evenodd"/></g><path fill="#032068" d="M 138.003906 269.820312 C 135.382812 267.125 133.011719 264.96875 130.9375 263.121094 L 132.0625 261.855469 C 134.511719 264.03125 137.386719 266.65625 140.605469 270.085938 C 143 272.632812 145.578125 275.621094 148.3125 279.195312 L 148.3125 275.535156 L 150.007812 275.535156 L 150.007812 281.457031 C 152.347656 284.644531 154.785156 288.257812 157.316406 292.382812 C 158.515625 294.339844 159.730469 296.414062 160.96875 298.609375 L 159.488281 299.441406 C 158.332031 297.386719 157.191406 295.441406 156.070312 293.597656 L 150.621094 292.683594 L 150.902344 291.011719 L 154.882812 291.679688 C 152.671875 288.15625 150.53125 285.027344 148.476562 282.238281 C 145.308594 277.933594 142.339844 274.433594 139.621094 271.515625 L 134.113281 271.515625 L 134.113281 269.820312 Z M 138.003906 269.820312 " fill-opacity="1" fill-rule="evenodd"/><path fill="#032068" d="M 152.445312 212.367188 C 136.597656 245.820312 147.972656 282.503906 156.578125 298.398438 C 157.011719 299.199219 157.855469 299.679688 158.765625 299.679688 L 162.75 299.679688 C 164.085938 299.679688 165.199219 298.628906 165.28125 297.296875 C 167.875 255.101562 161.433594 225.6875 156.566406 212.507812 C 155.855469 210.578125 153.328125 210.507812 152.445312 212.367188 Z M 152.445312 212.367188 " fill-opacity="1" fill-rule="nonzero"/><path fill="#ffffff" d="M 189.152344 231.433594 C 168.839844 245.144531 158.976562 278.640625 156.074219 296.824219 C 155.832031 298.339844 157.019531 299.679688 158.558594 299.679688 L 164.425781 299.679688 C 165.085938 299.679688 165.71875 299.425781 166.183594 298.960938 C 184.722656 280.511719 191.300781 250.054688 192.632812 233.53125 C 192.789062 231.59375 190.765625 230.347656 189.152344 231.433594 Z M 189.152344 231.433594 " fill-opacity="1" fill-rule="nonzero"/><g clip-path="url(#98accaed61)"><path fill="#032068" d="M 191.785156 233.464844 C 191.890625 232.1875 190.609375 231.472656 189.628906 232.136719 L 189.152344 231.433594 L 189.628906 232.136719 C 179.667969 238.859375 172.203125 250.488281 166.863281 262.789062 C 161.527344 275.074219 158.355469 287.921875 156.910156 296.957031 C 156.753906 297.9375 157.519531 298.828125 158.558594 298.828125 L 164.425781 298.828125 C 164.867188 298.828125 165.285156 298.660156 165.585938 298.359375 C 174.730469 289.257812 180.957031 277.160156 185.058594 265.246094 C 189.160156 253.339844 191.125 241.664062 191.785156 233.464844 Z M 188.679688 230.730469 C 190.917969 229.222656 193.6875 231 193.476562 233.597656 C 192.808594 241.921875 190.816406 253.738281 186.664062 265.800781 C 182.511719 277.855469 176.175781 290.210938 166.785156 299.5625 C 166.152344 300.1875 165.300781 300.527344 164.425781 300.527344 L 158.558594 300.527344 C 156.523438 300.527344 154.910156 298.746094 155.238281 296.691406 C 156.699219 287.542969 159.90625 274.550781 165.308594 262.113281 C 170.699219 249.695312 178.324219 237.71875 188.679688 230.730469 Z M 188.679688 230.730469 " fill-opacity="1" fill-rule="evenodd"/></g><path fill="#032068" d="M 206.226562 267.273438 C 186.078125 268.027344 170.871094 284.753906 163.914062 296.054688 C 162.917969 297.675781 164.125 299.679688 166.03125 299.679688 L 173.078125 299.679688 C 173.429688 299.679688 173.777344 299.605469 174.101562 299.460938 C 187.320312 293.449219 200.761719 279.667969 207.96875 270.984375 C 209.246094 269.445312 208.226562 267.199219 206.226562 267.273438 Z M 206.226562 267.273438 " fill-opacity="1" fill-rule="nonzero"/><path fill="#ffffff" d="M 155.199219 217.824219 C 154.976562 224.585938 154.941406 231.117188 155.050781 237.355469 C 155.136719 242.183594 155.308594 246.832031 155.546875 251.273438 L 159.179688 245.40625 L 160.625 246.296875 L 155.714844 254.222656 C 156.058594 259.828125 156.503906 265.078125 157.007812 269.902344 C 157.605469 275.628906 158.28125 280.761719 158.964844 285.1875 L 162.113281 279.992188 L 163.566406 280.871094 L 159.378906 287.777344 C 160.214844 292.832031 161.035156 296.796875 161.703125 299.472656 L 160.058594 299.882812 C 159.359375 297.09375 158.511719 292.976562 157.65625 287.746094 C 156.859375 282.878906 156.054688 277.046875 155.355469 270.410156 L 149.226562 265.085938 L 150.339844 263.804688 L 155.105469 267.949219 C 154.679688 263.617188 154.304688 258.972656 154.007812 254.058594 C 153.691406 248.867188 153.464844 243.378906 153.359375 237.636719 L 149.078125 231.320312 L 150.484375 230.367188 L 153.316406 234.546875 C 153.261719 229.148438 153.3125 223.542969 153.503906 217.765625 Z M 155.199219 217.824219 " fill-opacity="1" fill-rule="evenodd"/><path fill="#032068" d="M 178.429688 257.90625 C 181.632812 250.746094 184.933594 244.035156 188.054688 238.78125 L 186.597656 237.914062 C 183.167969 243.679688 179.554688 251.132812 176.101562 258.96875 C 174.222656 263.230469 172.390625 267.613281 170.660156 271.90625 L 169.222656 264.609375 L 167.558594 264.9375 L 169.5 274.804688 C 167.710938 279.320312 166.050781 283.683594 164.589844 287.640625 C 162.890625 292.238281 161.460938 296.289062 160.40625 299.40625 L 162.011719 299.949219 C 163.039062 296.914062 164.429688 292.976562 166.078125 288.511719 L 174.695312 283.445312 L 173.835938 281.984375 L 167.011719 285.996094 C 168.28125 282.59375 169.683594 278.949219 171.171875 275.195312 C 173.15625 270.199219 175.296875 265.015625 177.503906 259.996094 L 185.304688 257.421875 L 184.773438 255.8125 Z M 178.429688 257.90625 " fill-opacity="1" fill-rule="evenodd"/><g clip-path="url(#1c65582574)"><path fill="#ffffff" d="M 203.332031 272.074219 C 198.675781 274.089844 193.945312 276.84375 189.433594 279.902344 C 186.589844 281.824219 183.835938 283.867188 181.25 285.910156 L 185.691406 285.910156 L 185.691406 287.605469 L 179.140625 287.605469 C 173.140625 292.515625 168.226562 297.257812 165.417969 300.257812 L 164.179688 299.097656 C 167.078125 296 172.140625 291.125 178.300781 286.101562 C 181.394531 283.582031 184.765625 281.019531 188.289062 278.628906 L 190.800781 273.222656 L 192.339844 273.9375 L 190.984375 276.847656 C 194.796875 274.410156 198.742188 272.214844 202.65625 270.519531 Z M 203.332031 272.074219 " fill-opacity="1" fill-rule="evenodd"/></g><path fill="#efcb96" d="M 288.320312 207.316406 L 289.820312 215.210938 L 288.320312 223.476562 C 284.449219 223.980469 276.550781 224.980469 275.953125 224.980469 C 275.351562 224.980469 270.953125 221.222656 268.828125 219.34375 L 271.078125 207.316406 C 264.78125 205.210938 262.707031 195.914062 262.457031 191.53125 C 260.957031 173.488281 272.953125 171.234375 275.203125 171.234375 C 277.449219 171.234375 291.695312 171.234375 293.570312 186.269531 C 295.070312 198.296875 290.695312 205.3125 288.320312 207.316406 Z M 288.320312 207.316406 " fill-opacity="1" fill-rule="nonzero"/><path fill="#ffffff" d="M 279.324219 220.09375 C 286.824219 220.09375 289.945312 215.585938 290.945312 213.328125 L 293.570312 214.082031 L 277.078125 299.773438 L 234.34375 299.773438 L 259.457031 218.589844 L 268.082031 213.328125 L 269.203125 213.328125 C 269.703125 215.585938 271.828125 220.09375 279.324219 220.09375 Z M 279.324219 220.09375 " fill-opacity="1" fill-rule="nonzero"/><g clip-path="url(#ea58fa2223)"><path fill="#032068" d="M 290.511719 212.398438 L 290.238281 213.015625 C 289.324219 215.078125 286.429688 219.320312 279.324219 219.320312 C 275.742188 219.320312 273.53125 218.246094 272.164062 216.988281 C 270.78125 215.714844 270.183594 214.179688 269.960938 213.160156 L 269.824219 212.554688 L 267.863281 212.554688 L 258.808594 218.082031 L 233.296875 300.546875 L 277.714844 300.546875 L 294.460938 213.53125 Z M 268.609375 214.105469 C 268.964844 215.292969 269.699219 216.820312 271.117188 218.128906 C 272.8125 219.6875 275.410156 220.871094 279.324219 220.871094 C 286.601562 220.871094 290.019531 216.804688 291.359375 214.253906 L 292.675781 214.632812 L 276.4375 299 L 235.394531 299 L 260.109375 219.101562 L 268.296875 214.105469 Z M 268.609375 214.105469 " fill-opacity="1" fill-rule="evenodd"/></g><g clip-path="url(#74cfea2e98)"><path fill="#5e9af4" d="M 278.578125 258.054688 C 280.675781 244.523438 287.945312 222.351562 291.320312 212.953125 C 297.691406 214.082031 311.863281 218.441406 317.558594 226.859375 C 323.257812 235.277344 330.929688 263.191406 334.054688 276.09375 C 337.425781 287.746094 337.425781 300.527344 324.683594 300.527344 L 266.957031 300.527344 C 260.957031 288.875 262.832031 283.238281 264.707031 280.980469 C 266.207031 279.175781 272.859375 277.722656 275.996094 277.222656 C 276.8125 270.492188 277.710938 263.640625 278.578125 258.054688 Z M 278.578125 258.054688 " fill-opacity="1" fill-rule="nonzero"/></g><path fill="#032068" d="M 299.566406 271.585938 L 293.945312 248.660156 L 295.445312 271.210938 L 267.699219 278.246094 C 265.542969 278.796875 263.5625 280.140625 262.949219 282.289062 C 261.125 288.699219 263.964844 296.082031 266.207031 298.644531 C 263.910156 296.015625 263.957031 283.238281 266.582031 281.359375 C 268.679688 279.855469 294.695312 274.96875 307.4375 272.714844 Z M 299.566406 271.585938 " fill-opacity="1" fill-rule="nonzero"/><path fill="#032068" d="M 290.570312 188.148438 C 292.070312 192.359375 287.949219 194.914062 285.699219 195.664062 L 289.792969 214.832031 L 290.179688 213.285156 C 297.90625 214.058594 306.816406 217.839844 310.0625 220.09375 C 311.9375 208.445312 304.816406 203.558594 300.691406 194.539062 C 296.570312 185.515625 299.941406 164.46875 278.953125 164.46875 C 262.15625 164.46875 259.707031 179.503906 260.582031 187.019531 C 268.082031 184.917969 272.453125 177.125 273.703125 173.488281 C 274.453125 175.371094 280.824219 192.28125 283.074219 188.148438 C 285.324219 184.015625 288.695312 182.886719 290.570312 188.148438 Z M 290.570312 188.148438 " fill-opacity="1" fill-rule="nonzero"/><path fill="#032068" d="M 255.335938 216.710938 C 260.433594 211.601562 262.457031 199.800781 262.832031 194.539062 C 264.03125 203.257812 268.828125 206.691406 271.078125 207.316406 L 269.953125 213.328125 C 263.355469 213.027344 257.460938 215.460938 255.335938 216.710938 Z M 255.335938 216.710938 " fill-opacity="1" fill-rule="nonzero"/><g clip-path="url(#3de7eafb06)"><path fill="#032068" d="M 319.433594 300.527344 C 321.234375 288.5 330.304688 280.855469 334.804688 278.726562 C 337.234375 288.554688 336.675781 300.527344 326.183594 300.527344 Z M 319.433594 300.527344 " fill-opacity="1" fill-rule="nonzero"/></g><path fill="#032068" d="M 278.933594 207.542969 C 275.335938 208.746094 271.949219 207.65625 270.699219 207.15625 L 269.925781 212.191406 C 274.722656 211.589844 277.933594 208.921875 278.933594 207.542969 Z M 278.933594 207.542969 " fill-opacity="1" fill-rule="nonzero"/><path fill="#efcb96" d="M 201.1875 235.230469 C 201.734375 237.472656 204.273438 239.050781 204.730469 239.871094 L 196.390625 247.15625 C 195.019531 244.464844 193.082031 238.6875 186.230469 237.847656 C 176.636719 236.792969 175.804688 229.589844 180.597656 228.535156 C 184.4375 227.695312 191.136719 229.050781 194.675781 229.75 L 190.632812 227.988281 C 190.070312 227.742188 189.882812 227.042969 190.246094 226.546875 C 190.445312 226.277344 190.773438 226.128906 191.109375 226.148438 C 192.488281 226.230469 195.015625 226.351562 197.074219 227.863281 C 199.101562 229.347656 200.5 232.421875 201.1875 235.230469 Z M 201.1875 235.230469 " fill-opacity="1" fill-rule="nonzero"/><g clip-path="url(#c2a6367283)"><path fill="#5e9af4" d="M 268.457031 212.953125 C 264.707031 221.722656 256.609375 243.019531 254.210938 258.054688 C 251.8125 273.089844 249.964844 292.382812 249.339844 300.527344 L 230.972656 300.527344 L 231.570312 299.023438 C 226.910156 298.984375 221.929688 297.675781 218.976562 295.640625 C 212.976562 291.503906 192.402344 253.546875 192.402344 249.035156 C 192.402344 244.523438 201.023438 237.007812 204.769531 237.007812 C 206.554688 237.007812 211.316406 241.695312 216.097656 246.40625 C 221.355469 251.582031 226.636719 256.785156 228.011719 255.800781 C 229.03125 255.070312 229.710938 252.976562 230.710938 249.894531 C 232.285156 245.046875 234.652344 237.761719 240.382812 229.492188 C 242.757812 226.058594 245.566406 223.230469 248.46875 220.964844 C 254.53125 215.144531 264.234375 213.195312 268.457031 212.953125 Z M 268.457031 212.953125 " fill-opacity="1" fill-rule="evenodd"/></g><g clip-path="url(#d2f5002a81)"><path fill="#032068" d="M 243.714844 250.164062 C 242.519531 264.773438 237.742188 290.914062 235.75 300.527344 L 230.96875 300.527344 C 233.199219 295.605469 240.527344 265.539062 243.714844 250.164062 Z M 243.714844 250.164062 " fill-opacity="1" fill-rule="nonzero"/></g><path fill="#032068" d="M 211.476562 285.867188 C 214.101562 290.378906 217.101562 296.390625 223.472656 297.894531 C 226.269531 298.828125 229.113281 299.113281 231.71875 299.039062 L 235.84375 293.507812 C 227.058594 288.453125 216.429688 286.179688 211.476562 285.867188 Z M 211.476562 285.867188 " fill-opacity="1" fill-rule="nonzero"/><g clip-path="url(#bcfe5e7a0b)"><path fill="#efcb96" d="M 239.96875 300.527344 C 239.96875 290.300781 255.085938 287.246094 262.457031 286.996094 C 262.457031 292.105469 265.082031 297.144531 267.332031 300.527344 Z M 239.96875 300.527344 " fill-opacity="1" fill-rule="nonzero"/></g><path fill="#efcb96" d="M 149.835938 286.089844 C 151.496094 284.519531 150.527344 278.90625 149.835938 276.292969 C 148.035156 273.550781 143.683594 269.476562 140.691406 275.117188 C 136.953125 282.171875 134.417969 288.703125 141.949219 292.253906 C 144.441406 293.425781 145.261719 287.261719 146.09375 286.480469 C 146.925781 285.695312 147.757812 288.046875 149.835938 286.089844 Z M 149.835938 286.089844 " fill-opacity="1" fill-rule="nonzero"/><g clip-path="url(#7c42bda69c)"><path fill="#032068" d="M 149.417969 300.113281 L 145.699219 269.992188 L 66.757812 266.691406 L 64.691406 300.113281 Z M 149.417969 300.113281 " fill-opacity="1" fill-rule="nonzero"/></g><path fill="#efcb96" d="M 95.472656 149.953125 L 92.949219 158.40625 L 93.675781 167.605469 C 97.871094 168.582031 106.421875 170.554688 107.078125 170.621094 C 107.734375 170.6875 112.976562 167.074219 115.515625 165.257812 L 114.386719 151.871094 C 121.527344 150.273438 124.835938 140.351562 125.597656 135.589844 C 129.246094 116.050781 116.339844 112.253906 113.871094 112.003906 C 111.402344 111.753906 95.777344 110.171875 92.054688 126.382812 C 89.074219 139.351562 93.089844 147.5 95.472656 149.953125 Z M 95.472656 149.953125 " fill-opacity="1" fill-rule="nonzero"/><path fill="#032068" d="M 100.828125 142.203125 C 98.214844 151.558594 95.78125 152.335938 94.894531 151.554688 C 84.132812 142.996094 86.808594 119.417969 94.746094 112.140625 C 102.078125 105.417969 106.71875 108.792969 120.621094 106.882812 C 134.527344 104.972656 138.464844 111.179688 135.246094 118.320312 C 130.613281 128.59375 119.941406 121.746094 116.9375 122.683594 C 113.933594 123.625 109.898438 126.53125 107.585938 132.933594 C 105.273438 139.335938 104.578125 138.019531 103.71875 134.199219 C 102.863281 130.382812 100.113281 124.710938 96.980469 131.027344 C 94.472656 136.082031 98.5 140.582031 100.828125 142.203125 Z M 100.828125 142.203125 " fill-opacity="1" fill-rule="nonzero"/><path fill="#5e9af4" d="M 63.867188 278.65625 C 68.824219 280.636719 98.445312 280.582031 112.636719 280.308594 C 122.542969 280.308594 141.71875 279.734375 148.289062 277.589844 C 151.386719 279.113281 157.738281 281.265625 158.003906 277.589844 C 161.808594 225.210938 155.46875 189.535156 145.699219 171.378906 C 137.433594 159.496094 121.867188 156.25 115.941406 156.113281 C 115.390625 159.140625 113.875 165.191406 105.609375 165.191406 C 97.34375 165.191406 93.898438 159.140625 92.796875 156.113281 C 87.425781 156.9375 77.503906 160.652344 73.785156 163.539062 C 70.066406 166.429688 67.171875 180.042969 65.519531 189.535156 C 63.867188 199.023438 57.667969 276.183594 63.867188 278.65625 Z M 63.867188 278.65625 " fill-opacity="1" fill-rule="nonzero"/><path fill="#ffffff" d="M 90.789062 238.09375 C 91.804688 237.414062 93.183594 237.683594 93.863281 238.699219 L 112.636719 266.578125 C 113.320312 267.59375 113.050781 268.964844 112.035156 269.648438 L 74.113281 295.09375 C 73.101562 295.777344 71.722656 295.503906 71.039062 294.492188 L 52.269531 266.609375 C 51.585938 265.597656 51.855469 264.222656 52.871094 263.542969 Z M 90.789062 238.09375 " fill-opacity="1" fill-rule="nonzero"/><path fill="#032068" d="M 90.378906 237.484375 C 91.730469 236.574219 93.566406 236.933594 94.476562 238.285156 L 113.25 266.167969 C 114.160156 267.519531 113.800781 269.351562 112.445312 270.257812 L 74.527344 295.707031 C 73.171875 296.613281 71.335938 296.253906 70.429688 294.902344 L 51.65625 267.023438 C 50.746094 265.671875 51.105469 263.839844 52.457031 262.929688 Z M 93.25 239.109375 C 92.796875 238.433594 91.878906 238.253906 91.203125 238.707031 L 53.28125 264.152344 C 52.605469 264.609375 52.425781 265.523438 52.882812 266.199219 L 71.652344 294.082031 C 72.109375 294.757812 73.027344 294.9375 73.703125 294.480469 L 111.621094 269.035156 C 112.300781 268.582031 112.480469 267.664062 112.023438 266.988281 Z M 93.25 239.109375 " fill-opacity="1" fill-rule="evenodd"/><path fill="#efcb96" d="M 96.929688 268.753906 C 94.285156 267.433594 92.796875 266.003906 92.382812 265.453125 C 90.316406 267.792969 85.9375 273.292969 84.945312 276.59375 C 83.703125 280.71875 90.316406 286.910156 92.382812 287.320312 C 94.449219 287.734375 100.648438 284.019531 101.890625 281.957031 C 102.882812 280.308594 100.648438 277.28125 99.410156 276.183594 C 100.097656 275.21875 102.550781 274.117188 101.890625 272.46875 C 101.0625 270.40625 100.234375 270.40625 96.929688 268.753906 Z M 96.929688 268.753906 " fill-opacity="1" fill-rule="nonzero"/><path fill="#5e9af4" d="M 42.789062 215.117188 C 53.535156 184.582031 67.035156 168.078125 73.785156 163.539062 C 92.960938 172.121094 87.5625 193.796875 82.464844 203.5625 C 79.570312 208.375 73.785156 219.40625 73.785156 225.019531 C 73.785156 232.03125 95.691406 259.675781 94.449219 265.453125 C 93.210938 271.230469 84.53125 278.246094 80.8125 277.417969 C 77.09375 276.59375 58.082031 259.675781 47.335938 245.234375 C 38.738281 233.683594 40.722656 220.34375 42.789062 215.117188 Z M 42.789062 215.117188 " fill-opacity="1" fill-rule="nonzero"/><path fill="#032068" d="M 145.332031 197.792969 C 148.015625 228.261719 148.988281 245.351562 149.976562 275.828125 C 151.300781 276.816406 151.667969 256.425781 150.824219 237.441406 C 150.296875 225.644531 147.949219 211.273438 145.332031 197.792969 Z M 145.332031 197.792969 " fill-opacity="1" fill-rule="nonzero"/><path fill="#032068" d="M 43.203125 214.289062 C 46.234375 218.96875 51.386719 231.867188 47.75 246.0625 C 43.890625 241.933594 37.582031 229.804688 43.203125 214.289062 Z M 43.203125 214.289062 " fill-opacity="1" fill-rule="nonzero"/><path fill="#032068" d="M 79.160156 225.84375 C 78.828125 219.242188 81.5 207.6875 82.878906 202.738281 C 82.050781 203.976562 79.738281 207.855469 77.09375 213.464844 C 73.785156 220.480469 72.960938 225.019531 75.027344 229.144531 C 75.921875 230.929688 79.359375 236.828125 83.113281 243.171875 L 84.945312 241.636719 C 82.03125 235.730469 79.371094 230.121094 79.160156 225.84375 Z M 79.160156 225.84375 " fill-opacity="1" fill-rule="nonzero"/><g clip-path="url(#638ac3b7cc)"><path fill="#ffffff" d="M 107.261719 290.210938 L 104.367188 300.527344 L 107.261719 300.527344 Z M 107.261719 290.210938 " fill-opacity="1" fill-rule="nonzero"/></g><path fill="#032068" d="M 105.691406 150.863281 C 109.503906 152.578125 112.898438 152.148438 114.324219 151.738281 L 114.972656 157.609375 C 109.777344 156.421875 106.632812 152.480469 105.691406 150.863281 Z M 105.691406 150.863281 " fill-opacity="1" fill-rule="nonzero"/><path fill="#ffffff" d="M 155.476562 88.820312 C 155.476562 87.054688 156.929688 85.625 158.722656 85.625 L 214.664062 85.625 C 216.457031 85.625 217.910156 87.054688 217.910156 88.820312 L 217.910156 112.65625 C 217.910156 114.421875 216.457031 115.851562 214.664062 115.851562 L 158.722656 115.851562 C 156.929688 115.851562 155.476562 114.421875 155.476562 112.65625 Z M 155.476562 88.820312 " fill-opacity="1" fill-rule="nonzero"/><path fill="#032068" d="M 154.828125 88.820312 C 154.828125 86.703125 156.570312 84.984375 158.722656 84.984375 L 214.664062 84.984375 C 216.816406 84.984375 218.558594 86.703125 218.558594 88.820312 L 218.558594 112.65625 C 218.558594 114.773438 216.816406 116.492188 214.664062 116.492188 L 158.722656 116.492188 C 156.570312 116.492188 154.828125 114.773438 154.828125 112.65625 Z M 158.722656 86.265625 C 157.289062 86.265625 156.125 87.410156 156.125 88.820312 L 156.125 112.65625 C 156.125 114.066406 157.289062 115.214844 158.722656 115.214844 L 214.664062 115.214844 C 216.097656 115.214844 217.261719 114.066406 217.261719 112.65625 L 217.261719 88.820312 C 217.261719 87.410156 216.097656 86.265625 214.664062 86.265625 Z M 158.722656 86.265625 " fill-opacity="1" fill-rule="evenodd"/><path fill="#5e9af4" d="M 174.1875 100.710938 C 174.1875 102.5625 172.664062 104.0625 170.785156 104.0625 C 168.90625 104.0625 167.386719 102.5625 167.386719 100.710938 C 167.386719 98.859375 168.90625 97.359375 170.785156 97.359375 C 172.664062 97.359375 174.1875 98.859375 174.1875 100.710938 Z M 174.1875 100.710938 " fill-opacity="1" fill-rule="nonzero"/><path fill="#5e9af4" d="M 190.425781 100.710938 C 190.425781 102.5625 188.902344 104.0625 187.027344 104.0625 C 185.148438 104.0625 183.625 102.5625 183.625 100.710938 C 183.625 98.859375 185.148438 97.359375 187.027344 97.359375 C 188.902344 97.359375 190.425781 98.859375 190.425781 100.710938 Z M 190.425781 100.710938 " fill-opacity="1" fill-rule="nonzero"/><path fill="#5e9af4" d="M 207.027344 100.710938 C 207.027344 102.5625 205.503906 104.0625 203.625 104.0625 C 201.75 104.0625 200.226562 102.5625 200.226562 100.710938 C 200.226562 98.859375 201.75 97.359375 203.625 97.359375 C 205.503906 97.359375 207.027344 98.859375 207.027344 100.710938 Z M 207.027344 100.710938 " fill-opacity="1" fill-rule="nonzero"/><path fill="#ffffff" d="M 293.988281 127.949219 C 293.988281 139.550781 284.582031 148.957031 272.980469 148.957031 C 261.378906 148.957031 251.972656 139.550781 251.972656 127.949219 C 251.972656 116.347656 261.378906 106.941406 272.980469 106.941406 C 284.582031 106.941406 293.988281 116.347656 293.988281 127.949219 Z M 293.988281 127.949219 " fill-opacity="1" fill-rule="nonzero"/><path fill="#032068" d="M 272.980469 107.417969 C 261.640625 107.417969 252.449219 116.609375 252.449219 127.949219 C 252.449219 139.289062 261.640625 148.480469 272.980469 148.480469 C 284.320312 148.480469 293.515625 139.289062 293.515625 127.949219 C 293.515625 116.609375 284.320312 107.417969 272.980469 107.417969 Z M 251.5 127.949219 C 251.5 116.085938 261.117188 106.46875 272.980469 106.46875 C 284.84375 106.46875 294.464844 116.085938 294.464844 127.949219 C 294.464844 139.8125 284.84375 149.433594 272.980469 149.433594 C 261.117188 149.433594 251.5 139.8125 251.5 127.949219 Z M 251.5 127.949219 " fill-opacity="1" fill-rule="evenodd"/><path fill="#5e9af4" d="M 270.011719 134.554688 C 270.011719 132.671875 270.238281 131.171875 270.691406 130.058594 C 271.144531 128.941406 271.972656 127.847656 273.171875 126.769531 C 274.382812 125.679688 275.1875 124.800781 275.589844 124.128906 C 275.988281 123.441406 276.1875 122.722656 276.1875 121.96875 C 276.1875 119.699219 275.148438 118.5625 273.070312 118.5625 C 272.085938 118.5625 271.292969 118.871094 270.691406 119.488281 C 270.105469 120.09375 269.800781 120.933594 269.773438 122.011719 L 263.976562 122.011719 C 264.003906 119.441406 264.824219 117.433594 266.4375 115.980469 C 268.0625 114.527344 270.273438 113.800781 273.070312 113.800781 C 275.894531 113.800781 278.085938 114.492188 279.644531 115.878906 C 281.203125 117.25 281.984375 119.195312 281.984375 121.707031 C 281.984375 122.851562 281.730469 123.933594 281.226562 124.957031 C 280.71875 125.964844 279.832031 127.085938 278.566406 128.324219 L 276.949219 129.875 C 275.933594 130.859375 275.355469 132.007812 275.210938 133.324219 L 275.128906 134.554688 Z M 269.433594 140.746094 C 269.433594 139.847656 269.734375 139.105469 270.332031 138.527344 C 270.945312 137.9375 271.726562 137.640625 272.671875 137.640625 C 273.617188 137.640625 274.390625 137.9375 274.988281 138.527344 C 275.601562 139.105469 275.910156 139.847656 275.910156 140.746094 C 275.910156 141.632812 275.609375 142.367188 275.007812 142.945312 C 274.421875 143.523438 273.644531 143.8125 272.671875 143.8125 C 271.699219 143.8125 270.914062 143.523438 270.3125 142.945312 C 269.726562 142.367188 269.433594 141.632812 269.433594 140.746094 Z M 269.433594 140.746094 " fill-opacity="1" fill-rule="nonzero"/><path fill="#5e9af4" d="M 184.992188 150.144531 L 185.207031 146.242188 C 185.246094 145.546875 186.152344 145.308594 186.527344 145.894531 L 188.574219 149.117188 C 188.699219 149.3125 188.910156 149.433594 189.140625 149.445312 L 193.3125 149.675781 C 193.984375 149.710938 194.238281 150.570312 193.695312 150.96875 L 190.285156 153.460938 C 190.121094 153.582031 190.015625 153.769531 189.996094 153.972656 L 189.570312 158.59375 C 189.503906 159.277344 188.605469 159.488281 188.246094 158.902344 L 185.976562 155.191406 C 185.863281 155.007812 185.679688 154.886719 185.46875 154.855469 L 180.789062 154.15625 C 180.101562 154.054688 179.949219 153.128906 180.570312 152.808594 L 184.605469 150.742188 C 184.832031 150.625 184.980469 150.398438 184.992188 150.144531 Z M 184.992188 150.144531 " fill-opacity="1" fill-rule="nonzero"/><path fill="#5e9af4" d="M 227.382812 173.183594 L 227.988281 172.074219 C 228.320312 171.464844 229.242188 171.636719 229.324219 172.332031 L 229.476562 173.546875 C 229.503906 173.773438 229.640625 173.976562 229.84375 174.085938 L 231.1875 174.820312 C 231.777344 175.140625 231.640625 176.027344 230.980469 176.152344 L 229.429688 176.445312 C 229.230469 176.484375 229.054688 176.605469 228.949219 176.78125 L 228.046875 178.300781 C 227.695312 178.890625 226.792969 178.691406 226.71875 178.007812 L 226.554688 176.429688 C 226.53125 176.21875 226.417969 176.03125 226.242188 175.910156 L 224.761719 174.914062 C 224.183594 174.527344 224.445312 173.625 225.140625 173.605469 L 226.773438 173.558594 C 227.027344 173.550781 227.261719 173.40625 227.382812 173.183594 Z M 227.382812 173.183594 " fill-opacity="1" fill-rule="nonzero"/></svg>