<svg xmlns="http://www.w3.org/2000/svg" xmlns:xlink="http://www.w3.org/1999/xlink" width="500" zoomAndPan="magnify" viewBox="0 0 375 374.999991" height="500" preserveAspectRatio="xMidYMid meet" version="1.0"><rect x="-37.5" width="450" fill="#ffffff" y="-37.499999" height="449.999989" fill-opacity="1"/><rect x="-37.5" width="450" fill="#ffffff" y="-37.499999" height="449.999989" fill-opacity="1"/><path fill="#ffffff" d="M 166.796875 112.5 L 163.980469 137.398438 L 164.917969 156.550781 L 199.652344 160.378906 L 214.675781 141.226562 L 211.859375 112.5 C 217.582031 109.164062 221.882812 100.015625 222.894531 85.6875 C 224.851562 85.050781 228.757812 82.050781 228.757812 75.15625 C 228.757812 68.261719 224.472656 65.898438 222.332031 65.582031 C 219.285156 42.335938 207.464844 33.980469 187.449219 33.980469 C 168.261719 33.980469 157.859375 46.78125 154.699219 65.582031 C 152.472656 65.261719 148.019531 66.730469 148.019531 75.15625 C 148.019531 83.582031 152.019531 85.6875 154.019531 85.6875 C 155.855469 101.921875 164.023438 110.238281 166.796875 112.5 Z M 166.796875 112.5 " fill-opacity="1" fill-rule="nonzero"/><path fill="#032068" d="M 166.25 43.886719 C 161.160156 49.121094 157.875 56.667969 156.332031 65.855469 L 156.066406 67.449219 L 154.464844 67.222656 C 153.8125 67.128906 152.675781 67.289062 151.691406 68.265625 C 150.710938 69.234375 149.675781 71.21875 149.675781 75.15625 C 149.675781 83.046875 153.273438 84.03125 154.019531 84.03125 L 155.5 84.03125 L 155.664062 85.503906 C 157.441406 101.21875 165.332031 109.167969 167.839844 111.214844 L 168.542969 111.789062 L 165.640625 137.449219 L 166.503906 155.058594 L 198.921875 158.632812 L 212.960938 140.726562 L 210.105469 111.605469 L 211.027344 111.070312 C 213.480469 109.640625 215.789062 106.859375 217.621094 102.566406 C 219.449219 98.285156 220.746094 92.605469 221.242188 85.570312 L 221.324219 84.460938 L 222.382812 84.113281 C 223.648438 83.699219 227.101562 81.339844 227.101562 75.15625 C 227.101562 69.140625 223.476562 67.425781 222.089844 67.21875 L 220.855469 67.035156 L 220.691406 65.796875 C 219.199219 54.40625 215.59375 46.957031 210.179688 42.324219 C 204.757812 37.6875 197.25 35.636719 187.449219 35.636719 C 178.257812 35.636719 171.300781 38.6875 166.25 43.886719 Z M 163.875 41.574219 C 169.613281 35.675781 177.453125 32.324219 187.449219 32.324219 C 197.664062 32.324219 206.074219 34.453125 212.332031 39.804688 C 218.394531 44.992188 222.179688 52.988281 223.820312 64.253906 C 226.695312 65.253906 230.414062 68.414062 230.414062 75.15625 C 230.414062 81.808594 227.074219 85.429688 224.472656 86.808594 C 223.90625 93.65625 222.582031 99.375 220.667969 103.867188 C 218.851562 108.117188 216.46875 111.359375 213.605469 113.351562 L 216.386719 141.726562 L 200.386719 162.128906 L 163.332031 158.042969 L 162.320312 137.34375 L 165.050781 113.1875 C 161.679688 110.164062 154.539062 101.9375 152.53125 87.128906 C 149.570312 86.273438 146.363281 82.800781 146.363281 75.15625 C 146.363281 70.664062 147.554688 67.703125 149.359375 65.910156 C 150.597656 64.683594 152.027344 64.105469 153.3125 63.9375 C 155.019531 54.910156 158.449219 47.160156 163.875 41.574219 Z M 163.875 41.574219 " fill-opacity="1" fill-rule="evenodd"/><path fill="#ffffff" d="M 121.054688 132.457031 C 132.40625 129.546875 144.699219 127.582031 156.992188 125.683594 C 158.867188 125.394531 160.828125 126.730469 161.953125 128.261719 C 167.921875 136.390625 189.425781 151.054688 189.425781 151.054688 C 189.425781 151.054688 211.464844 137.941406 217.105469 130.21875 C 218.1875 128.738281 219.878906 127.226562 221.707031 127.308594 C 229.25 127.65625 241.0625 129.101562 253.082031 131.832031 C 268.753906 134.054688 291.632812 141.582031 307.550781 164.523438 C 321.761719 185.007812 326.386719 200.785156 330.320312 220.472656 C 340.617188 271.988281 336.472656 342.980469 302.808594 343.753906 C 302.785156 354.253906 302.550781 364.210938 302.050781 373.371094 L 69.261719 373.371094 C 68.9375 364.800781 68.714844 354.976562 68.605469 344.332031 L 68.335938 345.207031 C 34.160156 345.207031 37.265625 272.273438 47.617188 220.472656 C 51.550781 200.785156 56.179688 185.007812 70.386719 164.523438 C 85.0625 143.375 105.648438 135.328125 121.054688 132.457031 Z M 121.054688 132.457031 " fill-opacity="1" fill-rule="evenodd"/><path fill="#032068" d="M 160.566406 124.847656 C 161.65625 125.460938 162.597656 126.34375 163.285156 127.277344 C 166.105469 131.117188 172.773438 136.679688 178.933594 141.390625 C 181.972656 143.714844 184.832031 145.792969 186.929688 147.285156 C 187.980469 148.03125 188.839844 148.632812 189.433594 149.046875 C 189.449219 149.058594 189.46875 149.070312 189.484375 149.082031 C 189.496094 149.074219 189.511719 149.066406 189.523438 149.058594 C 190.132812 148.691406 191.007812 148.152344 192.078125 147.480469 C 194.21875 146.136719 197.132812 144.269531 200.21875 142.164062 C 203.304688 140.054688 206.550781 137.71875 209.359375 135.441406 C 212.199219 133.144531 214.492188 130.988281 215.769531 129.238281 C 216.382812 128.398438 217.199219 127.503906 218.175781 126.820312 C 219.144531 126.140625 220.378906 125.589844 221.78125 125.652344 C 229.414062 126.003906 241.296875 127.457031 253.382812 130.199219 C 269.320312 132.472656 292.660156 140.15625 308.910156 163.578125 C 323.292969 184.308594 327.984375 200.324219 331.945312 220.144531 C 337.121094 246.050781 338.679688 276.886719 334.683594 301.410156 C 332.6875 313.660156 329.285156 324.476562 324.140625 332.316406 C 319.277344 339.734375 312.78125 344.59375 304.457031 345.320312 C 304.417969 355.269531 304.179688 364.722656 303.707031 373.457031 L 303.621094 375.023438 L 67.667969 375.023438 L 67.609375 373.429688 C 67.308594 365.511719 67.09375 356.535156 66.976562 346.824219 C 58.398438 346.359375 52.128906 341.453125 47.785156 333.820312 C 43.261719 325.871094 40.738281 314.859375 39.628906 302.410156 C 37.40625 277.480469 40.800781 246.125 45.992188 220.144531 C 49.953125 200.324219 54.644531 184.308594 69.027344 163.578125 C 84.011719 141.984375 105.023438 133.765625 120.695312 130.835938 C 132.125 127.910156 144.476562 125.9375 156.738281 124.046875 C 158.148438 123.828125 159.484375 124.234375 160.566406 124.847656 Z M 68.335938 344.035156 L 70.261719 344.316406 C 70.363281 354.292969 70.566406 363.542969 70.859375 371.710938 L 300.480469 371.710938 C 300.921875 363.023438 301.132812 353.632812 301.152344 343.75 L 301.15625 342.136719 L 302.769531 342.097656 C 310.496094 341.917969 316.621094 337.75 321.371094 330.5 C 326.15625 323.207031 329.453125 312.910156 331.414062 300.875 C 335.332031 276.832031 333.816406 246.40625 328.699219 220.792969 C 324.792969 201.242188 320.226562 185.699219 306.191406 165.46875 C 290.628906 143.035156 268.253906 135.65625 252.847656 133.472656 L 252.78125 133.460938 L 252.714844 133.445312 C 240.785156 130.738281 229.070312 129.308594 221.628906 128.964844 C 221.203125 128.945312 220.679688 129.109375 220.078125 129.535156 C 219.476562 129.953125 218.90625 130.558594 218.441406 131.195312 C 216.898438 133.308594 214.320312 135.6875 211.441406 138.019531 C 208.535156 140.375 205.210938 142.765625 202.082031 144.898438 C 198.953125 147.039062 196.003906 148.929688 193.835938 150.289062 C 192.75 150.96875 191.863281 151.515625 191.242188 151.890625 C 190.933594 152.078125 190.691406 152.226562 190.527344 152.324219 L 190.335938 152.4375 L 190.273438 152.476562 C 190.273438 152.476562 190.269531 152.480469 189.425781 151.054688 C 188.492188 152.421875 188.492188 152.421875 188.492188 152.421875 L 188.429688 152.378906 L 188.242188 152.253906 C 188.082031 152.140625 187.847656 151.980469 187.542969 151.769531 C 186.941406 151.347656 186.074219 150.742188 185.011719 149.984375 C 182.890625 148.476562 180.003906 146.378906 176.921875 144.023438 C 170.835938 139.367188 163.769531 133.53125 160.617188 129.242188 C 160.179688 128.648438 159.582031 128.097656 158.941406 127.734375 C 158.292969 127.367188 157.710938 127.25 157.242188 127.320312 C 144.945312 129.21875 132.726562 131.175781 121.464844 134.058594 L 121.410156 134.074219 L 121.355469 134.082031 C 106.222656 136.90625 86.09375 144.789062 71.746094 165.46875 C 57.710938 185.699219 53.144531 201.242188 49.238281 220.792969 C 44.078125 246.617188 40.746094 277.628906 42.925781 302.117188 C 44.019531 314.378906 46.484375 324.835938 50.664062 332.179688 C 54.796875 339.445312 60.527344 343.546875 68.335938 343.546875 Z M 189.425781 151.054688 L 188.492188 152.421875 L 189.363281 153.019531 L 190.273438 152.476562 Z M 189.425781 151.054688 " fill-opacity="1" fill-rule="evenodd"/><path fill="#ffffff" d="M 132.644531 241.859375 C 135.742188 242.449219 147.027344 251.492188 152.28125 255.9375 C 155.070312 266.398438 156.84375 287.097656 141.640625 286.195312 C 122.640625 285.066406 107.328125 283.398438 110.484375 262.0625 C 113.011719 244.996094 123.527344 245.367188 128.472656 247.6875 C 128.570312 245.5 129.542969 241.269531 132.644531 241.859375 Z M 132.644531 241.859375 " fill-opacity="1" fill-rule="nonzero"/><path fill="#032068" d="M 151.292969 284.476562 C 148.988281 286.84375 145.757812 288.101562 141.542969 287.851562 C 136.796875 287.570312 132.203125 287.25 128.054688 286.585938 C 123.910156 285.925781 120.097656 284.902344 116.953125 283.15625 C 113.765625 281.390625 111.265625 278.875 109.816406 275.300781 C 108.378906 271.761719 108.03125 267.335938 108.847656 261.820312 C 110.15625 252.96875 113.621094 248.195312 117.84375 246.117188 C 121.070312 244.535156 124.460938 244.667969 127.113281 245.421875 C 127.292969 244.605469 127.5625 243.75 127.957031 242.976562 C 128.359375 242.195312 128.9375 241.386719 129.789062 240.828125 C 130.683594 240.242188 131.761719 240.003906 132.953125 240.230469 C 133.574219 240.351562 134.257812 240.644531 134.910156 240.972656 C 135.589844 241.316406 136.355469 241.765625 137.167969 242.28125 C 138.792969 243.3125 140.699219 244.667969 142.644531 246.121094 C 146.546875 249.039062 150.707031 252.433594 153.351562 254.671875 L 153.75 255.007812 L 153.882812 255.511719 C 155.304688 260.851562 156.503906 268.90625 155.339844 275.613281 C 154.753906 278.972656 153.542969 282.167969 151.292969 284.476562 Z M 150.8125 256.867188 C 152.113281 261.964844 153.09375 269.203125 152.078125 275.042969 C 151.550781 278.054688 150.527344 280.515625 148.925781 282.164062 C 147.375 283.75 145.125 284.742188 141.738281 284.539062 C 136.988281 284.257812 132.542969 283.949219 128.574219 283.3125 C 124.601562 282.679688 121.21875 281.738281 118.558594 280.257812 C 115.933594 278.800781 114.007812 276.828125 112.882812 274.054688 C 111.742188 271.242188 111.359375 267.460938 112.125 262.308594 C 113.339844 254.089844 116.398438 250.519531 119.300781 249.09375 C 122.285156 247.628906 125.601562 248.171875 127.769531 249.1875 L 130.015625 250.242188 L 130.128906 247.761719 C 130.171875 246.800781 130.410156 245.457031 130.90625 244.484375 C 131.148438 244.011719 131.398438 243.734375 131.605469 243.597656 C 131.769531 243.488281 131.972656 243.417969 132.335938 243.488281 C 132.484375 243.515625 132.832031 243.632812 133.414062 243.929688 C 133.964844 244.207031 134.628906 244.597656 135.394531 245.082031 C 136.917969 246.046875 138.746094 247.347656 140.664062 248.777344 C 144.304688 251.5 148.195312 254.660156 150.8125 256.867188 Z M 150.8125 256.867188 " fill-opacity="1" fill-rule="evenodd"/><path fill="#032068" d="M 148.558594 49.933594 C 147.050781 59.15625 148.558594 72.03125 152.320312 76.835938 L 159.84375 60.5 C 162.097656 62.039062 172.695312 62.421875 176.769531 62.421875 C 192.570312 61.652344 204.042969 52.496094 207.804688 48.011719 C 208.558594 54.929688 218.777344 73.3125 222.851562 81.640625 C 227.867188 73.953125 231.128906 53.773438 226.613281 34.558594 C 222.097656 15.34375 209.683594 14.382812 202.160156 16.304688 C 181.472656 -0.03125 157.960938 1.890625 146.675781 18.226562 C 137.648438 31.292969 142.914062 44.808594 148.558594 49.933594 Z M 148.558594 49.933594 " fill-opacity="1" fill-rule="nonzero"/><path fill="#032068" d="M 286.722656 265.675781 C 277.816406 265.675781 227.039062 261.910156 199.773438 261.910156 C 230.828125 256.730469 237.363281 258.730469 260.84375 256.730469 L 266.277344 234.972656 L 267.980469 259.707031 Z M 286.722656 265.675781 " fill-opacity="1" fill-rule="nonzero"/><path fill="#ffffff" d="M 153.65625 286.429688 L 163.902344 260.503906 C 165.890625 255.46875 171.222656 252.621094 176.550781 253.554688 C 197.390625 257.195312 226.90625 260.328125 249.347656 264.636719 L 219.660156 332.53125 C 200.875 325.042969 174.8125 310.824219 164.132812 304.65625 L 157.152344 299.226562 C 153.273438 296.210938 151.851562 291 153.65625 286.429688 Z M 153.65625 286.429688 " fill-opacity="1" fill-rule="nonzero"/><path fill="#032068" d="M 188.515625 120.492188 C 176.855469 120.492188 169.691406 115.3125 167.5625 112.722656 L 166.652344 122.433594 C 187.058594 134.867188 205.519531 127.613281 212.199219 122.433594 L 211.289062 112.722656 C 208.554688 115.3125 200.175781 120.492188 188.515625 120.492188 Z M 188.515625 120.492188 " fill-opacity="1" fill-rule="nonzero"/><path fill="#ffffff" d="M 234.914062 255.199219 C 231.816406 255.789062 220.53125 264.832031 215.277344 269.277344 C 212.488281 279.742188 210.714844 300.4375 225.917969 299.535156 C 244.917969 298.410156 260.230469 296.742188 257.074219 275.40625 C 254.546875 258.335938 244.03125 258.707031 239.085938 261.027344 C 238.988281 258.839844 238.015625 254.609375 234.914062 255.199219 Z M 234.914062 255.199219 " fill-opacity="1" fill-rule="nonzero"/><path fill="#032068" d="M 216.265625 297.816406 C 218.570312 300.183594 221.800781 301.441406 226.015625 301.191406 C 230.761719 300.910156 235.359375 300.589844 239.507812 299.925781 C 243.648438 299.265625 247.460938 298.246094 250.605469 296.496094 C 253.792969 294.730469 256.292969 292.214844 257.742188 288.640625 C 259.179688 285.105469 259.527344 280.675781 258.710938 275.164062 C 257.402344 266.3125 253.941406 261.535156 249.714844 259.460938 C 246.488281 257.875 243.101562 258.007812 240.445312 258.761719 C 240.269531 257.949219 239.996094 257.09375 239.601562 256.316406 C 239.203125 255.535156 238.621094 254.726562 237.773438 254.167969 C 236.878906 253.582031 235.796875 253.347656 234.609375 253.570312 C 233.984375 253.6875 233.300781 253.984375 232.648438 254.3125 C 231.96875 254.660156 231.207031 255.109375 230.394531 255.621094 C 228.765625 256.65625 226.863281 258.007812 224.914062 259.464844 C 221.015625 262.378906 216.851562 265.773438 214.207031 268.011719 L 213.808594 268.347656 L 213.675781 268.851562 C 212.253906 274.191406 211.054688 282.25 212.222656 288.953125 C 212.804688 292.3125 214.015625 295.507812 216.265625 297.816406 Z M 216.746094 270.207031 C 215.445312 275.308594 214.464844 282.542969 215.484375 288.386719 C 216.007812 291.394531 217.03125 293.855469 218.636719 295.503906 C 220.183594 297.089844 222.433594 298.082031 225.820312 297.882812 C 230.574219 297.601562 235.015625 297.289062 238.984375 296.65625 C 242.957031 296.019531 246.339844 295.078125 249 293.597656 C 251.625 292.140625 253.550781 290.167969 254.675781 287.394531 C 255.816406 284.585938 256.199219 280.800781 255.4375 275.648438 C 254.21875 267.429688 251.160156 263.859375 248.257812 262.433594 C 245.273438 260.96875 241.957031 261.511719 239.789062 262.53125 L 237.542969 263.582031 L 237.433594 261.101562 C 237.390625 260.144531 237.148438 258.796875 236.652344 257.828125 C 236.410156 257.351562 236.160156 257.078125 235.953125 256.9375 C 235.789062 256.832031 235.585938 256.761719 235.226562 256.828125 C 235.074219 256.855469 234.726562 256.976562 234.144531 257.269531 C 233.59375 257.546875 232.929688 257.9375 232.164062 258.421875 C 230.640625 259.390625 228.8125 260.683594 226.894531 262.121094 C 223.253906 264.839844 219.363281 268.003906 216.746094 270.207031 Z M 216.746094 270.207031 " fill-opacity="1" fill-rule="evenodd"/><path fill="#ffffff" d="M 224.089844 297.785156 L 218.082031 270.5625 C 216.917969 265.277344 212.105469 261.605469 206.703125 261.792969 C 180.328125 262.695312 128.824219 263.28125 105.578125 263.984375 L 114.894531 341.6875 C 156.300781 334.4375 199.332031 318.515625 210.859375 314.117188 L 218.609375 309.867188 C 222.917969 307.503906 225.148438 302.582031 224.089844 297.785156 Z M 224.089844 297.785156 " fill-opacity="1" fill-rule="nonzero"/><path fill="#032068" d="M 90.164062 345.652344 C 76.644531 324.003906 52.984375 308.816406 42.84375 303.929688 C 42.84375 311.070312 44.871094 328.0625 52.984375 338.886719 C 61.097656 349.710938 81.148438 347.90625 90.164062 345.652344 Z M 90.164062 345.652344 " fill-opacity="1" fill-rule="nonzero"/><path fill="#032068" d="M 310.980469 342.269531 C 324.5 339.566406 330.882812 318.589844 332.386719 308.441406 C 313.460938 310.246094 290.703125 331.746094 281.6875 342.269531 C 285.820312 343.398438 297.460938 344.976562 310.980469 342.269531 Z M 310.980469 342.269531 " fill-opacity="1" fill-rule="nonzero"/><path fill="#032068" d="M 68.339844 345.207031 C 83.820312 344.46875 104.464844 342.414062 124.210938 338.582031 C 153.832031 332.832031 187.355469 322.003906 219.441406 305.425781 C 183.214844 340.652344 82.773438 352.617188 68.339844 357.230469 Z M 68.339844 345.207031 " fill-opacity="1" fill-rule="nonzero"/><path fill="#032068" d="M 302.230469 343.132812 C 286.75 342.394531 272.3125 340.34375 252.566406 336.507812 C 222.945312 330.757812 222.546875 329.257812 196.667969 322.003906 C 224.617188 344.796875 287.792969 350.546875 302.230469 355.15625 Z M 302.230469 343.132812 " fill-opacity="1" fill-rule="nonzero"/><path fill="#032068" d="M 90.054688 265.675781 L 209.09375 265.675781 C 178.039062 260.496094 139.414062 258.730469 115.933594 256.730469 L 110.503906 234.972656 L 108.800781 259.707031 Z M 90.054688 265.675781 " fill-opacity="1" fill-rule="nonzero"/></svg>